<mxfile host="app.diagrams.net" modified="2024-02-13T01:15:29.854Z" agent="Mozilla/5.0 (Macintosh; Intel Mac OS X 10_15_7) AppleWebKit/537.36 (KHTML, like Gecko) Chrome/121.0.0.0 Safari/537.36" etag="nIBzIOfD-n59pRK693w0" version="23.1.2" type="github">
  <diagram id="R2lEEEUBdFMjLlhIrx00" name="Page-1">
    <mxGraphModel dx="804" dy="786" grid="1" gridSize="10" guides="1" tooltips="1" connect="1" arrows="1" fold="1" page="1" pageScale="1" pageWidth="850" pageHeight="1100" math="0" shadow="0" extFonts="Permanent Marker^https://fonts.googleapis.com/css?family=Permanent+Marker">
      <root>
        <mxCell id="0" />
        <mxCell id="1" parent="0" />
        <mxCell id="aCuJq1FHVLhUi_cSeAXU-275" value="User" style="shape=table;startSize=25;container=1;collapsible=0;childLayout=tableLayout;fixedRows=1;rowLines=1;fontStyle=1;align=center;resizeLast=1;" vertex="1" parent="1">
          <mxGeometry x="1486" y="20" width="207" height="113" as="geometry" />
        </mxCell>
        <mxCell id="aCuJq1FHVLhUi_cSeAXU-276" style="shape=tableRow;horizontal=0;startSize=0;swimlaneHead=0;swimlaneBody=0;fillColor=none;collapsible=0;dropTarget=0;points=[[0,0.5],[1,0.5]];portConstraint=eastwest;top=0;left=0;right=0;bottom=0;" vertex="1" parent="aCuJq1FHVLhUi_cSeAXU-275">
          <mxGeometry y="25" width="207" height="22" as="geometry" />
        </mxCell>
        <mxCell id="aCuJq1FHVLhUi_cSeAXU-277" value="user_id" style="shape=partialRectangle;connectable=0;fillColor=none;top=0;left=0;bottom=0;right=0;align=left;spacingLeft=2;overflow=hidden;fontSize=11;" vertex="1" parent="aCuJq1FHVLhUi_cSeAXU-276">
          <mxGeometry width="72" height="22" as="geometry">
            <mxRectangle width="72" height="22" as="alternateBounds" />
          </mxGeometry>
        </mxCell>
        <mxCell id="aCuJq1FHVLhUi_cSeAXU-278" value="INT" style="shape=partialRectangle;connectable=0;fillColor=none;top=0;left=0;bottom=0;right=0;align=left;spacingLeft=2;overflow=hidden;fontSize=11;" vertex="1" parent="aCuJq1FHVLhUi_cSeAXU-276">
          <mxGeometry x="72" width="87" height="22" as="geometry">
            <mxRectangle width="87" height="22" as="alternateBounds" />
          </mxGeometry>
        </mxCell>
        <mxCell id="aCuJq1FHVLhUi_cSeAXU-279" value="" style="shape=partialRectangle;connectable=0;fillColor=none;top=0;left=0;bottom=0;right=0;align=left;spacingLeft=2;overflow=hidden;fontSize=11;" vertex="1" parent="aCuJq1FHVLhUi_cSeAXU-276">
          <mxGeometry x="159" width="48" height="22" as="geometry">
            <mxRectangle width="48" height="22" as="alternateBounds" />
          </mxGeometry>
        </mxCell>
        <mxCell id="aCuJq1FHVLhUi_cSeAXU-280" style="shape=tableRow;horizontal=0;startSize=0;swimlaneHead=0;swimlaneBody=0;fillColor=none;collapsible=0;dropTarget=0;points=[[0,0.5],[1,0.5]];portConstraint=eastwest;top=0;left=0;right=0;bottom=0;" vertex="1" parent="aCuJq1FHVLhUi_cSeAXU-275">
          <mxGeometry y="47" width="207" height="22" as="geometry" />
        </mxCell>
        <mxCell id="aCuJq1FHVLhUi_cSeAXU-281" value="name" style="shape=partialRectangle;connectable=0;fillColor=none;top=0;left=0;bottom=0;right=0;align=left;spacingLeft=2;overflow=hidden;fontSize=11;" vertex="1" parent="aCuJq1FHVLhUi_cSeAXU-280">
          <mxGeometry width="72" height="22" as="geometry">
            <mxRectangle width="72" height="22" as="alternateBounds" />
          </mxGeometry>
        </mxCell>
        <mxCell id="aCuJq1FHVLhUi_cSeAXU-282" value="VARCHAR" style="shape=partialRectangle;connectable=0;fillColor=none;top=0;left=0;bottom=0;right=0;align=left;spacingLeft=2;overflow=hidden;fontSize=11;" vertex="1" parent="aCuJq1FHVLhUi_cSeAXU-280">
          <mxGeometry x="72" width="87" height="22" as="geometry">
            <mxRectangle width="87" height="22" as="alternateBounds" />
          </mxGeometry>
        </mxCell>
        <mxCell id="aCuJq1FHVLhUi_cSeAXU-283" value="NOT NULL" style="shape=partialRectangle;connectable=0;fillColor=none;top=0;left=0;bottom=0;right=0;align=left;spacingLeft=2;overflow=hidden;fontSize=11;" vertex="1" parent="aCuJq1FHVLhUi_cSeAXU-280">
          <mxGeometry x="159" width="48" height="22" as="geometry">
            <mxRectangle width="48" height="22" as="alternateBounds" />
          </mxGeometry>
        </mxCell>
        <mxCell id="aCuJq1FHVLhUi_cSeAXU-284" style="shape=tableRow;horizontal=0;startSize=0;swimlaneHead=0;swimlaneBody=0;fillColor=none;collapsible=0;dropTarget=0;points=[[0,0.5],[1,0.5]];portConstraint=eastwest;top=0;left=0;right=0;bottom=0;" vertex="1" parent="aCuJq1FHVLhUi_cSeAXU-275">
          <mxGeometry y="69" width="207" height="22" as="geometry" />
        </mxCell>
        <mxCell id="aCuJq1FHVLhUi_cSeAXU-285" value="image" style="shape=partialRectangle;connectable=0;fillColor=none;top=0;left=0;bottom=0;right=0;align=left;spacingLeft=2;overflow=hidden;fontSize=11;" vertex="1" parent="aCuJq1FHVLhUi_cSeAXU-284">
          <mxGeometry width="72" height="22" as="geometry">
            <mxRectangle width="72" height="22" as="alternateBounds" />
          </mxGeometry>
        </mxCell>
        <mxCell id="aCuJq1FHVLhUi_cSeAXU-286" value="VARCHAR" style="shape=partialRectangle;connectable=0;fillColor=none;top=0;left=0;bottom=0;right=0;align=left;spacingLeft=2;overflow=hidden;fontSize=11;" vertex="1" parent="aCuJq1FHVLhUi_cSeAXU-284">
          <mxGeometry x="72" width="87" height="22" as="geometry">
            <mxRectangle width="87" height="22" as="alternateBounds" />
          </mxGeometry>
        </mxCell>
        <mxCell id="aCuJq1FHVLhUi_cSeAXU-287" value="" style="shape=partialRectangle;connectable=0;fillColor=none;top=0;left=0;bottom=0;right=0;align=left;spacingLeft=2;overflow=hidden;fontSize=11;" vertex="1" parent="aCuJq1FHVLhUi_cSeAXU-284">
          <mxGeometry x="159" width="48" height="22" as="geometry">
            <mxRectangle width="48" height="22" as="alternateBounds" />
          </mxGeometry>
        </mxCell>
        <mxCell id="aCuJq1FHVLhUi_cSeAXU-288" style="shape=tableRow;horizontal=0;startSize=0;swimlaneHead=0;swimlaneBody=0;fillColor=none;collapsible=0;dropTarget=0;points=[[0,0.5],[1,0.5]];portConstraint=eastwest;top=0;left=0;right=0;bottom=0;" vertex="1" parent="aCuJq1FHVLhUi_cSeAXU-275">
          <mxGeometry y="91" width="207" height="22" as="geometry" />
        </mxCell>
        <mxCell id="aCuJq1FHVLhUi_cSeAXU-289" value="phone_number" style="shape=partialRectangle;connectable=0;fillColor=none;top=0;left=0;bottom=0;right=0;align=left;spacingLeft=2;overflow=hidden;fontSize=11;" vertex="1" parent="aCuJq1FHVLhUi_cSeAXU-288">
          <mxGeometry width="72" height="22" as="geometry">
            <mxRectangle width="72" height="22" as="alternateBounds" />
          </mxGeometry>
        </mxCell>
        <mxCell id="aCuJq1FHVLhUi_cSeAXU-290" value="VARCHAR" style="shape=partialRectangle;connectable=0;fillColor=none;top=0;left=0;bottom=0;right=0;align=left;spacingLeft=2;overflow=hidden;fontSize=11;" vertex="1" parent="aCuJq1FHVLhUi_cSeAXU-288">
          <mxGeometry x="72" width="87" height="22" as="geometry">
            <mxRectangle width="87" height="22" as="alternateBounds" />
          </mxGeometry>
        </mxCell>
        <mxCell id="aCuJq1FHVLhUi_cSeAXU-291" value="NOT NULL" style="shape=partialRectangle;connectable=0;fillColor=none;top=0;left=0;bottom=0;right=0;align=left;spacingLeft=2;overflow=hidden;fontSize=11;" vertex="1" parent="aCuJq1FHVLhUi_cSeAXU-288">
          <mxGeometry x="159" width="48" height="22" as="geometry">
            <mxRectangle width="48" height="22" as="alternateBounds" />
          </mxGeometry>
        </mxCell>
        <mxCell id="aCuJq1FHVLhUi_cSeAXU-292" value="Profile" style="shape=table;startSize=25;container=1;collapsible=0;childLayout=tableLayout;fixedRows=1;rowLines=1;fontStyle=1;align=center;resizeLast=1;" vertex="1" parent="1">
          <mxGeometry x="468" y="232" width="383" height="443" as="geometry" />
        </mxCell>
        <mxCell id="aCuJq1FHVLhUi_cSeAXU-293" style="shape=tableRow;horizontal=0;startSize=0;swimlaneHead=0;swimlaneBody=0;fillColor=none;collapsible=0;dropTarget=0;points=[[0,0.5],[1,0.5]];portConstraint=eastwest;top=0;left=0;right=0;bottom=0;" vertex="1" parent="aCuJq1FHVLhUi_cSeAXU-292">
          <mxGeometry y="25" width="383" height="22" as="geometry" />
        </mxCell>
        <mxCell id="aCuJq1FHVLhUi_cSeAXU-294" value="profile_id" style="shape=partialRectangle;connectable=0;fillColor=none;top=0;left=0;bottom=0;right=0;align=left;spacingLeft=2;overflow=hidden;fontSize=11;" vertex="1" parent="aCuJq1FHVLhUi_cSeAXU-293">
          <mxGeometry width="108" height="22" as="geometry">
            <mxRectangle width="108" height="22" as="alternateBounds" />
          </mxGeometry>
        </mxCell>
        <mxCell id="aCuJq1FHVLhUi_cSeAXU-295" value="INT" style="shape=partialRectangle;connectable=0;fillColor=none;top=0;left=0;bottom=0;right=0;align=left;spacingLeft=2;overflow=hidden;fontSize=11;" vertex="1" parent="aCuJq1FHVLhUi_cSeAXU-293">
          <mxGeometry x="108" width="71" height="22" as="geometry">
            <mxRectangle width="71" height="22" as="alternateBounds" />
          </mxGeometry>
        </mxCell>
        <mxCell id="aCuJq1FHVLhUi_cSeAXU-296" value="" style="shape=partialRectangle;connectable=0;fillColor=none;top=0;left=0;bottom=0;right=0;align=left;spacingLeft=2;overflow=hidden;fontSize=11;" vertex="1" parent="aCuJq1FHVLhUi_cSeAXU-293">
          <mxGeometry x="179" width="204" height="22" as="geometry">
            <mxRectangle width="204" height="22" as="alternateBounds" />
          </mxGeometry>
        </mxCell>
        <mxCell id="aCuJq1FHVLhUi_cSeAXU-297" style="shape=tableRow;horizontal=0;startSize=0;swimlaneHead=0;swimlaneBody=0;fillColor=none;collapsible=0;dropTarget=0;points=[[0,0.5],[1,0.5]];portConstraint=eastwest;top=0;left=0;right=0;bottom=0;" vertex="1" parent="aCuJq1FHVLhUi_cSeAXU-292">
          <mxGeometry y="47" width="383" height="22" as="geometry" />
        </mxCell>
        <mxCell id="aCuJq1FHVLhUi_cSeAXU-298" value="user_id" style="shape=partialRectangle;connectable=0;fillColor=none;top=0;left=0;bottom=0;right=0;align=left;spacingLeft=2;overflow=hidden;fontSize=11;" vertex="1" parent="aCuJq1FHVLhUi_cSeAXU-297">
          <mxGeometry width="108" height="22" as="geometry">
            <mxRectangle width="108" height="22" as="alternateBounds" />
          </mxGeometry>
        </mxCell>
        <mxCell id="aCuJq1FHVLhUi_cSeAXU-299" value="INT" style="shape=partialRectangle;connectable=0;fillColor=none;top=0;left=0;bottom=0;right=0;align=left;spacingLeft=2;overflow=hidden;fontSize=11;" vertex="1" parent="aCuJq1FHVLhUi_cSeAXU-297">
          <mxGeometry x="108" width="71" height="22" as="geometry">
            <mxRectangle width="71" height="22" as="alternateBounds" />
          </mxGeometry>
        </mxCell>
        <mxCell id="aCuJq1FHVLhUi_cSeAXU-300" value="" style="shape=partialRectangle;connectable=0;fillColor=none;top=0;left=0;bottom=0;right=0;align=left;spacingLeft=2;overflow=hidden;fontSize=11;" vertex="1" parent="aCuJq1FHVLhUi_cSeAXU-297">
          <mxGeometry x="179" width="204" height="22" as="geometry">
            <mxRectangle width="204" height="22" as="alternateBounds" />
          </mxGeometry>
        </mxCell>
        <mxCell id="aCuJq1FHVLhUi_cSeAXU-301" style="shape=tableRow;horizontal=0;startSize=0;swimlaneHead=0;swimlaneBody=0;fillColor=none;collapsible=0;dropTarget=0;points=[[0,0.5],[1,0.5]];portConstraint=eastwest;top=0;left=0;right=0;bottom=0;" vertex="1" parent="aCuJq1FHVLhUi_cSeAXU-292">
          <mxGeometry y="69" width="383" height="22" as="geometry" />
        </mxCell>
        <mxCell id="aCuJq1FHVLhUi_cSeAXU-302" value="name" style="shape=partialRectangle;connectable=0;fillColor=none;top=0;left=0;bottom=0;right=0;align=left;spacingLeft=2;overflow=hidden;fontSize=11;" vertex="1" parent="aCuJq1FHVLhUi_cSeAXU-301">
          <mxGeometry width="108" height="22" as="geometry">
            <mxRectangle width="108" height="22" as="alternateBounds" />
          </mxGeometry>
        </mxCell>
        <mxCell id="aCuJq1FHVLhUi_cSeAXU-303" value="VARCHAR" style="shape=partialRectangle;connectable=0;fillColor=none;top=0;left=0;bottom=0;right=0;align=left;spacingLeft=2;overflow=hidden;fontSize=11;" vertex="1" parent="aCuJq1FHVLhUi_cSeAXU-301">
          <mxGeometry x="108" width="71" height="22" as="geometry">
            <mxRectangle width="71" height="22" as="alternateBounds" />
          </mxGeometry>
        </mxCell>
        <mxCell id="aCuJq1FHVLhUi_cSeAXU-304" value="NOT NULL" style="shape=partialRectangle;connectable=0;fillColor=none;top=0;left=0;bottom=0;right=0;align=left;spacingLeft=2;overflow=hidden;fontSize=11;" vertex="1" parent="aCuJq1FHVLhUi_cSeAXU-301">
          <mxGeometry x="179" width="204" height="22" as="geometry">
            <mxRectangle width="204" height="22" as="alternateBounds" />
          </mxGeometry>
        </mxCell>
        <mxCell id="aCuJq1FHVLhUi_cSeAXU-305" style="shape=tableRow;horizontal=0;startSize=0;swimlaneHead=0;swimlaneBody=0;fillColor=none;collapsible=0;dropTarget=0;points=[[0,0.5],[1,0.5]];portConstraint=eastwest;top=0;left=0;right=0;bottom=0;" vertex="1" parent="aCuJq1FHVLhUi_cSeAXU-292">
          <mxGeometry y="91" width="383" height="22" as="geometry" />
        </mxCell>
        <mxCell id="aCuJq1FHVLhUi_cSeAXU-306" value="image_url" style="shape=partialRectangle;connectable=0;fillColor=none;top=0;left=0;bottom=0;right=0;align=left;spacingLeft=2;overflow=hidden;fontSize=11;" vertex="1" parent="aCuJq1FHVLhUi_cSeAXU-305">
          <mxGeometry width="108" height="22" as="geometry">
            <mxRectangle width="108" height="22" as="alternateBounds" />
          </mxGeometry>
        </mxCell>
        <mxCell id="aCuJq1FHVLhUi_cSeAXU-307" value="VARCHAR" style="shape=partialRectangle;connectable=0;fillColor=none;top=0;left=0;bottom=0;right=0;align=left;spacingLeft=2;overflow=hidden;fontSize=11;" vertex="1" parent="aCuJq1FHVLhUi_cSeAXU-305">
          <mxGeometry x="108" width="71" height="22" as="geometry">
            <mxRectangle width="71" height="22" as="alternateBounds" />
          </mxGeometry>
        </mxCell>
        <mxCell id="aCuJq1FHVLhUi_cSeAXU-308" value="" style="shape=partialRectangle;connectable=0;fillColor=none;top=0;left=0;bottom=0;right=0;align=left;spacingLeft=2;overflow=hidden;fontSize=11;" vertex="1" parent="aCuJq1FHVLhUi_cSeAXU-305">
          <mxGeometry x="179" width="204" height="22" as="geometry">
            <mxRectangle width="204" height="22" as="alternateBounds" />
          </mxGeometry>
        </mxCell>
        <mxCell id="aCuJq1FHVLhUi_cSeAXU-309" style="shape=tableRow;horizontal=0;startSize=0;swimlaneHead=0;swimlaneBody=0;fillColor=none;collapsible=0;dropTarget=0;points=[[0,0.5],[1,0.5]];portConstraint=eastwest;top=0;left=0;right=0;bottom=0;" vertex="1" parent="aCuJq1FHVLhUi_cSeAXU-292">
          <mxGeometry y="113" width="383" height="22" as="geometry" />
        </mxCell>
        <mxCell id="aCuJq1FHVLhUi_cSeAXU-310" value="small_image_url" style="shape=partialRectangle;connectable=0;fillColor=none;top=0;left=0;bottom=0;right=0;align=left;spacingLeft=2;overflow=hidden;fontSize=11;" vertex="1" parent="aCuJq1FHVLhUi_cSeAXU-309">
          <mxGeometry width="108" height="22" as="geometry">
            <mxRectangle width="108" height="22" as="alternateBounds" />
          </mxGeometry>
        </mxCell>
        <mxCell id="aCuJq1FHVLhUi_cSeAXU-311" value="VARCHAR" style="shape=partialRectangle;connectable=0;fillColor=none;top=0;left=0;bottom=0;right=0;align=left;spacingLeft=2;overflow=hidden;fontSize=11;" vertex="1" parent="aCuJq1FHVLhUi_cSeAXU-309">
          <mxGeometry x="108" width="71" height="22" as="geometry">
            <mxRectangle width="71" height="22" as="alternateBounds" />
          </mxGeometry>
        </mxCell>
        <mxCell id="aCuJq1FHVLhUi_cSeAXU-312" value="" style="shape=partialRectangle;connectable=0;fillColor=none;top=0;left=0;bottom=0;right=0;align=left;spacingLeft=2;overflow=hidden;fontSize=11;" vertex="1" parent="aCuJq1FHVLhUi_cSeAXU-309">
          <mxGeometry x="179" width="204" height="22" as="geometry">
            <mxRectangle width="204" height="22" as="alternateBounds" />
          </mxGeometry>
        </mxCell>
        <mxCell id="aCuJq1FHVLhUi_cSeAXU-313" style="shape=tableRow;horizontal=0;startSize=0;swimlaneHead=0;swimlaneBody=0;fillColor=none;collapsible=0;dropTarget=0;points=[[0,0.5],[1,0.5]];portConstraint=eastwest;top=0;left=0;right=0;bottom=0;" vertex="1" parent="aCuJq1FHVLhUi_cSeAXU-292">
          <mxGeometry y="135" width="383" height="22" as="geometry" />
        </mxCell>
        <mxCell id="aCuJq1FHVLhUi_cSeAXU-314" value="medium_image_url" style="shape=partialRectangle;connectable=0;fillColor=none;top=0;left=0;bottom=0;right=0;align=left;spacingLeft=2;overflow=hidden;fontSize=11;" vertex="1" parent="aCuJq1FHVLhUi_cSeAXU-313">
          <mxGeometry width="108" height="22" as="geometry">
            <mxRectangle width="108" height="22" as="alternateBounds" />
          </mxGeometry>
        </mxCell>
        <mxCell id="aCuJq1FHVLhUi_cSeAXU-315" value="VARCHAR" style="shape=partialRectangle;connectable=0;fillColor=none;top=0;left=0;bottom=0;right=0;align=left;spacingLeft=2;overflow=hidden;fontSize=11;" vertex="1" parent="aCuJq1FHVLhUi_cSeAXU-313">
          <mxGeometry x="108" width="71" height="22" as="geometry">
            <mxRectangle width="71" height="22" as="alternateBounds" />
          </mxGeometry>
        </mxCell>
        <mxCell id="aCuJq1FHVLhUi_cSeAXU-316" value="" style="shape=partialRectangle;connectable=0;fillColor=none;top=0;left=0;bottom=0;right=0;align=left;spacingLeft=2;overflow=hidden;fontSize=11;" vertex="1" parent="aCuJq1FHVLhUi_cSeAXU-313">
          <mxGeometry x="179" width="204" height="22" as="geometry">
            <mxRectangle width="204" height="22" as="alternateBounds" />
          </mxGeometry>
        </mxCell>
        <mxCell id="aCuJq1FHVLhUi_cSeAXU-317" style="shape=tableRow;horizontal=0;startSize=0;swimlaneHead=0;swimlaneBody=0;fillColor=none;collapsible=0;dropTarget=0;points=[[0,0.5],[1,0.5]];portConstraint=eastwest;top=0;left=0;right=0;bottom=0;" vertex="1" parent="aCuJq1FHVLhUi_cSeAXU-292">
          <mxGeometry y="157" width="383" height="22" as="geometry" />
        </mxCell>
        <mxCell id="aCuJq1FHVLhUi_cSeAXU-318" value="title" style="shape=partialRectangle;connectable=0;fillColor=none;top=0;left=0;bottom=0;right=0;align=left;spacingLeft=2;overflow=hidden;fontSize=11;" vertex="1" parent="aCuJq1FHVLhUi_cSeAXU-317">
          <mxGeometry width="108" height="22" as="geometry">
            <mxRectangle width="108" height="22" as="alternateBounds" />
          </mxGeometry>
        </mxCell>
        <mxCell id="aCuJq1FHVLhUi_cSeAXU-319" value="VARCHAR" style="shape=partialRectangle;connectable=0;fillColor=none;top=0;left=0;bottom=0;right=0;align=left;spacingLeft=2;overflow=hidden;fontSize=11;" vertex="1" parent="aCuJq1FHVLhUi_cSeAXU-317">
          <mxGeometry x="108" width="71" height="22" as="geometry">
            <mxRectangle width="71" height="22" as="alternateBounds" />
          </mxGeometry>
        </mxCell>
        <mxCell id="aCuJq1FHVLhUi_cSeAXU-320" value="NOT NULL" style="shape=partialRectangle;connectable=0;fillColor=none;top=0;left=0;bottom=0;right=0;align=left;spacingLeft=2;overflow=hidden;fontSize=11;" vertex="1" parent="aCuJq1FHVLhUi_cSeAXU-317">
          <mxGeometry x="179" width="204" height="22" as="geometry">
            <mxRectangle width="204" height="22" as="alternateBounds" />
          </mxGeometry>
        </mxCell>
        <mxCell id="aCuJq1FHVLhUi_cSeAXU-321" style="shape=tableRow;horizontal=0;startSize=0;swimlaneHead=0;swimlaneBody=0;fillColor=none;collapsible=0;dropTarget=0;points=[[0,0.5],[1,0.5]];portConstraint=eastwest;top=0;left=0;right=0;bottom=0;" vertex="1" parent="aCuJq1FHVLhUi_cSeAXU-292">
          <mxGeometry y="179" width="383" height="22" as="geometry" />
        </mxCell>
        <mxCell id="aCuJq1FHVLhUi_cSeAXU-322" value="subscriber_count" style="shape=partialRectangle;connectable=0;fillColor=none;top=0;left=0;bottom=0;right=0;align=left;spacingLeft=2;overflow=hidden;fontSize=11;" vertex="1" parent="aCuJq1FHVLhUi_cSeAXU-321">
          <mxGeometry width="108" height="22" as="geometry">
            <mxRectangle width="108" height="22" as="alternateBounds" />
          </mxGeometry>
        </mxCell>
        <mxCell id="aCuJq1FHVLhUi_cSeAXU-323" value="INT" style="shape=partialRectangle;connectable=0;fillColor=none;top=0;left=0;bottom=0;right=0;align=left;spacingLeft=2;overflow=hidden;fontSize=11;" vertex="1" parent="aCuJq1FHVLhUi_cSeAXU-321">
          <mxGeometry x="108" width="71" height="22" as="geometry">
            <mxRectangle width="71" height="22" as="alternateBounds" />
          </mxGeometry>
        </mxCell>
        <mxCell id="aCuJq1FHVLhUi_cSeAXU-324" value="NOT NULL DEFAULT 0" style="shape=partialRectangle;connectable=0;fillColor=none;top=0;left=0;bottom=0;right=0;align=left;spacingLeft=2;overflow=hidden;fontSize=11;" vertex="1" parent="aCuJq1FHVLhUi_cSeAXU-321">
          <mxGeometry x="179" width="204" height="22" as="geometry">
            <mxRectangle width="204" height="22" as="alternateBounds" />
          </mxGeometry>
        </mxCell>
        <mxCell id="aCuJq1FHVLhUi_cSeAXU-325" style="shape=tableRow;horizontal=0;startSize=0;swimlaneHead=0;swimlaneBody=0;fillColor=none;collapsible=0;dropTarget=0;points=[[0,0.5],[1,0.5]];portConstraint=eastwest;top=0;left=0;right=0;bottom=0;" vertex="1" parent="aCuJq1FHVLhUi_cSeAXU-292">
          <mxGeometry y="201" width="383" height="22" as="geometry" />
        </mxCell>
        <mxCell id="aCuJq1FHVLhUi_cSeAXU-326" value="subscribing_count" style="shape=partialRectangle;connectable=0;fillColor=none;top=0;left=0;bottom=0;right=0;align=left;spacingLeft=2;overflow=hidden;fontSize=11;" vertex="1" parent="aCuJq1FHVLhUi_cSeAXU-325">
          <mxGeometry width="108" height="22" as="geometry">
            <mxRectangle width="108" height="22" as="alternateBounds" />
          </mxGeometry>
        </mxCell>
        <mxCell id="aCuJq1FHVLhUi_cSeAXU-327" value="INT" style="shape=partialRectangle;connectable=0;fillColor=none;top=0;left=0;bottom=0;right=0;align=left;spacingLeft=2;overflow=hidden;fontSize=11;" vertex="1" parent="aCuJq1FHVLhUi_cSeAXU-325">
          <mxGeometry x="108" width="71" height="22" as="geometry">
            <mxRectangle width="71" height="22" as="alternateBounds" />
          </mxGeometry>
        </mxCell>
        <mxCell id="aCuJq1FHVLhUi_cSeAXU-328" value="NOT NULL DEFAULT 0" style="shape=partialRectangle;connectable=0;fillColor=none;top=0;left=0;bottom=0;right=0;align=left;spacingLeft=2;overflow=hidden;fontSize=11;" vertex="1" parent="aCuJq1FHVLhUi_cSeAXU-325">
          <mxGeometry x="179" width="204" height="22" as="geometry">
            <mxRectangle width="204" height="22" as="alternateBounds" />
          </mxGeometry>
        </mxCell>
        <mxCell id="aCuJq1FHVLhUi_cSeAXU-329" style="shape=tableRow;horizontal=0;startSize=0;swimlaneHead=0;swimlaneBody=0;fillColor=none;collapsible=0;dropTarget=0;points=[[0,0.5],[1,0.5]];portConstraint=eastwest;top=0;left=0;right=0;bottom=0;" vertex="1" parent="aCuJq1FHVLhUi_cSeAXU-292">
          <mxGeometry y="223" width="383" height="22" as="geometry" />
        </mxCell>
        <mxCell id="aCuJq1FHVLhUi_cSeAXU-330" value="post_count" style="shape=partialRectangle;connectable=0;fillColor=none;top=0;left=0;bottom=0;right=0;align=left;spacingLeft=2;overflow=hidden;fontSize=11;" vertex="1" parent="aCuJq1FHVLhUi_cSeAXU-329">
          <mxGeometry width="108" height="22" as="geometry">
            <mxRectangle width="108" height="22" as="alternateBounds" />
          </mxGeometry>
        </mxCell>
        <mxCell id="aCuJq1FHVLhUi_cSeAXU-331" value="INT" style="shape=partialRectangle;connectable=0;fillColor=none;top=0;left=0;bottom=0;right=0;align=left;spacingLeft=2;overflow=hidden;fontSize=11;" vertex="1" parent="aCuJq1FHVLhUi_cSeAXU-329">
          <mxGeometry x="108" width="71" height="22" as="geometry">
            <mxRectangle width="71" height="22" as="alternateBounds" />
          </mxGeometry>
        </mxCell>
        <mxCell id="aCuJq1FHVLhUi_cSeAXU-332" value="NOT NULL DEFAULT 0" style="shape=partialRectangle;connectable=0;fillColor=none;top=0;left=0;bottom=0;right=0;align=left;spacingLeft=2;overflow=hidden;fontSize=11;" vertex="1" parent="aCuJq1FHVLhUi_cSeAXU-329">
          <mxGeometry x="179" width="204" height="22" as="geometry">
            <mxRectangle width="204" height="22" as="alternateBounds" />
          </mxGeometry>
        </mxCell>
        <mxCell id="aCuJq1FHVLhUi_cSeAXU-333" style="shape=tableRow;horizontal=0;startSize=0;swimlaneHead=0;swimlaneBody=0;fillColor=none;collapsible=0;dropTarget=0;points=[[0,0.5],[1,0.5]];portConstraint=eastwest;top=0;left=0;right=0;bottom=0;" vertex="1" parent="aCuJq1FHVLhUi_cSeAXU-292">
          <mxGeometry y="245" width="383" height="22" as="geometry" />
        </mxCell>
        <mxCell id="aCuJq1FHVLhUi_cSeAXU-334" value="short_description" style="shape=partialRectangle;connectable=0;fillColor=none;top=0;left=0;bottom=0;right=0;align=left;spacingLeft=2;overflow=hidden;fontSize=11;" vertex="1" parent="aCuJq1FHVLhUi_cSeAXU-333">
          <mxGeometry width="108" height="22" as="geometry">
            <mxRectangle width="108" height="22" as="alternateBounds" />
          </mxGeometry>
        </mxCell>
        <mxCell id="aCuJq1FHVLhUi_cSeAXU-335" value="VARCHAR" style="shape=partialRectangle;connectable=0;fillColor=none;top=0;left=0;bottom=0;right=0;align=left;spacingLeft=2;overflow=hidden;fontSize=11;" vertex="1" parent="aCuJq1FHVLhUi_cSeAXU-333">
          <mxGeometry x="108" width="71" height="22" as="geometry">
            <mxRectangle width="71" height="22" as="alternateBounds" />
          </mxGeometry>
        </mxCell>
        <mxCell id="aCuJq1FHVLhUi_cSeAXU-336" value="" style="shape=partialRectangle;connectable=0;fillColor=none;top=0;left=0;bottom=0;right=0;align=left;spacingLeft=2;overflow=hidden;fontSize=11;" vertex="1" parent="aCuJq1FHVLhUi_cSeAXU-333">
          <mxGeometry x="179" width="204" height="22" as="geometry">
            <mxRectangle width="204" height="22" as="alternateBounds" />
          </mxGeometry>
        </mxCell>
        <mxCell id="aCuJq1FHVLhUi_cSeAXU-337" style="shape=tableRow;horizontal=0;startSize=0;swimlaneHead=0;swimlaneBody=0;fillColor=none;collapsible=0;dropTarget=0;points=[[0,0.5],[1,0.5]];portConstraint=eastwest;top=0;left=0;right=0;bottom=0;" vertex="1" parent="aCuJq1FHVLhUi_cSeAXU-292">
          <mxGeometry y="267" width="383" height="22" as="geometry" />
        </mxCell>
        <mxCell id="aCuJq1FHVLhUi_cSeAXU-338" value="description" style="shape=partialRectangle;connectable=0;fillColor=none;top=0;left=0;bottom=0;right=0;align=left;spacingLeft=2;overflow=hidden;fontSize=11;" vertex="1" parent="aCuJq1FHVLhUi_cSeAXU-337">
          <mxGeometry width="108" height="22" as="geometry">
            <mxRectangle width="108" height="22" as="alternateBounds" />
          </mxGeometry>
        </mxCell>
        <mxCell id="aCuJq1FHVLhUi_cSeAXU-339" value="VARCHAR" style="shape=partialRectangle;connectable=0;fillColor=none;top=0;left=0;bottom=0;right=0;align=left;spacingLeft=2;overflow=hidden;fontSize=11;" vertex="1" parent="aCuJq1FHVLhUi_cSeAXU-337">
          <mxGeometry x="108" width="71" height="22" as="geometry">
            <mxRectangle width="71" height="22" as="alternateBounds" />
          </mxGeometry>
        </mxCell>
        <mxCell id="aCuJq1FHVLhUi_cSeAXU-340" value="" style="shape=partialRectangle;connectable=0;fillColor=none;top=0;left=0;bottom=0;right=0;align=left;spacingLeft=2;overflow=hidden;fontSize=11;" vertex="1" parent="aCuJq1FHVLhUi_cSeAXU-337">
          <mxGeometry x="179" width="204" height="22" as="geometry">
            <mxRectangle width="204" height="22" as="alternateBounds" />
          </mxGeometry>
        </mxCell>
        <mxCell id="aCuJq1FHVLhUi_cSeAXU-341" style="shape=tableRow;horizontal=0;startSize=0;swimlaneHead=0;swimlaneBody=0;fillColor=none;collapsible=0;dropTarget=0;points=[[0,0.5],[1,0.5]];portConstraint=eastwest;top=0;left=0;right=0;bottom=0;" vertex="1" parent="aCuJq1FHVLhUi_cSeAXU-292">
          <mxGeometry y="289" width="383" height="22" as="geometry" />
        </mxCell>
        <mxCell id="aCuJq1FHVLhUi_cSeAXU-342" value="links" style="shape=partialRectangle;connectable=0;fillColor=none;top=0;left=0;bottom=0;right=0;align=left;spacingLeft=2;overflow=hidden;fontSize=11;" vertex="1" parent="aCuJq1FHVLhUi_cSeAXU-341">
          <mxGeometry width="108" height="22" as="geometry">
            <mxRectangle width="108" height="22" as="alternateBounds" />
          </mxGeometry>
        </mxCell>
        <mxCell id="aCuJq1FHVLhUi_cSeAXU-343" value="VARCHAR" style="shape=partialRectangle;connectable=0;fillColor=none;top=0;left=0;bottom=0;right=0;align=left;spacingLeft=2;overflow=hidden;fontSize=11;" vertex="1" parent="aCuJq1FHVLhUi_cSeAXU-341">
          <mxGeometry x="108" width="71" height="22" as="geometry">
            <mxRectangle width="71" height="22" as="alternateBounds" />
          </mxGeometry>
        </mxCell>
        <mxCell id="aCuJq1FHVLhUi_cSeAXU-344" value="" style="shape=partialRectangle;connectable=0;fillColor=none;top=0;left=0;bottom=0;right=0;align=left;spacingLeft=2;overflow=hidden;fontSize=11;" vertex="1" parent="aCuJq1FHVLhUi_cSeAXU-341">
          <mxGeometry x="179" width="204" height="22" as="geometry">
            <mxRectangle width="204" height="22" as="alternateBounds" />
          </mxGeometry>
        </mxCell>
        <mxCell id="aCuJq1FHVLhUi_cSeAXU-345" style="shape=tableRow;horizontal=0;startSize=0;swimlaneHead=0;swimlaneBody=0;fillColor=none;collapsible=0;dropTarget=0;points=[[0,0.5],[1,0.5]];portConstraint=eastwest;top=0;left=0;right=0;bottom=0;" vertex="1" parent="aCuJq1FHVLhUi_cSeAXU-292">
          <mxGeometry y="311" width="383" height="22" as="geometry" />
        </mxCell>
        <mxCell id="aCuJq1FHVLhUi_cSeAXU-346" value="hashtags" style="shape=partialRectangle;connectable=0;fillColor=none;top=0;left=0;bottom=0;right=0;align=left;spacingLeft=2;overflow=hidden;fontSize=11;" vertex="1" parent="aCuJq1FHVLhUi_cSeAXU-345">
          <mxGeometry width="108" height="22" as="geometry">
            <mxRectangle width="108" height="22" as="alternateBounds" />
          </mxGeometry>
        </mxCell>
        <mxCell id="aCuJq1FHVLhUi_cSeAXU-347" value="VARCHAR" style="shape=partialRectangle;connectable=0;fillColor=none;top=0;left=0;bottom=0;right=0;align=left;spacingLeft=2;overflow=hidden;fontSize=11;" vertex="1" parent="aCuJq1FHVLhUi_cSeAXU-345">
          <mxGeometry x="108" width="71" height="22" as="geometry">
            <mxRectangle width="71" height="22" as="alternateBounds" />
          </mxGeometry>
        </mxCell>
        <mxCell id="aCuJq1FHVLhUi_cSeAXU-348" value="" style="shape=partialRectangle;connectable=0;fillColor=none;top=0;left=0;bottom=0;right=0;align=left;spacingLeft=2;overflow=hidden;fontSize=11;" vertex="1" parent="aCuJq1FHVLhUi_cSeAXU-345">
          <mxGeometry x="179" width="204" height="22" as="geometry">
            <mxRectangle width="204" height="22" as="alternateBounds" />
          </mxGeometry>
        </mxCell>
        <mxCell id="aCuJq1FHVLhUi_cSeAXU-349" style="shape=tableRow;horizontal=0;startSize=0;swimlaneHead=0;swimlaneBody=0;fillColor=none;collapsible=0;dropTarget=0;points=[[0,0.5],[1,0.5]];portConstraint=eastwest;top=0;left=0;right=0;bottom=0;" vertex="1" parent="aCuJq1FHVLhUi_cSeAXU-292">
          <mxGeometry y="333" width="383" height="22" as="geometry" />
        </mxCell>
        <mxCell id="aCuJq1FHVLhUi_cSeAXU-350" value="note" style="shape=partialRectangle;connectable=0;fillColor=none;top=0;left=0;bottom=0;right=0;align=left;spacingLeft=2;overflow=hidden;fontSize=11;" vertex="1" parent="aCuJq1FHVLhUi_cSeAXU-349">
          <mxGeometry width="108" height="22" as="geometry">
            <mxRectangle width="108" height="22" as="alternateBounds" />
          </mxGeometry>
        </mxCell>
        <mxCell id="aCuJq1FHVLhUi_cSeAXU-351" value="VARCHAR" style="shape=partialRectangle;connectable=0;fillColor=none;top=0;left=0;bottom=0;right=0;align=left;spacingLeft=2;overflow=hidden;fontSize=11;" vertex="1" parent="aCuJq1FHVLhUi_cSeAXU-349">
          <mxGeometry x="108" width="71" height="22" as="geometry">
            <mxRectangle width="71" height="22" as="alternateBounds" />
          </mxGeometry>
        </mxCell>
        <mxCell id="aCuJq1FHVLhUi_cSeAXU-352" value="" style="shape=partialRectangle;connectable=0;fillColor=none;top=0;left=0;bottom=0;right=0;align=left;spacingLeft=2;overflow=hidden;fontSize=11;" vertex="1" parent="aCuJq1FHVLhUi_cSeAXU-349">
          <mxGeometry x="179" width="204" height="22" as="geometry">
            <mxRectangle width="204" height="22" as="alternateBounds" />
          </mxGeometry>
        </mxCell>
        <mxCell id="aCuJq1FHVLhUi_cSeAXU-353" style="shape=tableRow;horizontal=0;startSize=0;swimlaneHead=0;swimlaneBody=0;fillColor=none;collapsible=0;dropTarget=0;points=[[0,0.5],[1,0.5]];portConstraint=eastwest;top=0;left=0;right=0;bottom=0;" vertex="1" parent="aCuJq1FHVLhUi_cSeAXU-292">
          <mxGeometry y="355" width="383" height="22" as="geometry" />
        </mxCell>
        <mxCell id="aCuJq1FHVLhUi_cSeAXU-354" value="profile_job_opt" style="shape=partialRectangle;connectable=0;fillColor=none;top=0;left=0;bottom=0;right=0;align=left;spacingLeft=2;overflow=hidden;fontSize=11;" vertex="1" parent="aCuJq1FHVLhUi_cSeAXU-353">
          <mxGeometry width="108" height="22" as="geometry">
            <mxRectangle width="108" height="22" as="alternateBounds" />
          </mxGeometry>
        </mxCell>
        <mxCell id="aCuJq1FHVLhUi_cSeAXU-355" value="INT" style="shape=partialRectangle;connectable=0;fillColor=none;top=0;left=0;bottom=0;right=0;align=left;spacingLeft=2;overflow=hidden;fontSize=11;" vertex="1" parent="aCuJq1FHVLhUi_cSeAXU-353">
          <mxGeometry x="108" width="71" height="22" as="geometry">
            <mxRectangle width="71" height="22" as="alternateBounds" />
          </mxGeometry>
        </mxCell>
        <mxCell id="aCuJq1FHVLhUi_cSeAXU-356" value="NOT NULL" style="shape=partialRectangle;connectable=0;fillColor=none;top=0;left=0;bottom=0;right=0;align=left;spacingLeft=2;overflow=hidden;fontSize=11;" vertex="1" parent="aCuJq1FHVLhUi_cSeAXU-353">
          <mxGeometry x="179" width="204" height="22" as="geometry">
            <mxRectangle width="204" height="22" as="alternateBounds" />
          </mxGeometry>
        </mxCell>
        <mxCell id="aCuJq1FHVLhUi_cSeAXU-357" style="shape=tableRow;horizontal=0;startSize=0;swimlaneHead=0;swimlaneBody=0;fillColor=none;collapsible=0;dropTarget=0;points=[[0,0.5],[1,0.5]];portConstraint=eastwest;top=0;left=0;right=0;bottom=0;" vertex="1" parent="aCuJq1FHVLhUi_cSeAXU-292">
          <mxGeometry y="377" width="383" height="22" as="geometry" />
        </mxCell>
        <mxCell id="aCuJq1FHVLhUi_cSeAXU-358" value="openToSearchEngine" style="shape=partialRectangle;connectable=0;fillColor=none;top=0;left=0;bottom=0;right=0;align=left;spacingLeft=2;overflow=hidden;fontSize=11;" vertex="1" parent="aCuJq1FHVLhUi_cSeAXU-357">
          <mxGeometry width="108" height="22" as="geometry">
            <mxRectangle width="108" height="22" as="alternateBounds" />
          </mxGeometry>
        </mxCell>
        <mxCell id="aCuJq1FHVLhUi_cSeAXU-359" value="INT" style="shape=partialRectangle;connectable=0;fillColor=none;top=0;left=0;bottom=0;right=0;align=left;spacingLeft=2;overflow=hidden;fontSize=11;" vertex="1" parent="aCuJq1FHVLhUi_cSeAXU-357">
          <mxGeometry x="108" width="71" height="22" as="geometry">
            <mxRectangle width="71" height="22" as="alternateBounds" />
          </mxGeometry>
        </mxCell>
        <mxCell id="aCuJq1FHVLhUi_cSeAXU-360" value="NOT NULL DEFAULT 0" style="shape=partialRectangle;connectable=0;fillColor=none;top=0;left=0;bottom=0;right=0;align=left;spacingLeft=2;overflow=hidden;fontSize=11;" vertex="1" parent="aCuJq1FHVLhUi_cSeAXU-357">
          <mxGeometry x="179" width="204" height="22" as="geometry">
            <mxRectangle width="204" height="22" as="alternateBounds" />
          </mxGeometry>
        </mxCell>
        <mxCell id="aCuJq1FHVLhUi_cSeAXU-361" style="shape=tableRow;horizontal=0;startSize=0;swimlaneHead=0;swimlaneBody=0;fillColor=none;collapsible=0;dropTarget=0;points=[[0,0.5],[1,0.5]];portConstraint=eastwest;top=0;left=0;right=0;bottom=0;" vertex="1" parent="aCuJq1FHVLhUi_cSeAXU-292">
          <mxGeometry y="399" width="383" height="22" as="geometry" />
        </mxCell>
        <mxCell id="aCuJq1FHVLhUi_cSeAXU-362" value="create_at" style="shape=partialRectangle;connectable=0;fillColor=none;top=0;left=0;bottom=0;right=0;align=left;spacingLeft=2;overflow=hidden;fontSize=11;" vertex="1" parent="aCuJq1FHVLhUi_cSeAXU-361">
          <mxGeometry width="108" height="22" as="geometry">
            <mxRectangle width="108" height="22" as="alternateBounds" />
          </mxGeometry>
        </mxCell>
        <mxCell id="aCuJq1FHVLhUi_cSeAXU-363" value="TIMESTAMP" style="shape=partialRectangle;connectable=0;fillColor=none;top=0;left=0;bottom=0;right=0;align=left;spacingLeft=2;overflow=hidden;fontSize=11;" vertex="1" parent="aCuJq1FHVLhUi_cSeAXU-361">
          <mxGeometry x="108" width="71" height="22" as="geometry">
            <mxRectangle width="71" height="22" as="alternateBounds" />
          </mxGeometry>
        </mxCell>
        <mxCell id="aCuJq1FHVLhUi_cSeAXU-364" value="NOT NULL DEFAULT CURRENT_TIMESTAMP" style="shape=partialRectangle;connectable=0;fillColor=none;top=0;left=0;bottom=0;right=0;align=left;spacingLeft=2;overflow=hidden;fontSize=11;" vertex="1" parent="aCuJq1FHVLhUi_cSeAXU-361">
          <mxGeometry x="179" width="204" height="22" as="geometry">
            <mxRectangle width="204" height="22" as="alternateBounds" />
          </mxGeometry>
        </mxCell>
        <mxCell id="aCuJq1FHVLhUi_cSeAXU-365" style="shape=tableRow;horizontal=0;startSize=0;swimlaneHead=0;swimlaneBody=0;fillColor=none;collapsible=0;dropTarget=0;points=[[0,0.5],[1,0.5]];portConstraint=eastwest;top=0;left=0;right=0;bottom=0;" vertex="1" parent="aCuJq1FHVLhUi_cSeAXU-292">
          <mxGeometry y="421" width="383" height="22" as="geometry" />
        </mxCell>
        <mxCell id="aCuJq1FHVLhUi_cSeAXU-366" value="update_at" style="shape=partialRectangle;connectable=0;fillColor=none;top=0;left=0;bottom=0;right=0;align=left;spacingLeft=2;overflow=hidden;fontSize=11;" vertex="1" parent="aCuJq1FHVLhUi_cSeAXU-365">
          <mxGeometry width="108" height="22" as="geometry">
            <mxRectangle width="108" height="22" as="alternateBounds" />
          </mxGeometry>
        </mxCell>
        <mxCell id="aCuJq1FHVLhUi_cSeAXU-367" value="TIMESTAMP" style="shape=partialRectangle;connectable=0;fillColor=none;top=0;left=0;bottom=0;right=0;align=left;spacingLeft=2;overflow=hidden;fontSize=11;" vertex="1" parent="aCuJq1FHVLhUi_cSeAXU-365">
          <mxGeometry x="108" width="71" height="22" as="geometry">
            <mxRectangle width="71" height="22" as="alternateBounds" />
          </mxGeometry>
        </mxCell>
        <mxCell id="aCuJq1FHVLhUi_cSeAXU-368" value="" style="shape=partialRectangle;connectable=0;fillColor=none;top=0;left=0;bottom=0;right=0;align=left;spacingLeft=2;overflow=hidden;fontSize=11;" vertex="1" parent="aCuJq1FHVLhUi_cSeAXU-365">
          <mxGeometry x="179" width="204" height="22" as="geometry">
            <mxRectangle width="204" height="22" as="alternateBounds" />
          </mxGeometry>
        </mxCell>
        <mxCell id="aCuJq1FHVLhUi_cSeAXU-369" value="Token" style="shape=table;startSize=25;container=1;collapsible=0;childLayout=tableLayout;fixedRows=1;rowLines=1;fontStyle=1;align=center;resizeLast=1;" vertex="1" parent="1">
          <mxGeometry x="951" y="365" width="364" height="179" as="geometry" />
        </mxCell>
        <mxCell id="aCuJq1FHVLhUi_cSeAXU-370" style="shape=tableRow;horizontal=0;startSize=0;swimlaneHead=0;swimlaneBody=0;fillColor=none;collapsible=0;dropTarget=0;points=[[0,0.5],[1,0.5]];portConstraint=eastwest;top=0;left=0;right=0;bottom=0;" vertex="1" parent="aCuJq1FHVLhUi_cSeAXU-369">
          <mxGeometry y="25" width="364" height="22" as="geometry" />
        </mxCell>
        <mxCell id="aCuJq1FHVLhUi_cSeAXU-371" value="token_id" style="shape=partialRectangle;connectable=0;fillColor=none;top=0;left=0;bottom=0;right=0;align=left;spacingLeft=2;overflow=hidden;fontSize=11;" vertex="1" parent="aCuJq1FHVLhUi_cSeAXU-370">
          <mxGeometry width="72" height="22" as="geometry">
            <mxRectangle width="72" height="22" as="alternateBounds" />
          </mxGeometry>
        </mxCell>
        <mxCell id="aCuJq1FHVLhUi_cSeAXU-372" value="INT" style="shape=partialRectangle;connectable=0;fillColor=none;top=0;left=0;bottom=0;right=0;align=left;spacingLeft=2;overflow=hidden;fontSize=11;" vertex="1" parent="aCuJq1FHVLhUi_cSeAXU-370">
          <mxGeometry x="72" width="88" height="22" as="geometry">
            <mxRectangle width="88" height="22" as="alternateBounds" />
          </mxGeometry>
        </mxCell>
        <mxCell id="aCuJq1FHVLhUi_cSeAXU-373" value="" style="shape=partialRectangle;connectable=0;fillColor=none;top=0;left=0;bottom=0;right=0;align=left;spacingLeft=2;overflow=hidden;fontSize=11;" vertex="1" parent="aCuJq1FHVLhUi_cSeAXU-370">
          <mxGeometry x="160" width="204" height="22" as="geometry">
            <mxRectangle width="204" height="22" as="alternateBounds" />
          </mxGeometry>
        </mxCell>
        <mxCell id="aCuJq1FHVLhUi_cSeAXU-374" style="shape=tableRow;horizontal=0;startSize=0;swimlaneHead=0;swimlaneBody=0;fillColor=none;collapsible=0;dropTarget=0;points=[[0,0.5],[1,0.5]];portConstraint=eastwest;top=0;left=0;right=0;bottom=0;" vertex="1" parent="aCuJq1FHVLhUi_cSeAXU-369">
          <mxGeometry y="47" width="364" height="22" as="geometry" />
        </mxCell>
        <mxCell id="aCuJq1FHVLhUi_cSeAXU-375" value="user_id" style="shape=partialRectangle;connectable=0;fillColor=none;top=0;left=0;bottom=0;right=0;align=left;spacingLeft=2;overflow=hidden;fontSize=11;" vertex="1" parent="aCuJq1FHVLhUi_cSeAXU-374">
          <mxGeometry width="72" height="22" as="geometry">
            <mxRectangle width="72" height="22" as="alternateBounds" />
          </mxGeometry>
        </mxCell>
        <mxCell id="aCuJq1FHVLhUi_cSeAXU-376" value="INT" style="shape=partialRectangle;connectable=0;fillColor=none;top=0;left=0;bottom=0;right=0;align=left;spacingLeft=2;overflow=hidden;fontSize=11;" vertex="1" parent="aCuJq1FHVLhUi_cSeAXU-374">
          <mxGeometry x="72" width="88" height="22" as="geometry">
            <mxRectangle width="88" height="22" as="alternateBounds" />
          </mxGeometry>
        </mxCell>
        <mxCell id="aCuJq1FHVLhUi_cSeAXU-377" value="" style="shape=partialRectangle;connectable=0;fillColor=none;top=0;left=0;bottom=0;right=0;align=left;spacingLeft=2;overflow=hidden;fontSize=11;" vertex="1" parent="aCuJq1FHVLhUi_cSeAXU-374">
          <mxGeometry x="160" width="204" height="22" as="geometry">
            <mxRectangle width="204" height="22" as="alternateBounds" />
          </mxGeometry>
        </mxCell>
        <mxCell id="aCuJq1FHVLhUi_cSeAXU-378" style="shape=tableRow;horizontal=0;startSize=0;swimlaneHead=0;swimlaneBody=0;fillColor=none;collapsible=0;dropTarget=0;points=[[0,0.5],[1,0.5]];portConstraint=eastwest;top=0;left=0;right=0;bottom=0;" vertex="1" parent="aCuJq1FHVLhUi_cSeAXU-369">
          <mxGeometry y="69" width="364" height="22" as="geometry" />
        </mxCell>
        <mxCell id="aCuJq1FHVLhUi_cSeAXU-379" value="access_token" style="shape=partialRectangle;connectable=0;fillColor=none;top=0;left=0;bottom=0;right=0;align=left;spacingLeft=2;overflow=hidden;fontSize=11;" vertex="1" parent="aCuJq1FHVLhUi_cSeAXU-378">
          <mxGeometry width="72" height="22" as="geometry">
            <mxRectangle width="72" height="22" as="alternateBounds" />
          </mxGeometry>
        </mxCell>
        <mxCell id="aCuJq1FHVLhUi_cSeAXU-380" value="VARCHAR" style="shape=partialRectangle;connectable=0;fillColor=none;top=0;left=0;bottom=0;right=0;align=left;spacingLeft=2;overflow=hidden;fontSize=11;" vertex="1" parent="aCuJq1FHVLhUi_cSeAXU-378">
          <mxGeometry x="72" width="88" height="22" as="geometry">
            <mxRectangle width="88" height="22" as="alternateBounds" />
          </mxGeometry>
        </mxCell>
        <mxCell id="aCuJq1FHVLhUi_cSeAXU-381" value="" style="shape=partialRectangle;connectable=0;fillColor=none;top=0;left=0;bottom=0;right=0;align=left;spacingLeft=2;overflow=hidden;fontSize=11;" vertex="1" parent="aCuJq1FHVLhUi_cSeAXU-378">
          <mxGeometry x="160" width="204" height="22" as="geometry">
            <mxRectangle width="204" height="22" as="alternateBounds" />
          </mxGeometry>
        </mxCell>
        <mxCell id="aCuJq1FHVLhUi_cSeAXU-382" style="shape=tableRow;horizontal=0;startSize=0;swimlaneHead=0;swimlaneBody=0;fillColor=none;collapsible=0;dropTarget=0;points=[[0,0.5],[1,0.5]];portConstraint=eastwest;top=0;left=0;right=0;bottom=0;" vertex="1" parent="aCuJq1FHVLhUi_cSeAXU-369">
          <mxGeometry y="91" width="364" height="22" as="geometry" />
        </mxCell>
        <mxCell id="aCuJq1FHVLhUi_cSeAXU-383" value="UNIQUE" style="shape=partialRectangle;connectable=0;fillColor=none;top=0;left=0;bottom=0;right=0;align=left;spacingLeft=2;overflow=hidden;fontSize=11;" vertex="1" parent="aCuJq1FHVLhUi_cSeAXU-382">
          <mxGeometry width="72" height="22" as="geometry">
            <mxRectangle width="72" height="22" as="alternateBounds" />
          </mxGeometry>
        </mxCell>
        <mxCell id="aCuJq1FHVLhUi_cSeAXU-384" value="refresh_token" style="shape=partialRectangle;connectable=0;fillColor=none;top=0;left=0;bottom=0;right=0;align=left;spacingLeft=2;overflow=hidden;fontSize=11;" vertex="1" parent="aCuJq1FHVLhUi_cSeAXU-382">
          <mxGeometry x="72" width="88" height="22" as="geometry">
            <mxRectangle width="88" height="22" as="alternateBounds" />
          </mxGeometry>
        </mxCell>
        <mxCell id="aCuJq1FHVLhUi_cSeAXU-385" value="" style="shape=partialRectangle;connectable=0;fillColor=none;top=0;left=0;bottom=0;right=0;align=left;spacingLeft=2;overflow=hidden;fontSize=11;" vertex="1" parent="aCuJq1FHVLhUi_cSeAXU-382">
          <mxGeometry x="160" width="204" height="22" as="geometry">
            <mxRectangle width="204" height="22" as="alternateBounds" />
          </mxGeometry>
        </mxCell>
        <mxCell id="aCuJq1FHVLhUi_cSeAXU-386" style="shape=tableRow;horizontal=0;startSize=0;swimlaneHead=0;swimlaneBody=0;fillColor=none;collapsible=0;dropTarget=0;points=[[0,0.5],[1,0.5]];portConstraint=eastwest;top=0;left=0;right=0;bottom=0;" vertex="1" parent="aCuJq1FHVLhUi_cSeAXU-369">
          <mxGeometry y="113" width="364" height="22" as="geometry" />
        </mxCell>
        <mxCell id="aCuJq1FHVLhUi_cSeAXU-387" value="VARCHAR" style="shape=partialRectangle;connectable=0;fillColor=none;top=0;left=0;bottom=0;right=0;align=left;spacingLeft=2;overflow=hidden;fontSize=11;" vertex="1" parent="aCuJq1FHVLhUi_cSeAXU-386">
          <mxGeometry width="72" height="22" as="geometry">
            <mxRectangle width="72" height="22" as="alternateBounds" />
          </mxGeometry>
        </mxCell>
        <mxCell id="aCuJq1FHVLhUi_cSeAXU-388" value="UNIQUE" style="shape=partialRectangle;connectable=0;fillColor=none;top=0;left=0;bottom=0;right=0;align=left;spacingLeft=2;overflow=hidden;fontSize=11;" vertex="1" parent="aCuJq1FHVLhUi_cSeAXU-386">
          <mxGeometry x="72" width="88" height="22" as="geometry">
            <mxRectangle width="88" height="22" as="alternateBounds" />
          </mxGeometry>
        </mxCell>
        <mxCell id="aCuJq1FHVLhUi_cSeAXU-389" value="" style="shape=partialRectangle;connectable=0;fillColor=none;top=0;left=0;bottom=0;right=0;align=left;spacingLeft=2;overflow=hidden;fontSize=11;" vertex="1" parent="aCuJq1FHVLhUi_cSeAXU-386">
          <mxGeometry x="160" width="204" height="22" as="geometry">
            <mxRectangle width="204" height="22" as="alternateBounds" />
          </mxGeometry>
        </mxCell>
        <mxCell id="aCuJq1FHVLhUi_cSeAXU-390" style="shape=tableRow;horizontal=0;startSize=0;swimlaneHead=0;swimlaneBody=0;fillColor=none;collapsible=0;dropTarget=0;points=[[0,0.5],[1,0.5]];portConstraint=eastwest;top=0;left=0;right=0;bottom=0;" vertex="1" parent="aCuJq1FHVLhUi_cSeAXU-369">
          <mxGeometry y="135" width="364" height="22" as="geometry" />
        </mxCell>
        <mxCell id="aCuJq1FHVLhUi_cSeAXU-391" value="expire_at" style="shape=partialRectangle;connectable=0;fillColor=none;top=0;left=0;bottom=0;right=0;align=left;spacingLeft=2;overflow=hidden;fontSize=11;" vertex="1" parent="aCuJq1FHVLhUi_cSeAXU-390">
          <mxGeometry width="72" height="22" as="geometry">
            <mxRectangle width="72" height="22" as="alternateBounds" />
          </mxGeometry>
        </mxCell>
        <mxCell id="aCuJq1FHVLhUi_cSeAXU-392" value="TIMESTAMP" style="shape=partialRectangle;connectable=0;fillColor=none;top=0;left=0;bottom=0;right=0;align=left;spacingLeft=2;overflow=hidden;fontSize=11;" vertex="1" parent="aCuJq1FHVLhUi_cSeAXU-390">
          <mxGeometry x="72" width="88" height="22" as="geometry">
            <mxRectangle width="88" height="22" as="alternateBounds" />
          </mxGeometry>
        </mxCell>
        <mxCell id="aCuJq1FHVLhUi_cSeAXU-393" value="NOT NULL" style="shape=partialRectangle;connectable=0;fillColor=none;top=0;left=0;bottom=0;right=0;align=left;spacingLeft=2;overflow=hidden;fontSize=11;" vertex="1" parent="aCuJq1FHVLhUi_cSeAXU-390">
          <mxGeometry x="160" width="204" height="22" as="geometry">
            <mxRectangle width="204" height="22" as="alternateBounds" />
          </mxGeometry>
        </mxCell>
        <mxCell id="aCuJq1FHVLhUi_cSeAXU-394" style="shape=tableRow;horizontal=0;startSize=0;swimlaneHead=0;swimlaneBody=0;fillColor=none;collapsible=0;dropTarget=0;points=[[0,0.5],[1,0.5]];portConstraint=eastwest;top=0;left=0;right=0;bottom=0;" vertex="1" parent="aCuJq1FHVLhUi_cSeAXU-369">
          <mxGeometry y="157" width="364" height="22" as="geometry" />
        </mxCell>
        <mxCell id="aCuJq1FHVLhUi_cSeAXU-395" value="create_at" style="shape=partialRectangle;connectable=0;fillColor=none;top=0;left=0;bottom=0;right=0;align=left;spacingLeft=2;overflow=hidden;fontSize=11;" vertex="1" parent="aCuJq1FHVLhUi_cSeAXU-394">
          <mxGeometry width="72" height="22" as="geometry">
            <mxRectangle width="72" height="22" as="alternateBounds" />
          </mxGeometry>
        </mxCell>
        <mxCell id="aCuJq1FHVLhUi_cSeAXU-396" value="TIMESTAMP" style="shape=partialRectangle;connectable=0;fillColor=none;top=0;left=0;bottom=0;right=0;align=left;spacingLeft=2;overflow=hidden;fontSize=11;" vertex="1" parent="aCuJq1FHVLhUi_cSeAXU-394">
          <mxGeometry x="72" width="88" height="22" as="geometry">
            <mxRectangle width="88" height="22" as="alternateBounds" />
          </mxGeometry>
        </mxCell>
        <mxCell id="aCuJq1FHVLhUi_cSeAXU-397" value="NOT NULL DEFAULT CURRENT_TIMESTAMP" style="shape=partialRectangle;connectable=0;fillColor=none;top=0;left=0;bottom=0;right=0;align=left;spacingLeft=2;overflow=hidden;fontSize=11;" vertex="1" parent="aCuJq1FHVLhUi_cSeAXU-394">
          <mxGeometry x="160" width="204" height="22" as="geometry">
            <mxRectangle width="204" height="22" as="alternateBounds" />
          </mxGeometry>
        </mxCell>
        <mxCell id="aCuJq1FHVLhUi_cSeAXU-398" value="Account" style="shape=table;startSize=25;container=1;collapsible=0;childLayout=tableLayout;fixedRows=1;rowLines=1;fontStyle=1;align=center;resizeLast=1;" vertex="1" parent="1">
          <mxGeometry x="1414" y="376" width="349" height="157" as="geometry" />
        </mxCell>
        <mxCell id="aCuJq1FHVLhUi_cSeAXU-399" style="shape=tableRow;horizontal=0;startSize=0;swimlaneHead=0;swimlaneBody=0;fillColor=none;collapsible=0;dropTarget=0;points=[[0,0.5],[1,0.5]];portConstraint=eastwest;top=0;left=0;right=0;bottom=0;" vertex="1" parent="aCuJq1FHVLhUi_cSeAXU-398">
          <mxGeometry y="25" width="349" height="22" as="geometry" />
        </mxCell>
        <mxCell id="aCuJq1FHVLhUi_cSeAXU-400" value="account_id" style="shape=partialRectangle;connectable=0;fillColor=none;top=0;left=0;bottom=0;right=0;align=left;spacingLeft=2;overflow=hidden;fontSize=11;" vertex="1" parent="aCuJq1FHVLhUi_cSeAXU-399">
          <mxGeometry width="78" height="22" as="geometry">
            <mxRectangle width="78" height="22" as="alternateBounds" />
          </mxGeometry>
        </mxCell>
        <mxCell id="aCuJq1FHVLhUi_cSeAXU-401" value="VARCHAR" style="shape=partialRectangle;connectable=0;fillColor=none;top=0;left=0;bottom=0;right=0;align=left;spacingLeft=2;overflow=hidden;fontSize=11;" vertex="1" parent="aCuJq1FHVLhUi_cSeAXU-399">
          <mxGeometry x="78" width="67" height="22" as="geometry">
            <mxRectangle width="67" height="22" as="alternateBounds" />
          </mxGeometry>
        </mxCell>
        <mxCell id="aCuJq1FHVLhUi_cSeAXU-402" value="" style="shape=partialRectangle;connectable=0;fillColor=none;top=0;left=0;bottom=0;right=0;align=left;spacingLeft=2;overflow=hidden;fontSize=11;" vertex="1" parent="aCuJq1FHVLhUi_cSeAXU-399">
          <mxGeometry x="145" width="204" height="22" as="geometry">
            <mxRectangle width="204" height="22" as="alternateBounds" />
          </mxGeometry>
        </mxCell>
        <mxCell id="aCuJq1FHVLhUi_cSeAXU-403" style="shape=tableRow;horizontal=0;startSize=0;swimlaneHead=0;swimlaneBody=0;fillColor=none;collapsible=0;dropTarget=0;points=[[0,0.5],[1,0.5]];portConstraint=eastwest;top=0;left=0;right=0;bottom=0;" vertex="1" parent="aCuJq1FHVLhUi_cSeAXU-398">
          <mxGeometry y="47" width="349" height="22" as="geometry" />
        </mxCell>
        <mxCell id="aCuJq1FHVLhUi_cSeAXU-404" value="user_id" style="shape=partialRectangle;connectable=0;fillColor=none;top=0;left=0;bottom=0;right=0;align=left;spacingLeft=2;overflow=hidden;fontSize=11;" vertex="1" parent="aCuJq1FHVLhUi_cSeAXU-403">
          <mxGeometry width="78" height="22" as="geometry">
            <mxRectangle width="78" height="22" as="alternateBounds" />
          </mxGeometry>
        </mxCell>
        <mxCell id="aCuJq1FHVLhUi_cSeAXU-405" value="INT" style="shape=partialRectangle;connectable=0;fillColor=none;top=0;left=0;bottom=0;right=0;align=left;spacingLeft=2;overflow=hidden;fontSize=11;" vertex="1" parent="aCuJq1FHVLhUi_cSeAXU-403">
          <mxGeometry x="78" width="67" height="22" as="geometry">
            <mxRectangle width="67" height="22" as="alternateBounds" />
          </mxGeometry>
        </mxCell>
        <mxCell id="aCuJq1FHVLhUi_cSeAXU-406" value="" style="shape=partialRectangle;connectable=0;fillColor=none;top=0;left=0;bottom=0;right=0;align=left;spacingLeft=2;overflow=hidden;fontSize=11;" vertex="1" parent="aCuJq1FHVLhUi_cSeAXU-403">
          <mxGeometry x="145" width="204" height="22" as="geometry">
            <mxRectangle width="204" height="22" as="alternateBounds" />
          </mxGeometry>
        </mxCell>
        <mxCell id="aCuJq1FHVLhUi_cSeAXU-407" style="shape=tableRow;horizontal=0;startSize=0;swimlaneHead=0;swimlaneBody=0;fillColor=none;collapsible=0;dropTarget=0;points=[[0,0.5],[1,0.5]];portConstraint=eastwest;top=0;left=0;right=0;bottom=0;" vertex="1" parent="aCuJq1FHVLhUi_cSeAXU-398">
          <mxGeometry y="69" width="349" height="22" as="geometry" />
        </mxCell>
        <mxCell id="aCuJq1FHVLhUi_cSeAXU-408" value="pw_hash" style="shape=partialRectangle;connectable=0;fillColor=none;top=0;left=0;bottom=0;right=0;align=left;spacingLeft=2;overflow=hidden;fontSize=11;" vertex="1" parent="aCuJq1FHVLhUi_cSeAXU-407">
          <mxGeometry width="78" height="22" as="geometry">
            <mxRectangle width="78" height="22" as="alternateBounds" />
          </mxGeometry>
        </mxCell>
        <mxCell id="aCuJq1FHVLhUi_cSeAXU-409" value="VARCHAR" style="shape=partialRectangle;connectable=0;fillColor=none;top=0;left=0;bottom=0;right=0;align=left;spacingLeft=2;overflow=hidden;fontSize=11;" vertex="1" parent="aCuJq1FHVLhUi_cSeAXU-407">
          <mxGeometry x="78" width="67" height="22" as="geometry">
            <mxRectangle width="67" height="22" as="alternateBounds" />
          </mxGeometry>
        </mxCell>
        <mxCell id="aCuJq1FHVLhUi_cSeAXU-410" value="NOT NULL" style="shape=partialRectangle;connectable=0;fillColor=none;top=0;left=0;bottom=0;right=0;align=left;spacingLeft=2;overflow=hidden;fontSize=11;" vertex="1" parent="aCuJq1FHVLhUi_cSeAXU-407">
          <mxGeometry x="145" width="204" height="22" as="geometry">
            <mxRectangle width="204" height="22" as="alternateBounds" />
          </mxGeometry>
        </mxCell>
        <mxCell id="aCuJq1FHVLhUi_cSeAXU-411" style="shape=tableRow;horizontal=0;startSize=0;swimlaneHead=0;swimlaneBody=0;fillColor=none;collapsible=0;dropTarget=0;points=[[0,0.5],[1,0.5]];portConstraint=eastwest;top=0;left=0;right=0;bottom=0;" vertex="1" parent="aCuJq1FHVLhUi_cSeAXU-398">
          <mxGeometry y="91" width="349" height="22" as="geometry" />
        </mxCell>
        <mxCell id="aCuJq1FHVLhUi_cSeAXU-412" value="last_login_dt" style="shape=partialRectangle;connectable=0;fillColor=none;top=0;left=0;bottom=0;right=0;align=left;spacingLeft=2;overflow=hidden;fontSize=11;" vertex="1" parent="aCuJq1FHVLhUi_cSeAXU-411">
          <mxGeometry width="78" height="22" as="geometry">
            <mxRectangle width="78" height="22" as="alternateBounds" />
          </mxGeometry>
        </mxCell>
        <mxCell id="aCuJq1FHVLhUi_cSeAXU-413" value="TIMESTAMP" style="shape=partialRectangle;connectable=0;fillColor=none;top=0;left=0;bottom=0;right=0;align=left;spacingLeft=2;overflow=hidden;fontSize=11;" vertex="1" parent="aCuJq1FHVLhUi_cSeAXU-411">
          <mxGeometry x="78" width="67" height="22" as="geometry">
            <mxRectangle width="67" height="22" as="alternateBounds" />
          </mxGeometry>
        </mxCell>
        <mxCell id="aCuJq1FHVLhUi_cSeAXU-414" value="" style="shape=partialRectangle;connectable=0;fillColor=none;top=0;left=0;bottom=0;right=0;align=left;spacingLeft=2;overflow=hidden;fontSize=11;" vertex="1" parent="aCuJq1FHVLhUi_cSeAXU-411">
          <mxGeometry x="145" width="204" height="22" as="geometry">
            <mxRectangle width="204" height="22" as="alternateBounds" />
          </mxGeometry>
        </mxCell>
        <mxCell id="aCuJq1FHVLhUi_cSeAXU-415" style="shape=tableRow;horizontal=0;startSize=0;swimlaneHead=0;swimlaneBody=0;fillColor=none;collapsible=0;dropTarget=0;points=[[0,0.5],[1,0.5]];portConstraint=eastwest;top=0;left=0;right=0;bottom=0;" vertex="1" parent="aCuJq1FHVLhUi_cSeAXU-398">
          <mxGeometry y="113" width="349" height="22" as="geometry" />
        </mxCell>
        <mxCell id="aCuJq1FHVLhUi_cSeAXU-416" value="create_at" style="shape=partialRectangle;connectable=0;fillColor=none;top=0;left=0;bottom=0;right=0;align=left;spacingLeft=2;overflow=hidden;fontSize=11;" vertex="1" parent="aCuJq1FHVLhUi_cSeAXU-415">
          <mxGeometry width="78" height="22" as="geometry">
            <mxRectangle width="78" height="22" as="alternateBounds" />
          </mxGeometry>
        </mxCell>
        <mxCell id="aCuJq1FHVLhUi_cSeAXU-417" value="TIMESTAMP" style="shape=partialRectangle;connectable=0;fillColor=none;top=0;left=0;bottom=0;right=0;align=left;spacingLeft=2;overflow=hidden;fontSize=11;" vertex="1" parent="aCuJq1FHVLhUi_cSeAXU-415">
          <mxGeometry x="78" width="67" height="22" as="geometry">
            <mxRectangle width="67" height="22" as="alternateBounds" />
          </mxGeometry>
        </mxCell>
        <mxCell id="aCuJq1FHVLhUi_cSeAXU-418" value="NOT NULL DEFAULT CURRENT_TIMESTAMP" style="shape=partialRectangle;connectable=0;fillColor=none;top=0;left=0;bottom=0;right=0;align=left;spacingLeft=2;overflow=hidden;fontSize=11;" vertex="1" parent="aCuJq1FHVLhUi_cSeAXU-415">
          <mxGeometry x="145" width="204" height="22" as="geometry">
            <mxRectangle width="204" height="22" as="alternateBounds" />
          </mxGeometry>
        </mxCell>
        <mxCell id="aCuJq1FHVLhUi_cSeAXU-419" style="shape=tableRow;horizontal=0;startSize=0;swimlaneHead=0;swimlaneBody=0;fillColor=none;collapsible=0;dropTarget=0;points=[[0,0.5],[1,0.5]];portConstraint=eastwest;top=0;left=0;right=0;bottom=0;" vertex="1" parent="aCuJq1FHVLhUi_cSeAXU-398">
          <mxGeometry y="135" width="349" height="22" as="geometry" />
        </mxCell>
        <mxCell id="aCuJq1FHVLhUi_cSeAXU-420" value="update_at" style="shape=partialRectangle;connectable=0;fillColor=none;top=0;left=0;bottom=0;right=0;align=left;spacingLeft=2;overflow=hidden;fontSize=11;" vertex="1" parent="aCuJq1FHVLhUi_cSeAXU-419">
          <mxGeometry width="78" height="22" as="geometry">
            <mxRectangle width="78" height="22" as="alternateBounds" />
          </mxGeometry>
        </mxCell>
        <mxCell id="aCuJq1FHVLhUi_cSeAXU-421" value="TIMESTAMP" style="shape=partialRectangle;connectable=0;fillColor=none;top=0;left=0;bottom=0;right=0;align=left;spacingLeft=2;overflow=hidden;fontSize=11;" vertex="1" parent="aCuJq1FHVLhUi_cSeAXU-419">
          <mxGeometry x="78" width="67" height="22" as="geometry">
            <mxRectangle width="67" height="22" as="alternateBounds" />
          </mxGeometry>
        </mxCell>
        <mxCell id="aCuJq1FHVLhUi_cSeAXU-422" value="" style="shape=partialRectangle;connectable=0;fillColor=none;top=0;left=0;bottom=0;right=0;align=left;spacingLeft=2;overflow=hidden;fontSize=11;" vertex="1" parent="aCuJq1FHVLhUi_cSeAXU-419">
          <mxGeometry x="145" width="204" height="22" as="geometry">
            <mxRectangle width="204" height="22" as="alternateBounds" />
          </mxGeometry>
        </mxCell>
        <mxCell id="aCuJq1FHVLhUi_cSeAXU-423" value="Consent" style="shape=table;startSize=25;container=1;collapsible=0;childLayout=tableLayout;fixedRows=1;rowLines=1;fontStyle=1;align=center;resizeLast=1;" vertex="1" parent="1">
          <mxGeometry x="1863" y="376" width="409" height="157" as="geometry" />
        </mxCell>
        <mxCell id="aCuJq1FHVLhUi_cSeAXU-424" style="shape=tableRow;horizontal=0;startSize=0;swimlaneHead=0;swimlaneBody=0;fillColor=none;collapsible=0;dropTarget=0;points=[[0,0.5],[1,0.5]];portConstraint=eastwest;top=0;left=0;right=0;bottom=0;" vertex="1" parent="aCuJq1FHVLhUi_cSeAXU-423">
          <mxGeometry y="25" width="409" height="22" as="geometry" />
        </mxCell>
        <mxCell id="aCuJq1FHVLhUi_cSeAXU-425" value="consent_id" style="shape=partialRectangle;connectable=0;fillColor=none;top=0;left=0;bottom=0;right=0;align=left;spacingLeft=2;overflow=hidden;fontSize=11;" vertex="1" parent="aCuJq1FHVLhUi_cSeAXU-424">
          <mxGeometry width="144" height="22" as="geometry">
            <mxRectangle width="144" height="22" as="alternateBounds" />
          </mxGeometry>
        </mxCell>
        <mxCell id="aCuJq1FHVLhUi_cSeAXU-426" value="INT" style="shape=partialRectangle;connectable=0;fillColor=none;top=0;left=0;bottom=0;right=0;align=left;spacingLeft=2;overflow=hidden;fontSize=11;" vertex="1" parent="aCuJq1FHVLhUi_cSeAXU-424">
          <mxGeometry x="144" width="61" height="22" as="geometry">
            <mxRectangle width="61" height="22" as="alternateBounds" />
          </mxGeometry>
        </mxCell>
        <mxCell id="aCuJq1FHVLhUi_cSeAXU-427" value="" style="shape=partialRectangle;connectable=0;fillColor=none;top=0;left=0;bottom=0;right=0;align=left;spacingLeft=2;overflow=hidden;fontSize=11;" vertex="1" parent="aCuJq1FHVLhUi_cSeAXU-424">
          <mxGeometry x="205" width="204" height="22" as="geometry">
            <mxRectangle width="204" height="22" as="alternateBounds" />
          </mxGeometry>
        </mxCell>
        <mxCell id="aCuJq1FHVLhUi_cSeAXU-428" style="shape=tableRow;horizontal=0;startSize=0;swimlaneHead=0;swimlaneBody=0;fillColor=none;collapsible=0;dropTarget=0;points=[[0,0.5],[1,0.5]];portConstraint=eastwest;top=0;left=0;right=0;bottom=0;" vertex="1" parent="aCuJq1FHVLhUi_cSeAXU-423">
          <mxGeometry y="47" width="409" height="22" as="geometry" />
        </mxCell>
        <mxCell id="aCuJq1FHVLhUi_cSeAXU-429" value="user_id" style="shape=partialRectangle;connectable=0;fillColor=none;top=0;left=0;bottom=0;right=0;align=left;spacingLeft=2;overflow=hidden;fontSize=11;" vertex="1" parent="aCuJq1FHVLhUi_cSeAXU-428">
          <mxGeometry width="144" height="22" as="geometry">
            <mxRectangle width="144" height="22" as="alternateBounds" />
          </mxGeometry>
        </mxCell>
        <mxCell id="aCuJq1FHVLhUi_cSeAXU-430" value="INT" style="shape=partialRectangle;connectable=0;fillColor=none;top=0;left=0;bottom=0;right=0;align=left;spacingLeft=2;overflow=hidden;fontSize=11;" vertex="1" parent="aCuJq1FHVLhUi_cSeAXU-428">
          <mxGeometry x="144" width="61" height="22" as="geometry">
            <mxRectangle width="61" height="22" as="alternateBounds" />
          </mxGeometry>
        </mxCell>
        <mxCell id="aCuJq1FHVLhUi_cSeAXU-431" value="" style="shape=partialRectangle;connectable=0;fillColor=none;top=0;left=0;bottom=0;right=0;align=left;spacingLeft=2;overflow=hidden;fontSize=11;" vertex="1" parent="aCuJq1FHVLhUi_cSeAXU-428">
          <mxGeometry x="205" width="204" height="22" as="geometry">
            <mxRectangle width="204" height="22" as="alternateBounds" />
          </mxGeometry>
        </mxCell>
        <mxCell id="aCuJq1FHVLhUi_cSeAXU-432" style="shape=tableRow;horizontal=0;startSize=0;swimlaneHead=0;swimlaneBody=0;fillColor=none;collapsible=0;dropTarget=0;points=[[0,0.5],[1,0.5]];portConstraint=eastwest;top=0;left=0;right=0;bottom=0;" vertex="1" parent="aCuJq1FHVLhUi_cSeAXU-423">
          <mxGeometry y="69" width="409" height="22" as="geometry" />
        </mxCell>
        <mxCell id="aCuJq1FHVLhUi_cSeAXU-433" value="marketing_consent" style="shape=partialRectangle;connectable=0;fillColor=none;top=0;left=0;bottom=0;right=0;align=left;spacingLeft=2;overflow=hidden;fontSize=11;" vertex="1" parent="aCuJq1FHVLhUi_cSeAXU-432">
          <mxGeometry width="144" height="22" as="geometry">
            <mxRectangle width="144" height="22" as="alternateBounds" />
          </mxGeometry>
        </mxCell>
        <mxCell id="aCuJq1FHVLhUi_cSeAXU-434" value="BOOLEAN" style="shape=partialRectangle;connectable=0;fillColor=none;top=0;left=0;bottom=0;right=0;align=left;spacingLeft=2;overflow=hidden;fontSize=11;" vertex="1" parent="aCuJq1FHVLhUi_cSeAXU-432">
          <mxGeometry x="144" width="61" height="22" as="geometry">
            <mxRectangle width="61" height="22" as="alternateBounds" />
          </mxGeometry>
        </mxCell>
        <mxCell id="aCuJq1FHVLhUi_cSeAXU-435" value="NOT NULL" style="shape=partialRectangle;connectable=0;fillColor=none;top=0;left=0;bottom=0;right=0;align=left;spacingLeft=2;overflow=hidden;fontSize=11;" vertex="1" parent="aCuJq1FHVLhUi_cSeAXU-432">
          <mxGeometry x="205" width="204" height="22" as="geometry">
            <mxRectangle width="204" height="22" as="alternateBounds" />
          </mxGeometry>
        </mxCell>
        <mxCell id="aCuJq1FHVLhUi_cSeAXU-436" style="shape=tableRow;horizontal=0;startSize=0;swimlaneHead=0;swimlaneBody=0;fillColor=none;collapsible=0;dropTarget=0;points=[[0,0.5],[1,0.5]];portConstraint=eastwest;top=0;left=0;right=0;bottom=0;" vertex="1" parent="aCuJq1FHVLhUi_cSeAXU-423">
          <mxGeometry y="91" width="409" height="22" as="geometry" />
        </mxCell>
        <mxCell id="aCuJq1FHVLhUi_cSeAXU-437" value="terms_conditions_consent" style="shape=partialRectangle;connectable=0;fillColor=none;top=0;left=0;bottom=0;right=0;align=left;spacingLeft=2;overflow=hidden;fontSize=11;" vertex="1" parent="aCuJq1FHVLhUi_cSeAXU-436">
          <mxGeometry width="144" height="22" as="geometry">
            <mxRectangle width="144" height="22" as="alternateBounds" />
          </mxGeometry>
        </mxCell>
        <mxCell id="aCuJq1FHVLhUi_cSeAXU-438" value="BOOLEAN" style="shape=partialRectangle;connectable=0;fillColor=none;top=0;left=0;bottom=0;right=0;align=left;spacingLeft=2;overflow=hidden;fontSize=11;" vertex="1" parent="aCuJq1FHVLhUi_cSeAXU-436">
          <mxGeometry x="144" width="61" height="22" as="geometry">
            <mxRectangle width="61" height="22" as="alternateBounds" />
          </mxGeometry>
        </mxCell>
        <mxCell id="aCuJq1FHVLhUi_cSeAXU-439" value="NOT NULL" style="shape=partialRectangle;connectable=0;fillColor=none;top=0;left=0;bottom=0;right=0;align=left;spacingLeft=2;overflow=hidden;fontSize=11;" vertex="1" parent="aCuJq1FHVLhUi_cSeAXU-436">
          <mxGeometry x="205" width="204" height="22" as="geometry">
            <mxRectangle width="204" height="22" as="alternateBounds" />
          </mxGeometry>
        </mxCell>
        <mxCell id="aCuJq1FHVLhUi_cSeAXU-440" style="shape=tableRow;horizontal=0;startSize=0;swimlaneHead=0;swimlaneBody=0;fillColor=none;collapsible=0;dropTarget=0;points=[[0,0.5],[1,0.5]];portConstraint=eastwest;top=0;left=0;right=0;bottom=0;" vertex="1" parent="aCuJq1FHVLhUi_cSeAXU-423">
          <mxGeometry y="113" width="409" height="22" as="geometry" />
        </mxCell>
        <mxCell id="aCuJq1FHVLhUi_cSeAXU-441" value="create_at" style="shape=partialRectangle;connectable=0;fillColor=none;top=0;left=0;bottom=0;right=0;align=left;spacingLeft=2;overflow=hidden;fontSize=11;" vertex="1" parent="aCuJq1FHVLhUi_cSeAXU-440">
          <mxGeometry width="144" height="22" as="geometry">
            <mxRectangle width="144" height="22" as="alternateBounds" />
          </mxGeometry>
        </mxCell>
        <mxCell id="aCuJq1FHVLhUi_cSeAXU-442" value="TIMESTAMP" style="shape=partialRectangle;connectable=0;fillColor=none;top=0;left=0;bottom=0;right=0;align=left;spacingLeft=2;overflow=hidden;fontSize=11;" vertex="1" parent="aCuJq1FHVLhUi_cSeAXU-440">
          <mxGeometry x="144" width="61" height="22" as="geometry">
            <mxRectangle width="61" height="22" as="alternateBounds" />
          </mxGeometry>
        </mxCell>
        <mxCell id="aCuJq1FHVLhUi_cSeAXU-443" value="NOT NULL DEFAULT CURRENT_TIMESTAMP" style="shape=partialRectangle;connectable=0;fillColor=none;top=0;left=0;bottom=0;right=0;align=left;spacingLeft=2;overflow=hidden;fontSize=11;" vertex="1" parent="aCuJq1FHVLhUi_cSeAXU-440">
          <mxGeometry x="205" width="204" height="22" as="geometry">
            <mxRectangle width="204" height="22" as="alternateBounds" />
          </mxGeometry>
        </mxCell>
        <mxCell id="aCuJq1FHVLhUi_cSeAXU-444" style="shape=tableRow;horizontal=0;startSize=0;swimlaneHead=0;swimlaneBody=0;fillColor=none;collapsible=0;dropTarget=0;points=[[0,0.5],[1,0.5]];portConstraint=eastwest;top=0;left=0;right=0;bottom=0;" vertex="1" parent="aCuJq1FHVLhUi_cSeAXU-423">
          <mxGeometry y="135" width="409" height="22" as="geometry" />
        </mxCell>
        <mxCell id="aCuJq1FHVLhUi_cSeAXU-445" value="update_at" style="shape=partialRectangle;connectable=0;fillColor=none;top=0;left=0;bottom=0;right=0;align=left;spacingLeft=2;overflow=hidden;fontSize=11;" vertex="1" parent="aCuJq1FHVLhUi_cSeAXU-444">
          <mxGeometry width="144" height="22" as="geometry">
            <mxRectangle width="144" height="22" as="alternateBounds" />
          </mxGeometry>
        </mxCell>
        <mxCell id="aCuJq1FHVLhUi_cSeAXU-446" value="TIMESTAMP" style="shape=partialRectangle;connectable=0;fillColor=none;top=0;left=0;bottom=0;right=0;align=left;spacingLeft=2;overflow=hidden;fontSize=11;" vertex="1" parent="aCuJq1FHVLhUi_cSeAXU-444">
          <mxGeometry x="144" width="61" height="22" as="geometry">
            <mxRectangle width="61" height="22" as="alternateBounds" />
          </mxGeometry>
        </mxCell>
        <mxCell id="aCuJq1FHVLhUi_cSeAXU-447" value="" style="shape=partialRectangle;connectable=0;fillColor=none;top=0;left=0;bottom=0;right=0;align=left;spacingLeft=2;overflow=hidden;fontSize=11;" vertex="1" parent="aCuJq1FHVLhUi_cSeAXU-444">
          <mxGeometry x="205" width="204" height="22" as="geometry">
            <mxRectangle width="204" height="22" as="alternateBounds" />
          </mxGeometry>
        </mxCell>
        <mxCell id="aCuJq1FHVLhUi_cSeAXU-448" value="Company" style="shape=table;startSize=25;container=1;collapsible=0;childLayout=tableLayout;fixedRows=1;rowLines=1;fontStyle=1;align=center;resizeLast=1;" vertex="1" parent="1">
          <mxGeometry x="20" y="775" width="372" height="267" as="geometry" />
        </mxCell>
        <mxCell id="aCuJq1FHVLhUi_cSeAXU-449" style="shape=tableRow;horizontal=0;startSize=0;swimlaneHead=0;swimlaneBody=0;fillColor=none;collapsible=0;dropTarget=0;points=[[0,0.5],[1,0.5]];portConstraint=eastwest;top=0;left=0;right=0;bottom=0;" vertex="1" parent="aCuJq1FHVLhUi_cSeAXU-448">
          <mxGeometry y="25" width="372" height="22" as="geometry" />
        </mxCell>
        <mxCell id="aCuJq1FHVLhUi_cSeAXU-450" value="company_id" style="shape=partialRectangle;connectable=0;fillColor=none;top=0;left=0;bottom=0;right=0;align=left;spacingLeft=2;overflow=hidden;fontSize=11;" vertex="1" parent="aCuJq1FHVLhUi_cSeAXU-449">
          <mxGeometry width="96" height="22" as="geometry">
            <mxRectangle width="96" height="22" as="alternateBounds" />
          </mxGeometry>
        </mxCell>
        <mxCell id="aCuJq1FHVLhUi_cSeAXU-451" value="INT" style="shape=partialRectangle;connectable=0;fillColor=none;top=0;left=0;bottom=0;right=0;align=left;spacingLeft=2;overflow=hidden;fontSize=11;" vertex="1" parent="aCuJq1FHVLhUi_cSeAXU-449">
          <mxGeometry x="96" width="72" height="22" as="geometry">
            <mxRectangle width="72" height="22" as="alternateBounds" />
          </mxGeometry>
        </mxCell>
        <mxCell id="aCuJq1FHVLhUi_cSeAXU-452" value="" style="shape=partialRectangle;connectable=0;fillColor=none;top=0;left=0;bottom=0;right=0;align=left;spacingLeft=2;overflow=hidden;fontSize=11;" vertex="1" parent="aCuJq1FHVLhUi_cSeAXU-449">
          <mxGeometry x="168" width="204" height="22" as="geometry">
            <mxRectangle width="204" height="22" as="alternateBounds" />
          </mxGeometry>
        </mxCell>
        <mxCell id="aCuJq1FHVLhUi_cSeAXU-453" style="shape=tableRow;horizontal=0;startSize=0;swimlaneHead=0;swimlaneBody=0;fillColor=none;collapsible=0;dropTarget=0;points=[[0,0.5],[1,0.5]];portConstraint=eastwest;top=0;left=0;right=0;bottom=0;" vertex="1" parent="aCuJq1FHVLhUi_cSeAXU-448">
          <mxGeometry y="47" width="372" height="22" as="geometry" />
        </mxCell>
        <mxCell id="aCuJq1FHVLhUi_cSeAXU-454" value="profile_id" style="shape=partialRectangle;connectable=0;fillColor=none;top=0;left=0;bottom=0;right=0;align=left;spacingLeft=2;overflow=hidden;fontSize=11;" vertex="1" parent="aCuJq1FHVLhUi_cSeAXU-453">
          <mxGeometry width="96" height="22" as="geometry">
            <mxRectangle width="96" height="22" as="alternateBounds" />
          </mxGeometry>
        </mxCell>
        <mxCell id="aCuJq1FHVLhUi_cSeAXU-455" value="INT" style="shape=partialRectangle;connectable=0;fillColor=none;top=0;left=0;bottom=0;right=0;align=left;spacingLeft=2;overflow=hidden;fontSize=11;" vertex="1" parent="aCuJq1FHVLhUi_cSeAXU-453">
          <mxGeometry x="96" width="72" height="22" as="geometry">
            <mxRectangle width="72" height="22" as="alternateBounds" />
          </mxGeometry>
        </mxCell>
        <mxCell id="aCuJq1FHVLhUi_cSeAXU-456" value="" style="shape=partialRectangle;connectable=0;fillColor=none;top=0;left=0;bottom=0;right=0;align=left;spacingLeft=2;overflow=hidden;fontSize=11;" vertex="1" parent="aCuJq1FHVLhUi_cSeAXU-453">
          <mxGeometry x="168" width="204" height="22" as="geometry">
            <mxRectangle width="204" height="22" as="alternateBounds" />
          </mxGeometry>
        </mxCell>
        <mxCell id="aCuJq1FHVLhUi_cSeAXU-457" style="shape=tableRow;horizontal=0;startSize=0;swimlaneHead=0;swimlaneBody=0;fillColor=none;collapsible=0;dropTarget=0;points=[[0,0.5],[1,0.5]];portConstraint=eastwest;top=0;left=0;right=0;bottom=0;" vertex="1" parent="aCuJq1FHVLhUi_cSeAXU-448">
          <mxGeometry y="69" width="372" height="22" as="geometry" />
        </mxCell>
        <mxCell id="aCuJq1FHVLhUi_cSeAXU-458" value="company_nm" style="shape=partialRectangle;connectable=0;fillColor=none;top=0;left=0;bottom=0;right=0;align=left;spacingLeft=2;overflow=hidden;fontSize=11;" vertex="1" parent="aCuJq1FHVLhUi_cSeAXU-457">
          <mxGeometry width="96" height="22" as="geometry">
            <mxRectangle width="96" height="22" as="alternateBounds" />
          </mxGeometry>
        </mxCell>
        <mxCell id="aCuJq1FHVLhUi_cSeAXU-459" value="VARCHAR" style="shape=partialRectangle;connectable=0;fillColor=none;top=0;left=0;bottom=0;right=0;align=left;spacingLeft=2;overflow=hidden;fontSize=11;" vertex="1" parent="aCuJq1FHVLhUi_cSeAXU-457">
          <mxGeometry x="96" width="72" height="22" as="geometry">
            <mxRectangle width="72" height="22" as="alternateBounds" />
          </mxGeometry>
        </mxCell>
        <mxCell id="aCuJq1FHVLhUi_cSeAXU-460" value="NOT NULL" style="shape=partialRectangle;connectable=0;fillColor=none;top=0;left=0;bottom=0;right=0;align=left;spacingLeft=2;overflow=hidden;fontSize=11;" vertex="1" parent="aCuJq1FHVLhUi_cSeAXU-457">
          <mxGeometry x="168" width="204" height="22" as="geometry">
            <mxRectangle width="204" height="22" as="alternateBounds" />
          </mxGeometry>
        </mxCell>
        <mxCell id="aCuJq1FHVLhUi_cSeAXU-461" style="shape=tableRow;horizontal=0;startSize=0;swimlaneHead=0;swimlaneBody=0;fillColor=none;collapsible=0;dropTarget=0;points=[[0,0.5],[1,0.5]];portConstraint=eastwest;top=0;left=0;right=0;bottom=0;" vertex="1" parent="aCuJq1FHVLhUi_cSeAXU-448">
          <mxGeometry y="91" width="372" height="22" as="geometry" />
        </mxCell>
        <mxCell id="aCuJq1FHVLhUi_cSeAXU-462" value="company_position" style="shape=partialRectangle;connectable=0;fillColor=none;top=0;left=0;bottom=0;right=0;align=left;spacingLeft=2;overflow=hidden;fontSize=11;" vertex="1" parent="aCuJq1FHVLhUi_cSeAXU-461">
          <mxGeometry width="96" height="22" as="geometry">
            <mxRectangle width="96" height="22" as="alternateBounds" />
          </mxGeometry>
        </mxCell>
        <mxCell id="aCuJq1FHVLhUi_cSeAXU-463" value="VARCHAR" style="shape=partialRectangle;connectable=0;fillColor=none;top=0;left=0;bottom=0;right=0;align=left;spacingLeft=2;overflow=hidden;fontSize=11;" vertex="1" parent="aCuJq1FHVLhUi_cSeAXU-461">
          <mxGeometry x="96" width="72" height="22" as="geometry">
            <mxRectangle width="72" height="22" as="alternateBounds" />
          </mxGeometry>
        </mxCell>
        <mxCell id="aCuJq1FHVLhUi_cSeAXU-464" value="NOT NULL" style="shape=partialRectangle;connectable=0;fillColor=none;top=0;left=0;bottom=0;right=0;align=left;spacingLeft=2;overflow=hidden;fontSize=11;" vertex="1" parent="aCuJq1FHVLhUi_cSeAXU-461">
          <mxGeometry x="168" width="204" height="22" as="geometry">
            <mxRectangle width="204" height="22" as="alternateBounds" />
          </mxGeometry>
        </mxCell>
        <mxCell id="aCuJq1FHVLhUi_cSeAXU-465" style="shape=tableRow;horizontal=0;startSize=0;swimlaneHead=0;swimlaneBody=0;fillColor=none;collapsible=0;dropTarget=0;points=[[0,0.5],[1,0.5]];portConstraint=eastwest;top=0;left=0;right=0;bottom=0;" vertex="1" parent="aCuJq1FHVLhUi_cSeAXU-448">
          <mxGeometry y="113" width="372" height="22" as="geometry" />
        </mxCell>
        <mxCell id="aCuJq1FHVLhUi_cSeAXU-466" value="description" style="shape=partialRectangle;connectable=0;fillColor=none;top=0;left=0;bottom=0;right=0;align=left;spacingLeft=2;overflow=hidden;fontSize=11;" vertex="1" parent="aCuJq1FHVLhUi_cSeAXU-465">
          <mxGeometry width="96" height="22" as="geometry">
            <mxRectangle width="96" height="22" as="alternateBounds" />
          </mxGeometry>
        </mxCell>
        <mxCell id="aCuJq1FHVLhUi_cSeAXU-467" value="VARCHAR" style="shape=partialRectangle;connectable=0;fillColor=none;top=0;left=0;bottom=0;right=0;align=left;spacingLeft=2;overflow=hidden;fontSize=11;" vertex="1" parent="aCuJq1FHVLhUi_cSeAXU-465">
          <mxGeometry x="96" width="72" height="22" as="geometry">
            <mxRectangle width="72" height="22" as="alternateBounds" />
          </mxGeometry>
        </mxCell>
        <mxCell id="aCuJq1FHVLhUi_cSeAXU-468" value="" style="shape=partialRectangle;connectable=0;fillColor=none;top=0;left=0;bottom=0;right=0;align=left;spacingLeft=2;overflow=hidden;fontSize=11;" vertex="1" parent="aCuJq1FHVLhUi_cSeAXU-465">
          <mxGeometry x="168" width="204" height="22" as="geometry">
            <mxRectangle width="204" height="22" as="alternateBounds" />
          </mxGeometry>
        </mxCell>
        <mxCell id="aCuJq1FHVLhUi_cSeAXU-469" style="shape=tableRow;horizontal=0;startSize=0;swimlaneHead=0;swimlaneBody=0;fillColor=none;collapsible=0;dropTarget=0;points=[[0,0.5],[1,0.5]];portConstraint=eastwest;top=0;left=0;right=0;bottom=0;" vertex="1" parent="aCuJq1FHVLhUi_cSeAXU-448">
          <mxGeometry y="135" width="372" height="22" as="geometry" />
        </mxCell>
        <mxCell id="aCuJq1FHVLhUi_cSeAXU-470" value="is_current" style="shape=partialRectangle;connectable=0;fillColor=none;top=0;left=0;bottom=0;right=0;align=left;spacingLeft=2;overflow=hidden;fontSize=11;" vertex="1" parent="aCuJq1FHVLhUi_cSeAXU-469">
          <mxGeometry width="96" height="22" as="geometry">
            <mxRectangle width="96" height="22" as="alternateBounds" />
          </mxGeometry>
        </mxCell>
        <mxCell id="aCuJq1FHVLhUi_cSeAXU-471" value="INT" style="shape=partialRectangle;connectable=0;fillColor=none;top=0;left=0;bottom=0;right=0;align=left;spacingLeft=2;overflow=hidden;fontSize=11;" vertex="1" parent="aCuJq1FHVLhUi_cSeAXU-469">
          <mxGeometry x="96" width="72" height="22" as="geometry">
            <mxRectangle width="72" height="22" as="alternateBounds" />
          </mxGeometry>
        </mxCell>
        <mxCell id="aCuJq1FHVLhUi_cSeAXU-472" value="NOT NULL" style="shape=partialRectangle;connectable=0;fillColor=none;top=0;left=0;bottom=0;right=0;align=left;spacingLeft=2;overflow=hidden;fontSize=11;" vertex="1" parent="aCuJq1FHVLhUi_cSeAXU-469">
          <mxGeometry x="168" width="204" height="22" as="geometry">
            <mxRectangle width="204" height="22" as="alternateBounds" />
          </mxGeometry>
        </mxCell>
        <mxCell id="aCuJq1FHVLhUi_cSeAXU-473" style="shape=tableRow;horizontal=0;startSize=0;swimlaneHead=0;swimlaneBody=0;fillColor=none;collapsible=0;dropTarget=0;points=[[0,0.5],[1,0.5]];portConstraint=eastwest;top=0;left=0;right=0;bottom=0;" vertex="1" parent="aCuJq1FHVLhUi_cSeAXU-448">
          <mxGeometry y="157" width="372" height="22" as="geometry" />
        </mxCell>
        <mxCell id="aCuJq1FHVLhUi_cSeAXU-474" value="url" style="shape=partialRectangle;connectable=0;fillColor=none;top=0;left=0;bottom=0;right=0;align=left;spacingLeft=2;overflow=hidden;fontSize=11;" vertex="1" parent="aCuJq1FHVLhUi_cSeAXU-473">
          <mxGeometry width="96" height="22" as="geometry">
            <mxRectangle width="96" height="22" as="alternateBounds" />
          </mxGeometry>
        </mxCell>
        <mxCell id="aCuJq1FHVLhUi_cSeAXU-475" value="VARCHAR" style="shape=partialRectangle;connectable=0;fillColor=none;top=0;left=0;bottom=0;right=0;align=left;spacingLeft=2;overflow=hidden;fontSize=11;" vertex="1" parent="aCuJq1FHVLhUi_cSeAXU-473">
          <mxGeometry x="96" width="72" height="22" as="geometry">
            <mxRectangle width="72" height="22" as="alternateBounds" />
          </mxGeometry>
        </mxCell>
        <mxCell id="aCuJq1FHVLhUi_cSeAXU-476" value="" style="shape=partialRectangle;connectable=0;fillColor=none;top=0;left=0;bottom=0;right=0;align=left;spacingLeft=2;overflow=hidden;fontSize=11;" vertex="1" parent="aCuJq1FHVLhUi_cSeAXU-473">
          <mxGeometry x="168" width="204" height="22" as="geometry">
            <mxRectangle width="204" height="22" as="alternateBounds" />
          </mxGeometry>
        </mxCell>
        <mxCell id="aCuJq1FHVLhUi_cSeAXU-477" style="shape=tableRow;horizontal=0;startSize=0;swimlaneHead=0;swimlaneBody=0;fillColor=none;collapsible=0;dropTarget=0;points=[[0,0.5],[1,0.5]];portConstraint=eastwest;top=0;left=0;right=0;bottom=0;" vertex="1" parent="aCuJq1FHVLhUi_cSeAXU-448">
          <mxGeometry y="179" width="372" height="22" as="geometry" />
        </mxCell>
        <mxCell id="aCuJq1FHVLhUi_cSeAXU-478" value="start_date" style="shape=partialRectangle;connectable=0;fillColor=none;top=0;left=0;bottom=0;right=0;align=left;spacingLeft=2;overflow=hidden;fontSize=11;" vertex="1" parent="aCuJq1FHVLhUi_cSeAXU-477">
          <mxGeometry width="96" height="22" as="geometry">
            <mxRectangle width="96" height="22" as="alternateBounds" />
          </mxGeometry>
        </mxCell>
        <mxCell id="aCuJq1FHVLhUi_cSeAXU-479" value="TIMESTAMP" style="shape=partialRectangle;connectable=0;fillColor=none;top=0;left=0;bottom=0;right=0;align=left;spacingLeft=2;overflow=hidden;fontSize=11;" vertex="1" parent="aCuJq1FHVLhUi_cSeAXU-477">
          <mxGeometry x="96" width="72" height="22" as="geometry">
            <mxRectangle width="72" height="22" as="alternateBounds" />
          </mxGeometry>
        </mxCell>
        <mxCell id="aCuJq1FHVLhUi_cSeAXU-480" value="NOT NULL" style="shape=partialRectangle;connectable=0;fillColor=none;top=0;left=0;bottom=0;right=0;align=left;spacingLeft=2;overflow=hidden;fontSize=11;" vertex="1" parent="aCuJq1FHVLhUi_cSeAXU-477">
          <mxGeometry x="168" width="204" height="22" as="geometry">
            <mxRectangle width="204" height="22" as="alternateBounds" />
          </mxGeometry>
        </mxCell>
        <mxCell id="aCuJq1FHVLhUi_cSeAXU-481" style="shape=tableRow;horizontal=0;startSize=0;swimlaneHead=0;swimlaneBody=0;fillColor=none;collapsible=0;dropTarget=0;points=[[0,0.5],[1,0.5]];portConstraint=eastwest;top=0;left=0;right=0;bottom=0;" vertex="1" parent="aCuJq1FHVLhUi_cSeAXU-448">
          <mxGeometry y="201" width="372" height="22" as="geometry" />
        </mxCell>
        <mxCell id="aCuJq1FHVLhUi_cSeAXU-482" value="end_date" style="shape=partialRectangle;connectable=0;fillColor=none;top=0;left=0;bottom=0;right=0;align=left;spacingLeft=2;overflow=hidden;fontSize=11;" vertex="1" parent="aCuJq1FHVLhUi_cSeAXU-481">
          <mxGeometry width="96" height="22" as="geometry">
            <mxRectangle width="96" height="22" as="alternateBounds" />
          </mxGeometry>
        </mxCell>
        <mxCell id="aCuJq1FHVLhUi_cSeAXU-483" value="TIMESTAMP" style="shape=partialRectangle;connectable=0;fillColor=none;top=0;left=0;bottom=0;right=0;align=left;spacingLeft=2;overflow=hidden;fontSize=11;" vertex="1" parent="aCuJq1FHVLhUi_cSeAXU-481">
          <mxGeometry x="96" width="72" height="22" as="geometry">
            <mxRectangle width="72" height="22" as="alternateBounds" />
          </mxGeometry>
        </mxCell>
        <mxCell id="aCuJq1FHVLhUi_cSeAXU-484" value="" style="shape=partialRectangle;connectable=0;fillColor=none;top=0;left=0;bottom=0;right=0;align=left;spacingLeft=2;overflow=hidden;fontSize=11;" vertex="1" parent="aCuJq1FHVLhUi_cSeAXU-481">
          <mxGeometry x="168" width="204" height="22" as="geometry">
            <mxRectangle width="204" height="22" as="alternateBounds" />
          </mxGeometry>
        </mxCell>
        <mxCell id="aCuJq1FHVLhUi_cSeAXU-485" style="shape=tableRow;horizontal=0;startSize=0;swimlaneHead=0;swimlaneBody=0;fillColor=none;collapsible=0;dropTarget=0;points=[[0,0.5],[1,0.5]];portConstraint=eastwest;top=0;left=0;right=0;bottom=0;" vertex="1" parent="aCuJq1FHVLhUi_cSeAXU-448">
          <mxGeometry y="223" width="372" height="22" as="geometry" />
        </mxCell>
        <mxCell id="aCuJq1FHVLhUi_cSeAXU-486" value="create_at" style="shape=partialRectangle;connectable=0;fillColor=none;top=0;left=0;bottom=0;right=0;align=left;spacingLeft=2;overflow=hidden;fontSize=11;" vertex="1" parent="aCuJq1FHVLhUi_cSeAXU-485">
          <mxGeometry width="96" height="22" as="geometry">
            <mxRectangle width="96" height="22" as="alternateBounds" />
          </mxGeometry>
        </mxCell>
        <mxCell id="aCuJq1FHVLhUi_cSeAXU-487" value="TIMESTAMP" style="shape=partialRectangle;connectable=0;fillColor=none;top=0;left=0;bottom=0;right=0;align=left;spacingLeft=2;overflow=hidden;fontSize=11;" vertex="1" parent="aCuJq1FHVLhUi_cSeAXU-485">
          <mxGeometry x="96" width="72" height="22" as="geometry">
            <mxRectangle width="72" height="22" as="alternateBounds" />
          </mxGeometry>
        </mxCell>
        <mxCell id="aCuJq1FHVLhUi_cSeAXU-488" value="NOT NULL DEFAULT CURRENT_TIMESTAMP" style="shape=partialRectangle;connectable=0;fillColor=none;top=0;left=0;bottom=0;right=0;align=left;spacingLeft=2;overflow=hidden;fontSize=11;" vertex="1" parent="aCuJq1FHVLhUi_cSeAXU-485">
          <mxGeometry x="168" width="204" height="22" as="geometry">
            <mxRectangle width="204" height="22" as="alternateBounds" />
          </mxGeometry>
        </mxCell>
        <mxCell id="aCuJq1FHVLhUi_cSeAXU-489" style="shape=tableRow;horizontal=0;startSize=0;swimlaneHead=0;swimlaneBody=0;fillColor=none;collapsible=0;dropTarget=0;points=[[0,0.5],[1,0.5]];portConstraint=eastwest;top=0;left=0;right=0;bottom=0;" vertex="1" parent="aCuJq1FHVLhUi_cSeAXU-448">
          <mxGeometry y="245" width="372" height="22" as="geometry" />
        </mxCell>
        <mxCell id="aCuJq1FHVLhUi_cSeAXU-490" value="update_at" style="shape=partialRectangle;connectable=0;fillColor=none;top=0;left=0;bottom=0;right=0;align=left;spacingLeft=2;overflow=hidden;fontSize=11;" vertex="1" parent="aCuJq1FHVLhUi_cSeAXU-489">
          <mxGeometry width="96" height="22" as="geometry">
            <mxRectangle width="96" height="22" as="alternateBounds" />
          </mxGeometry>
        </mxCell>
        <mxCell id="aCuJq1FHVLhUi_cSeAXU-491" value="TIMESTAMP" style="shape=partialRectangle;connectable=0;fillColor=none;top=0;left=0;bottom=0;right=0;align=left;spacingLeft=2;overflow=hidden;fontSize=11;" vertex="1" parent="aCuJq1FHVLhUi_cSeAXU-489">
          <mxGeometry x="96" width="72" height="22" as="geometry">
            <mxRectangle width="72" height="22" as="alternateBounds" />
          </mxGeometry>
        </mxCell>
        <mxCell id="aCuJq1FHVLhUi_cSeAXU-492" value="" style="shape=partialRectangle;connectable=0;fillColor=none;top=0;left=0;bottom=0;right=0;align=left;spacingLeft=2;overflow=hidden;fontSize=11;" vertex="1" parent="aCuJq1FHVLhUi_cSeAXU-489">
          <mxGeometry x="168" width="204" height="22" as="geometry">
            <mxRectangle width="204" height="22" as="alternateBounds" />
          </mxGeometry>
        </mxCell>
        <mxCell id="aCuJq1FHVLhUi_cSeAXU-493" value="Education" style="shape=table;startSize=25;container=1;collapsible=0;childLayout=tableLayout;fixedRows=1;rowLines=1;fontStyle=1;align=center;resizeLast=1;" vertex="1" parent="1">
          <mxGeometry x="492" y="775" width="341" height="267" as="geometry" />
        </mxCell>
        <mxCell id="aCuJq1FHVLhUi_cSeAXU-494" style="shape=tableRow;horizontal=0;startSize=0;swimlaneHead=0;swimlaneBody=0;fillColor=none;collapsible=0;dropTarget=0;points=[[0,0.5],[1,0.5]];portConstraint=eastwest;top=0;left=0;right=0;bottom=0;" vertex="1" parent="aCuJq1FHVLhUi_cSeAXU-493">
          <mxGeometry y="25" width="341" height="22" as="geometry" />
        </mxCell>
        <mxCell id="aCuJq1FHVLhUi_cSeAXU-495" value="edu_id" style="shape=partialRectangle;connectable=0;fillColor=none;top=0;left=0;bottom=0;right=0;align=left;spacingLeft=2;overflow=hidden;fontSize=11;" vertex="1" parent="aCuJq1FHVLhUi_cSeAXU-494">
          <mxGeometry width="66" height="22" as="geometry">
            <mxRectangle width="66" height="22" as="alternateBounds" />
          </mxGeometry>
        </mxCell>
        <mxCell id="aCuJq1FHVLhUi_cSeAXU-496" value="INT" style="shape=partialRectangle;connectable=0;fillColor=none;top=0;left=0;bottom=0;right=0;align=left;spacingLeft=2;overflow=hidden;fontSize=11;" vertex="1" parent="aCuJq1FHVLhUi_cSeAXU-494">
          <mxGeometry x="66" width="71" height="22" as="geometry">
            <mxRectangle width="71" height="22" as="alternateBounds" />
          </mxGeometry>
        </mxCell>
        <mxCell id="aCuJq1FHVLhUi_cSeAXU-497" value="" style="shape=partialRectangle;connectable=0;fillColor=none;top=0;left=0;bottom=0;right=0;align=left;spacingLeft=2;overflow=hidden;fontSize=11;" vertex="1" parent="aCuJq1FHVLhUi_cSeAXU-494">
          <mxGeometry x="137" width="204" height="22" as="geometry">
            <mxRectangle width="204" height="22" as="alternateBounds" />
          </mxGeometry>
        </mxCell>
        <mxCell id="aCuJq1FHVLhUi_cSeAXU-498" style="shape=tableRow;horizontal=0;startSize=0;swimlaneHead=0;swimlaneBody=0;fillColor=none;collapsible=0;dropTarget=0;points=[[0,0.5],[1,0.5]];portConstraint=eastwest;top=0;left=0;right=0;bottom=0;" vertex="1" parent="aCuJq1FHVLhUi_cSeAXU-493">
          <mxGeometry y="47" width="341" height="22" as="geometry" />
        </mxCell>
        <mxCell id="aCuJq1FHVLhUi_cSeAXU-499" value="profile_id" style="shape=partialRectangle;connectable=0;fillColor=none;top=0;left=0;bottom=0;right=0;align=left;spacingLeft=2;overflow=hidden;fontSize=11;" vertex="1" parent="aCuJq1FHVLhUi_cSeAXU-498">
          <mxGeometry width="66" height="22" as="geometry">
            <mxRectangle width="66" height="22" as="alternateBounds" />
          </mxGeometry>
        </mxCell>
        <mxCell id="aCuJq1FHVLhUi_cSeAXU-500" value="INT" style="shape=partialRectangle;connectable=0;fillColor=none;top=0;left=0;bottom=0;right=0;align=left;spacingLeft=2;overflow=hidden;fontSize=11;" vertex="1" parent="aCuJq1FHVLhUi_cSeAXU-498">
          <mxGeometry x="66" width="71" height="22" as="geometry">
            <mxRectangle width="71" height="22" as="alternateBounds" />
          </mxGeometry>
        </mxCell>
        <mxCell id="aCuJq1FHVLhUi_cSeAXU-501" value="" style="shape=partialRectangle;connectable=0;fillColor=none;top=0;left=0;bottom=0;right=0;align=left;spacingLeft=2;overflow=hidden;fontSize=11;" vertex="1" parent="aCuJq1FHVLhUi_cSeAXU-498">
          <mxGeometry x="137" width="204" height="22" as="geometry">
            <mxRectangle width="204" height="22" as="alternateBounds" />
          </mxGeometry>
        </mxCell>
        <mxCell id="aCuJq1FHVLhUi_cSeAXU-502" style="shape=tableRow;horizontal=0;startSize=0;swimlaneHead=0;swimlaneBody=0;fillColor=none;collapsible=0;dropTarget=0;points=[[0,0.5],[1,0.5]];portConstraint=eastwest;top=0;left=0;right=0;bottom=0;" vertex="1" parent="aCuJq1FHVLhUi_cSeAXU-493">
          <mxGeometry y="69" width="341" height="22" as="geometry" />
        </mxCell>
        <mxCell id="aCuJq1FHVLhUi_cSeAXU-503" value="institute" style="shape=partialRectangle;connectable=0;fillColor=none;top=0;left=0;bottom=0;right=0;align=left;spacingLeft=2;overflow=hidden;fontSize=11;" vertex="1" parent="aCuJq1FHVLhUi_cSeAXU-502">
          <mxGeometry width="66" height="22" as="geometry">
            <mxRectangle width="66" height="22" as="alternateBounds" />
          </mxGeometry>
        </mxCell>
        <mxCell id="aCuJq1FHVLhUi_cSeAXU-504" value="VARCHAR" style="shape=partialRectangle;connectable=0;fillColor=none;top=0;left=0;bottom=0;right=0;align=left;spacingLeft=2;overflow=hidden;fontSize=11;" vertex="1" parent="aCuJq1FHVLhUi_cSeAXU-502">
          <mxGeometry x="66" width="71" height="22" as="geometry">
            <mxRectangle width="71" height="22" as="alternateBounds" />
          </mxGeometry>
        </mxCell>
        <mxCell id="aCuJq1FHVLhUi_cSeAXU-505" value="NOT NULL" style="shape=partialRectangle;connectable=0;fillColor=none;top=0;left=0;bottom=0;right=0;align=left;spacingLeft=2;overflow=hidden;fontSize=11;" vertex="1" parent="aCuJq1FHVLhUi_cSeAXU-502">
          <mxGeometry x="137" width="204" height="22" as="geometry">
            <mxRectangle width="204" height="22" as="alternateBounds" />
          </mxGeometry>
        </mxCell>
        <mxCell id="aCuJq1FHVLhUi_cSeAXU-506" style="shape=tableRow;horizontal=0;startSize=0;swimlaneHead=0;swimlaneBody=0;fillColor=none;collapsible=0;dropTarget=0;points=[[0,0.5],[1,0.5]];portConstraint=eastwest;top=0;left=0;right=0;bottom=0;" vertex="1" parent="aCuJq1FHVLhUi_cSeAXU-493">
          <mxGeometry y="91" width="341" height="22" as="geometry" />
        </mxCell>
        <mxCell id="aCuJq1FHVLhUi_cSeAXU-507" value="major" style="shape=partialRectangle;connectable=0;fillColor=none;top=0;left=0;bottom=0;right=0;align=left;spacingLeft=2;overflow=hidden;fontSize=11;" vertex="1" parent="aCuJq1FHVLhUi_cSeAXU-506">
          <mxGeometry width="66" height="22" as="geometry">
            <mxRectangle width="66" height="22" as="alternateBounds" />
          </mxGeometry>
        </mxCell>
        <mxCell id="aCuJq1FHVLhUi_cSeAXU-508" value="VARCHAR" style="shape=partialRectangle;connectable=0;fillColor=none;top=0;left=0;bottom=0;right=0;align=left;spacingLeft=2;overflow=hidden;fontSize=11;" vertex="1" parent="aCuJq1FHVLhUi_cSeAXU-506">
          <mxGeometry x="66" width="71" height="22" as="geometry">
            <mxRectangle width="71" height="22" as="alternateBounds" />
          </mxGeometry>
        </mxCell>
        <mxCell id="aCuJq1FHVLhUi_cSeAXU-509" value="NOT NULL" style="shape=partialRectangle;connectable=0;fillColor=none;top=0;left=0;bottom=0;right=0;align=left;spacingLeft=2;overflow=hidden;fontSize=11;" vertex="1" parent="aCuJq1FHVLhUi_cSeAXU-506">
          <mxGeometry x="137" width="204" height="22" as="geometry">
            <mxRectangle width="204" height="22" as="alternateBounds" />
          </mxGeometry>
        </mxCell>
        <mxCell id="aCuJq1FHVLhUi_cSeAXU-510" style="shape=tableRow;horizontal=0;startSize=0;swimlaneHead=0;swimlaneBody=0;fillColor=none;collapsible=0;dropTarget=0;points=[[0,0.5],[1,0.5]];portConstraint=eastwest;top=0;left=0;right=0;bottom=0;" vertex="1" parent="aCuJq1FHVLhUi_cSeAXU-493">
          <mxGeometry y="113" width="341" height="22" as="geometry" />
        </mxCell>
        <mxCell id="aCuJq1FHVLhUi_cSeAXU-511" value="description" style="shape=partialRectangle;connectable=0;fillColor=none;top=0;left=0;bottom=0;right=0;align=left;spacingLeft=2;overflow=hidden;fontSize=11;" vertex="1" parent="aCuJq1FHVLhUi_cSeAXU-510">
          <mxGeometry width="66" height="22" as="geometry">
            <mxRectangle width="66" height="22" as="alternateBounds" />
          </mxGeometry>
        </mxCell>
        <mxCell id="aCuJq1FHVLhUi_cSeAXU-512" value="VARCHAR" style="shape=partialRectangle;connectable=0;fillColor=none;top=0;left=0;bottom=0;right=0;align=left;spacingLeft=2;overflow=hidden;fontSize=11;" vertex="1" parent="aCuJq1FHVLhUi_cSeAXU-510">
          <mxGeometry x="66" width="71" height="22" as="geometry">
            <mxRectangle width="71" height="22" as="alternateBounds" />
          </mxGeometry>
        </mxCell>
        <mxCell id="aCuJq1FHVLhUi_cSeAXU-513" value="" style="shape=partialRectangle;connectable=0;fillColor=none;top=0;left=0;bottom=0;right=0;align=left;spacingLeft=2;overflow=hidden;fontSize=11;" vertex="1" parent="aCuJq1FHVLhUi_cSeAXU-510">
          <mxGeometry x="137" width="204" height="22" as="geometry">
            <mxRectangle width="204" height="22" as="alternateBounds" />
          </mxGeometry>
        </mxCell>
        <mxCell id="aCuJq1FHVLhUi_cSeAXU-514" style="shape=tableRow;horizontal=0;startSize=0;swimlaneHead=0;swimlaneBody=0;fillColor=none;collapsible=0;dropTarget=0;points=[[0,0.5],[1,0.5]];portConstraint=eastwest;top=0;left=0;right=0;bottom=0;" vertex="1" parent="aCuJq1FHVLhUi_cSeAXU-493">
          <mxGeometry y="135" width="341" height="22" as="geometry" />
        </mxCell>
        <mxCell id="aCuJq1FHVLhUi_cSeAXU-515" value="is_current" style="shape=partialRectangle;connectable=0;fillColor=none;top=0;left=0;bottom=0;right=0;align=left;spacingLeft=2;overflow=hidden;fontSize=11;" vertex="1" parent="aCuJq1FHVLhUi_cSeAXU-514">
          <mxGeometry width="66" height="22" as="geometry">
            <mxRectangle width="66" height="22" as="alternateBounds" />
          </mxGeometry>
        </mxCell>
        <mxCell id="aCuJq1FHVLhUi_cSeAXU-516" value="INT" style="shape=partialRectangle;connectable=0;fillColor=none;top=0;left=0;bottom=0;right=0;align=left;spacingLeft=2;overflow=hidden;fontSize=11;" vertex="1" parent="aCuJq1FHVLhUi_cSeAXU-514">
          <mxGeometry x="66" width="71" height="22" as="geometry">
            <mxRectangle width="71" height="22" as="alternateBounds" />
          </mxGeometry>
        </mxCell>
        <mxCell id="aCuJq1FHVLhUi_cSeAXU-517" value="NOT NULL" style="shape=partialRectangle;connectable=0;fillColor=none;top=0;left=0;bottom=0;right=0;align=left;spacingLeft=2;overflow=hidden;fontSize=11;" vertex="1" parent="aCuJq1FHVLhUi_cSeAXU-514">
          <mxGeometry x="137" width="204" height="22" as="geometry">
            <mxRectangle width="204" height="22" as="alternateBounds" />
          </mxGeometry>
        </mxCell>
        <mxCell id="aCuJq1FHVLhUi_cSeAXU-518" style="shape=tableRow;horizontal=0;startSize=0;swimlaneHead=0;swimlaneBody=0;fillColor=none;collapsible=0;dropTarget=0;points=[[0,0.5],[1,0.5]];portConstraint=eastwest;top=0;left=0;right=0;bottom=0;" vertex="1" parent="aCuJq1FHVLhUi_cSeAXU-493">
          <mxGeometry y="157" width="341" height="22" as="geometry" />
        </mxCell>
        <mxCell id="aCuJq1FHVLhUi_cSeAXU-519" value="url" style="shape=partialRectangle;connectable=0;fillColor=none;top=0;left=0;bottom=0;right=0;align=left;spacingLeft=2;overflow=hidden;fontSize=11;" vertex="1" parent="aCuJq1FHVLhUi_cSeAXU-518">
          <mxGeometry width="66" height="22" as="geometry">
            <mxRectangle width="66" height="22" as="alternateBounds" />
          </mxGeometry>
        </mxCell>
        <mxCell id="aCuJq1FHVLhUi_cSeAXU-520" value="VARCHAR" style="shape=partialRectangle;connectable=0;fillColor=none;top=0;left=0;bottom=0;right=0;align=left;spacingLeft=2;overflow=hidden;fontSize=11;" vertex="1" parent="aCuJq1FHVLhUi_cSeAXU-518">
          <mxGeometry x="66" width="71" height="22" as="geometry">
            <mxRectangle width="71" height="22" as="alternateBounds" />
          </mxGeometry>
        </mxCell>
        <mxCell id="aCuJq1FHVLhUi_cSeAXU-521" value="" style="shape=partialRectangle;connectable=0;fillColor=none;top=0;left=0;bottom=0;right=0;align=left;spacingLeft=2;overflow=hidden;fontSize=11;" vertex="1" parent="aCuJq1FHVLhUi_cSeAXU-518">
          <mxGeometry x="137" width="204" height="22" as="geometry">
            <mxRectangle width="204" height="22" as="alternateBounds" />
          </mxGeometry>
        </mxCell>
        <mxCell id="aCuJq1FHVLhUi_cSeAXU-522" style="shape=tableRow;horizontal=0;startSize=0;swimlaneHead=0;swimlaneBody=0;fillColor=none;collapsible=0;dropTarget=0;points=[[0,0.5],[1,0.5]];portConstraint=eastwest;top=0;left=0;right=0;bottom=0;" vertex="1" parent="aCuJq1FHVLhUi_cSeAXU-493">
          <mxGeometry y="179" width="341" height="22" as="geometry" />
        </mxCell>
        <mxCell id="aCuJq1FHVLhUi_cSeAXU-523" value="start_date" style="shape=partialRectangle;connectable=0;fillColor=none;top=0;left=0;bottom=0;right=0;align=left;spacingLeft=2;overflow=hidden;fontSize=11;" vertex="1" parent="aCuJq1FHVLhUi_cSeAXU-522">
          <mxGeometry width="66" height="22" as="geometry">
            <mxRectangle width="66" height="22" as="alternateBounds" />
          </mxGeometry>
        </mxCell>
        <mxCell id="aCuJq1FHVLhUi_cSeAXU-524" value="TIMESTAMP" style="shape=partialRectangle;connectable=0;fillColor=none;top=0;left=0;bottom=0;right=0;align=left;spacingLeft=2;overflow=hidden;fontSize=11;" vertex="1" parent="aCuJq1FHVLhUi_cSeAXU-522">
          <mxGeometry x="66" width="71" height="22" as="geometry">
            <mxRectangle width="71" height="22" as="alternateBounds" />
          </mxGeometry>
        </mxCell>
        <mxCell id="aCuJq1FHVLhUi_cSeAXU-525" value="NOT NULL" style="shape=partialRectangle;connectable=0;fillColor=none;top=0;left=0;bottom=0;right=0;align=left;spacingLeft=2;overflow=hidden;fontSize=11;" vertex="1" parent="aCuJq1FHVLhUi_cSeAXU-522">
          <mxGeometry x="137" width="204" height="22" as="geometry">
            <mxRectangle width="204" height="22" as="alternateBounds" />
          </mxGeometry>
        </mxCell>
        <mxCell id="aCuJq1FHVLhUi_cSeAXU-526" style="shape=tableRow;horizontal=0;startSize=0;swimlaneHead=0;swimlaneBody=0;fillColor=none;collapsible=0;dropTarget=0;points=[[0,0.5],[1,0.5]];portConstraint=eastwest;top=0;left=0;right=0;bottom=0;" vertex="1" parent="aCuJq1FHVLhUi_cSeAXU-493">
          <mxGeometry y="201" width="341" height="22" as="geometry" />
        </mxCell>
        <mxCell id="aCuJq1FHVLhUi_cSeAXU-527" value="end_date" style="shape=partialRectangle;connectable=0;fillColor=none;top=0;left=0;bottom=0;right=0;align=left;spacingLeft=2;overflow=hidden;fontSize=11;" vertex="1" parent="aCuJq1FHVLhUi_cSeAXU-526">
          <mxGeometry width="66" height="22" as="geometry">
            <mxRectangle width="66" height="22" as="alternateBounds" />
          </mxGeometry>
        </mxCell>
        <mxCell id="aCuJq1FHVLhUi_cSeAXU-528" value="TIMESTAMP" style="shape=partialRectangle;connectable=0;fillColor=none;top=0;left=0;bottom=0;right=0;align=left;spacingLeft=2;overflow=hidden;fontSize=11;" vertex="1" parent="aCuJq1FHVLhUi_cSeAXU-526">
          <mxGeometry x="66" width="71" height="22" as="geometry">
            <mxRectangle width="71" height="22" as="alternateBounds" />
          </mxGeometry>
        </mxCell>
        <mxCell id="aCuJq1FHVLhUi_cSeAXU-529" value="" style="shape=partialRectangle;connectable=0;fillColor=none;top=0;left=0;bottom=0;right=0;align=left;spacingLeft=2;overflow=hidden;fontSize=11;" vertex="1" parent="aCuJq1FHVLhUi_cSeAXU-526">
          <mxGeometry x="137" width="204" height="22" as="geometry">
            <mxRectangle width="204" height="22" as="alternateBounds" />
          </mxGeometry>
        </mxCell>
        <mxCell id="aCuJq1FHVLhUi_cSeAXU-530" style="shape=tableRow;horizontal=0;startSize=0;swimlaneHead=0;swimlaneBody=0;fillColor=none;collapsible=0;dropTarget=0;points=[[0,0.5],[1,0.5]];portConstraint=eastwest;top=0;left=0;right=0;bottom=0;" vertex="1" parent="aCuJq1FHVLhUi_cSeAXU-493">
          <mxGeometry y="223" width="341" height="22" as="geometry" />
        </mxCell>
        <mxCell id="aCuJq1FHVLhUi_cSeAXU-531" value="create_at" style="shape=partialRectangle;connectable=0;fillColor=none;top=0;left=0;bottom=0;right=0;align=left;spacingLeft=2;overflow=hidden;fontSize=11;" vertex="1" parent="aCuJq1FHVLhUi_cSeAXU-530">
          <mxGeometry width="66" height="22" as="geometry">
            <mxRectangle width="66" height="22" as="alternateBounds" />
          </mxGeometry>
        </mxCell>
        <mxCell id="aCuJq1FHVLhUi_cSeAXU-532" value="TIMESTAMP" style="shape=partialRectangle;connectable=0;fillColor=none;top=0;left=0;bottom=0;right=0;align=left;spacingLeft=2;overflow=hidden;fontSize=11;" vertex="1" parent="aCuJq1FHVLhUi_cSeAXU-530">
          <mxGeometry x="66" width="71" height="22" as="geometry">
            <mxRectangle width="71" height="22" as="alternateBounds" />
          </mxGeometry>
        </mxCell>
        <mxCell id="aCuJq1FHVLhUi_cSeAXU-533" value="NOT NULL DEFAULT CURRENT_TIMESTAMP" style="shape=partialRectangle;connectable=0;fillColor=none;top=0;left=0;bottom=0;right=0;align=left;spacingLeft=2;overflow=hidden;fontSize=11;" vertex="1" parent="aCuJq1FHVLhUi_cSeAXU-530">
          <mxGeometry x="137" width="204" height="22" as="geometry">
            <mxRectangle width="204" height="22" as="alternateBounds" />
          </mxGeometry>
        </mxCell>
        <mxCell id="aCuJq1FHVLhUi_cSeAXU-534" style="shape=tableRow;horizontal=0;startSize=0;swimlaneHead=0;swimlaneBody=0;fillColor=none;collapsible=0;dropTarget=0;points=[[0,0.5],[1,0.5]];portConstraint=eastwest;top=0;left=0;right=0;bottom=0;" vertex="1" parent="aCuJq1FHVLhUi_cSeAXU-493">
          <mxGeometry y="245" width="341" height="22" as="geometry" />
        </mxCell>
        <mxCell id="aCuJq1FHVLhUi_cSeAXU-535" value="update_at" style="shape=partialRectangle;connectable=0;fillColor=none;top=0;left=0;bottom=0;right=0;align=left;spacingLeft=2;overflow=hidden;fontSize=11;" vertex="1" parent="aCuJq1FHVLhUi_cSeAXU-534">
          <mxGeometry width="66" height="22" as="geometry">
            <mxRectangle width="66" height="22" as="alternateBounds" />
          </mxGeometry>
        </mxCell>
        <mxCell id="aCuJq1FHVLhUi_cSeAXU-536" value="TIMESTAMP" style="shape=partialRectangle;connectable=0;fillColor=none;top=0;left=0;bottom=0;right=0;align=left;spacingLeft=2;overflow=hidden;fontSize=11;" vertex="1" parent="aCuJq1FHVLhUi_cSeAXU-534">
          <mxGeometry x="66" width="71" height="22" as="geometry">
            <mxRectangle width="71" height="22" as="alternateBounds" />
          </mxGeometry>
        </mxCell>
        <mxCell id="aCuJq1FHVLhUi_cSeAXU-537" value="" style="shape=partialRectangle;connectable=0;fillColor=none;top=0;left=0;bottom=0;right=0;align=left;spacingLeft=2;overflow=hidden;fontSize=11;" vertex="1" parent="aCuJq1FHVLhUi_cSeAXU-534">
          <mxGeometry x="137" width="204" height="22" as="geometry">
            <mxRectangle width="204" height="22" as="alternateBounds" />
          </mxGeometry>
        </mxCell>
        <mxCell id="aCuJq1FHVLhUi_cSeAXU-538" value="Profile_sites" style="shape=table;startSize=25;container=1;collapsible=0;childLayout=tableLayout;fixedRows=1;rowLines=1;fontStyle=1;align=center;resizeLast=1;" vertex="1" parent="1">
          <mxGeometry x="933" y="852" width="360" height="113" as="geometry" />
        </mxCell>
        <mxCell id="aCuJq1FHVLhUi_cSeAXU-539" style="shape=tableRow;horizontal=0;startSize=0;swimlaneHead=0;swimlaneBody=0;fillColor=none;collapsible=0;dropTarget=0;points=[[0,0.5],[1,0.5]];portConstraint=eastwest;top=0;left=0;right=0;bottom=0;" vertex="1" parent="aCuJq1FHVLhUi_cSeAXU-538">
          <mxGeometry y="25" width="360" height="22" as="geometry" />
        </mxCell>
        <mxCell id="aCuJq1FHVLhUi_cSeAXU-540" value="profile_sites_id" style="shape=partialRectangle;connectable=0;fillColor=none;top=0;left=0;bottom=0;right=0;align=left;spacingLeft=2;overflow=hidden;fontSize=11;" vertex="1" parent="aCuJq1FHVLhUi_cSeAXU-539">
          <mxGeometry width="96" height="22" as="geometry">
            <mxRectangle width="96" height="22" as="alternateBounds" />
          </mxGeometry>
        </mxCell>
        <mxCell id="aCuJq1FHVLhUi_cSeAXU-541" value="INT" style="shape=partialRectangle;connectable=0;fillColor=none;top=0;left=0;bottom=0;right=0;align=left;spacingLeft=2;overflow=hidden;fontSize=11;" vertex="1" parent="aCuJq1FHVLhUi_cSeAXU-539">
          <mxGeometry x="96" width="60" height="22" as="geometry">
            <mxRectangle width="60" height="22" as="alternateBounds" />
          </mxGeometry>
        </mxCell>
        <mxCell id="aCuJq1FHVLhUi_cSeAXU-542" value="" style="shape=partialRectangle;connectable=0;fillColor=none;top=0;left=0;bottom=0;right=0;align=left;spacingLeft=2;overflow=hidden;fontSize=11;" vertex="1" parent="aCuJq1FHVLhUi_cSeAXU-539">
          <mxGeometry x="156" width="204" height="22" as="geometry">
            <mxRectangle width="204" height="22" as="alternateBounds" />
          </mxGeometry>
        </mxCell>
        <mxCell id="aCuJq1FHVLhUi_cSeAXU-543" style="shape=tableRow;horizontal=0;startSize=0;swimlaneHead=0;swimlaneBody=0;fillColor=none;collapsible=0;dropTarget=0;points=[[0,0.5],[1,0.5]];portConstraint=eastwest;top=0;left=0;right=0;bottom=0;" vertex="1" parent="aCuJq1FHVLhUi_cSeAXU-538">
          <mxGeometry y="47" width="360" height="22" as="geometry" />
        </mxCell>
        <mxCell id="aCuJq1FHVLhUi_cSeAXU-544" value="profile_id" style="shape=partialRectangle;connectable=0;fillColor=none;top=0;left=0;bottom=0;right=0;align=left;spacingLeft=2;overflow=hidden;fontSize=11;" vertex="1" parent="aCuJq1FHVLhUi_cSeAXU-543">
          <mxGeometry width="96" height="22" as="geometry">
            <mxRectangle width="96" height="22" as="alternateBounds" />
          </mxGeometry>
        </mxCell>
        <mxCell id="aCuJq1FHVLhUi_cSeAXU-545" value="INT" style="shape=partialRectangle;connectable=0;fillColor=none;top=0;left=0;bottom=0;right=0;align=left;spacingLeft=2;overflow=hidden;fontSize=11;" vertex="1" parent="aCuJq1FHVLhUi_cSeAXU-543">
          <mxGeometry x="96" width="60" height="22" as="geometry">
            <mxRectangle width="60" height="22" as="alternateBounds" />
          </mxGeometry>
        </mxCell>
        <mxCell id="aCuJq1FHVLhUi_cSeAXU-546" value="" style="shape=partialRectangle;connectable=0;fillColor=none;top=0;left=0;bottom=0;right=0;align=left;spacingLeft=2;overflow=hidden;fontSize=11;" vertex="1" parent="aCuJq1FHVLhUi_cSeAXU-543">
          <mxGeometry x="156" width="204" height="22" as="geometry">
            <mxRectangle width="204" height="22" as="alternateBounds" />
          </mxGeometry>
        </mxCell>
        <mxCell id="aCuJq1FHVLhUi_cSeAXU-547" style="shape=tableRow;horizontal=0;startSize=0;swimlaneHead=0;swimlaneBody=0;fillColor=none;collapsible=0;dropTarget=0;points=[[0,0.5],[1,0.5]];portConstraint=eastwest;top=0;left=0;right=0;bottom=0;" vertex="1" parent="aCuJq1FHVLhUi_cSeAXU-538">
          <mxGeometry y="69" width="360" height="22" as="geometry" />
        </mxCell>
        <mxCell id="aCuJq1FHVLhUi_cSeAXU-548" value="create_at" style="shape=partialRectangle;connectable=0;fillColor=none;top=0;left=0;bottom=0;right=0;align=left;spacingLeft=2;overflow=hidden;fontSize=11;" vertex="1" parent="aCuJq1FHVLhUi_cSeAXU-547">
          <mxGeometry width="96" height="22" as="geometry">
            <mxRectangle width="96" height="22" as="alternateBounds" />
          </mxGeometry>
        </mxCell>
        <mxCell id="aCuJq1FHVLhUi_cSeAXU-549" value="TIMESTAMP" style="shape=partialRectangle;connectable=0;fillColor=none;top=0;left=0;bottom=0;right=0;align=left;spacingLeft=2;overflow=hidden;fontSize=11;" vertex="1" parent="aCuJq1FHVLhUi_cSeAXU-547">
          <mxGeometry x="96" width="60" height="22" as="geometry">
            <mxRectangle width="60" height="22" as="alternateBounds" />
          </mxGeometry>
        </mxCell>
        <mxCell id="aCuJq1FHVLhUi_cSeAXU-550" value="NOT NULL DEFAULT CURRENT_TIMESTAMP" style="shape=partialRectangle;connectable=0;fillColor=none;top=0;left=0;bottom=0;right=0;align=left;spacingLeft=2;overflow=hidden;fontSize=11;" vertex="1" parent="aCuJq1FHVLhUi_cSeAXU-547">
          <mxGeometry x="156" width="204" height="22" as="geometry">
            <mxRectangle width="204" height="22" as="alternateBounds" />
          </mxGeometry>
        </mxCell>
        <mxCell id="aCuJq1FHVLhUi_cSeAXU-551" style="shape=tableRow;horizontal=0;startSize=0;swimlaneHead=0;swimlaneBody=0;fillColor=none;collapsible=0;dropTarget=0;points=[[0,0.5],[1,0.5]];portConstraint=eastwest;top=0;left=0;right=0;bottom=0;" vertex="1" parent="aCuJq1FHVLhUi_cSeAXU-538">
          <mxGeometry y="91" width="360" height="22" as="geometry" />
        </mxCell>
        <mxCell id="aCuJq1FHVLhUi_cSeAXU-552" value="update_at" style="shape=partialRectangle;connectable=0;fillColor=none;top=0;left=0;bottom=0;right=0;align=left;spacingLeft=2;overflow=hidden;fontSize=11;" vertex="1" parent="aCuJq1FHVLhUi_cSeAXU-551">
          <mxGeometry width="96" height="22" as="geometry">
            <mxRectangle width="96" height="22" as="alternateBounds" />
          </mxGeometry>
        </mxCell>
        <mxCell id="aCuJq1FHVLhUi_cSeAXU-553" value="TIMESTAMP" style="shape=partialRectangle;connectable=0;fillColor=none;top=0;left=0;bottom=0;right=0;align=left;spacingLeft=2;overflow=hidden;fontSize=11;" vertex="1" parent="aCuJq1FHVLhUi_cSeAXU-551">
          <mxGeometry x="96" width="60" height="22" as="geometry">
            <mxRectangle width="60" height="22" as="alternateBounds" />
          </mxGeometry>
        </mxCell>
        <mxCell id="aCuJq1FHVLhUi_cSeAXU-554" value="" style="shape=partialRectangle;connectable=0;fillColor=none;top=0;left=0;bottom=0;right=0;align=left;spacingLeft=2;overflow=hidden;fontSize=11;" vertex="1" parent="aCuJq1FHVLhUi_cSeAXU-551">
          <mxGeometry x="156" width="204" height="22" as="geometry">
            <mxRectangle width="204" height="22" as="alternateBounds" />
          </mxGeometry>
        </mxCell>
        <mxCell id="aCuJq1FHVLhUi_cSeAXU-555" value="Profile_skill" style="shape=table;startSize=25;container=1;collapsible=0;childLayout=tableLayout;fixedRows=1;rowLines=1;fontStyle=1;align=center;resizeLast=1;" vertex="1" parent="1">
          <mxGeometry x="1393" y="841" width="358" height="135" as="geometry" />
        </mxCell>
        <mxCell id="aCuJq1FHVLhUi_cSeAXU-556" style="shape=tableRow;horizontal=0;startSize=0;swimlaneHead=0;swimlaneBody=0;fillColor=none;collapsible=0;dropTarget=0;points=[[0,0.5],[1,0.5]];portConstraint=eastwest;top=0;left=0;right=0;bottom=0;" vertex="1" parent="aCuJq1FHVLhUi_cSeAXU-555">
          <mxGeometry y="25" width="358" height="22" as="geometry" />
        </mxCell>
        <mxCell id="aCuJq1FHVLhUi_cSeAXU-557" value="profile_skill_id" style="shape=partialRectangle;connectable=0;fillColor=none;top=0;left=0;bottom=0;right=0;align=left;spacingLeft=2;overflow=hidden;fontSize=11;" vertex="1" parent="aCuJq1FHVLhUi_cSeAXU-556">
          <mxGeometry width="96" height="22" as="geometry">
            <mxRectangle width="96" height="22" as="alternateBounds" />
          </mxGeometry>
        </mxCell>
        <mxCell id="aCuJq1FHVLhUi_cSeAXU-558" value="INT" style="shape=partialRectangle;connectable=0;fillColor=none;top=0;left=0;bottom=0;right=0;align=left;spacingLeft=2;overflow=hidden;fontSize=11;" vertex="1" parent="aCuJq1FHVLhUi_cSeAXU-556">
          <mxGeometry x="96" width="58" height="22" as="geometry">
            <mxRectangle width="58" height="22" as="alternateBounds" />
          </mxGeometry>
        </mxCell>
        <mxCell id="aCuJq1FHVLhUi_cSeAXU-559" value="" style="shape=partialRectangle;connectable=0;fillColor=none;top=0;left=0;bottom=0;right=0;align=left;spacingLeft=2;overflow=hidden;fontSize=11;" vertex="1" parent="aCuJq1FHVLhUi_cSeAXU-556">
          <mxGeometry x="154" width="204" height="22" as="geometry">
            <mxRectangle width="204" height="22" as="alternateBounds" />
          </mxGeometry>
        </mxCell>
        <mxCell id="aCuJq1FHVLhUi_cSeAXU-560" style="shape=tableRow;horizontal=0;startSize=0;swimlaneHead=0;swimlaneBody=0;fillColor=none;collapsible=0;dropTarget=0;points=[[0,0.5],[1,0.5]];portConstraint=eastwest;top=0;left=0;right=0;bottom=0;" vertex="1" parent="aCuJq1FHVLhUi_cSeAXU-555">
          <mxGeometry y="47" width="358" height="22" as="geometry" />
        </mxCell>
        <mxCell id="aCuJq1FHVLhUi_cSeAXU-561" value="profile_id" style="shape=partialRectangle;connectable=0;fillColor=none;top=0;left=0;bottom=0;right=0;align=left;spacingLeft=2;overflow=hidden;fontSize=11;" vertex="1" parent="aCuJq1FHVLhUi_cSeAXU-560">
          <mxGeometry width="96" height="22" as="geometry">
            <mxRectangle width="96" height="22" as="alternateBounds" />
          </mxGeometry>
        </mxCell>
        <mxCell id="aCuJq1FHVLhUi_cSeAXU-562" value="INT" style="shape=partialRectangle;connectable=0;fillColor=none;top=0;left=0;bottom=0;right=0;align=left;spacingLeft=2;overflow=hidden;fontSize=11;" vertex="1" parent="aCuJq1FHVLhUi_cSeAXU-560">
          <mxGeometry x="96" width="58" height="22" as="geometry">
            <mxRectangle width="58" height="22" as="alternateBounds" />
          </mxGeometry>
        </mxCell>
        <mxCell id="aCuJq1FHVLhUi_cSeAXU-563" value="" style="shape=partialRectangle;connectable=0;fillColor=none;top=0;left=0;bottom=0;right=0;align=left;spacingLeft=2;overflow=hidden;fontSize=11;" vertex="1" parent="aCuJq1FHVLhUi_cSeAXU-560">
          <mxGeometry x="154" width="204" height="22" as="geometry">
            <mxRectangle width="204" height="22" as="alternateBounds" />
          </mxGeometry>
        </mxCell>
        <mxCell id="aCuJq1FHVLhUi_cSeAXU-564" style="shape=tableRow;horizontal=0;startSize=0;swimlaneHead=0;swimlaneBody=0;fillColor=none;collapsible=0;dropTarget=0;points=[[0,0.5],[1,0.5]];portConstraint=eastwest;top=0;left=0;right=0;bottom=0;" vertex="1" parent="aCuJq1FHVLhUi_cSeAXU-555">
          <mxGeometry y="69" width="358" height="22" as="geometry" />
        </mxCell>
        <mxCell id="aCuJq1FHVLhUi_cSeAXU-565" value="skill_id" style="shape=partialRectangle;connectable=0;fillColor=none;top=0;left=0;bottom=0;right=0;align=left;spacingLeft=2;overflow=hidden;fontSize=11;" vertex="1" parent="aCuJq1FHVLhUi_cSeAXU-564">
          <mxGeometry width="96" height="22" as="geometry">
            <mxRectangle width="96" height="22" as="alternateBounds" />
          </mxGeometry>
        </mxCell>
        <mxCell id="aCuJq1FHVLhUi_cSeAXU-566" value="INT" style="shape=partialRectangle;connectable=0;fillColor=none;top=0;left=0;bottom=0;right=0;align=left;spacingLeft=2;overflow=hidden;fontSize=11;" vertex="1" parent="aCuJq1FHVLhUi_cSeAXU-564">
          <mxGeometry x="96" width="58" height="22" as="geometry">
            <mxRectangle width="58" height="22" as="alternateBounds" />
          </mxGeometry>
        </mxCell>
        <mxCell id="aCuJq1FHVLhUi_cSeAXU-567" value="" style="shape=partialRectangle;connectable=0;fillColor=none;top=0;left=0;bottom=0;right=0;align=left;spacingLeft=2;overflow=hidden;fontSize=11;" vertex="1" parent="aCuJq1FHVLhUi_cSeAXU-564">
          <mxGeometry x="154" width="204" height="22" as="geometry">
            <mxRectangle width="204" height="22" as="alternateBounds" />
          </mxGeometry>
        </mxCell>
        <mxCell id="aCuJq1FHVLhUi_cSeAXU-568" style="shape=tableRow;horizontal=0;startSize=0;swimlaneHead=0;swimlaneBody=0;fillColor=none;collapsible=0;dropTarget=0;points=[[0,0.5],[1,0.5]];portConstraint=eastwest;top=0;left=0;right=0;bottom=0;" vertex="1" parent="aCuJq1FHVLhUi_cSeAXU-555">
          <mxGeometry y="91" width="358" height="22" as="geometry" />
        </mxCell>
        <mxCell id="aCuJq1FHVLhUi_cSeAXU-569" value="create_at" style="shape=partialRectangle;connectable=0;fillColor=none;top=0;left=0;bottom=0;right=0;align=left;spacingLeft=2;overflow=hidden;fontSize=11;" vertex="1" parent="aCuJq1FHVLhUi_cSeAXU-568">
          <mxGeometry width="96" height="22" as="geometry">
            <mxRectangle width="96" height="22" as="alternateBounds" />
          </mxGeometry>
        </mxCell>
        <mxCell id="aCuJq1FHVLhUi_cSeAXU-570" value="TIMESTAMP" style="shape=partialRectangle;connectable=0;fillColor=none;top=0;left=0;bottom=0;right=0;align=left;spacingLeft=2;overflow=hidden;fontSize=11;" vertex="1" parent="aCuJq1FHVLhUi_cSeAXU-568">
          <mxGeometry x="96" width="58" height="22" as="geometry">
            <mxRectangle width="58" height="22" as="alternateBounds" />
          </mxGeometry>
        </mxCell>
        <mxCell id="aCuJq1FHVLhUi_cSeAXU-571" value="NOT NULL DEFAULT CURRENT_TIMESTAMP" style="shape=partialRectangle;connectable=0;fillColor=none;top=0;left=0;bottom=0;right=0;align=left;spacingLeft=2;overflow=hidden;fontSize=11;" vertex="1" parent="aCuJq1FHVLhUi_cSeAXU-568">
          <mxGeometry x="154" width="204" height="22" as="geometry">
            <mxRectangle width="204" height="22" as="alternateBounds" />
          </mxGeometry>
        </mxCell>
        <mxCell id="aCuJq1FHVLhUi_cSeAXU-572" style="shape=tableRow;horizontal=0;startSize=0;swimlaneHead=0;swimlaneBody=0;fillColor=none;collapsible=0;dropTarget=0;points=[[0,0.5],[1,0.5]];portConstraint=eastwest;top=0;left=0;right=0;bottom=0;" vertex="1" parent="aCuJq1FHVLhUi_cSeAXU-555">
          <mxGeometry y="113" width="358" height="22" as="geometry" />
        </mxCell>
        <mxCell id="aCuJq1FHVLhUi_cSeAXU-573" value="update_at" style="shape=partialRectangle;connectable=0;fillColor=none;top=0;left=0;bottom=0;right=0;align=left;spacingLeft=2;overflow=hidden;fontSize=11;" vertex="1" parent="aCuJq1FHVLhUi_cSeAXU-572">
          <mxGeometry width="96" height="22" as="geometry">
            <mxRectangle width="96" height="22" as="alternateBounds" />
          </mxGeometry>
        </mxCell>
        <mxCell id="aCuJq1FHVLhUi_cSeAXU-574" value="TIMESTAMP" style="shape=partialRectangle;connectable=0;fillColor=none;top=0;left=0;bottom=0;right=0;align=left;spacingLeft=2;overflow=hidden;fontSize=11;" vertex="1" parent="aCuJq1FHVLhUi_cSeAXU-572">
          <mxGeometry x="96" width="58" height="22" as="geometry">
            <mxRectangle width="58" height="22" as="alternateBounds" />
          </mxGeometry>
        </mxCell>
        <mxCell id="aCuJq1FHVLhUi_cSeAXU-575" value="" style="shape=partialRectangle;connectable=0;fillColor=none;top=0;left=0;bottom=0;right=0;align=left;spacingLeft=2;overflow=hidden;fontSize=11;" vertex="1" parent="aCuJq1FHVLhUi_cSeAXU-572">
          <mxGeometry x="154" width="204" height="22" as="geometry">
            <mxRectangle width="204" height="22" as="alternateBounds" />
          </mxGeometry>
        </mxCell>
        <mxCell id="aCuJq1FHVLhUi_cSeAXU-576" value="Skill" style="shape=table;startSize=25;container=1;collapsible=0;childLayout=tableLayout;fixedRows=1;rowLines=1;fontStyle=1;align=center;resizeLast=1;" vertex="1" parent="1">
          <mxGeometry x="1389" y="1142" width="366" height="157" as="geometry" />
        </mxCell>
        <mxCell id="aCuJq1FHVLhUi_cSeAXU-577" style="shape=tableRow;horizontal=0;startSize=0;swimlaneHead=0;swimlaneBody=0;fillColor=none;collapsible=0;dropTarget=0;points=[[0,0.5],[1,0.5]];portConstraint=eastwest;top=0;left=0;right=0;bottom=0;" vertex="1" parent="aCuJq1FHVLhUi_cSeAXU-576">
          <mxGeometry y="25" width="366" height="22" as="geometry" />
        </mxCell>
        <mxCell id="aCuJq1FHVLhUi_cSeAXU-578" value="skill_id" style="shape=partialRectangle;connectable=0;fillColor=none;top=0;left=0;bottom=0;right=0;align=left;spacingLeft=2;overflow=hidden;fontSize=11;" vertex="1" parent="aCuJq1FHVLhUi_cSeAXU-577">
          <mxGeometry width="90" height="22" as="geometry">
            <mxRectangle width="90" height="22" as="alternateBounds" />
          </mxGeometry>
        </mxCell>
        <mxCell id="aCuJq1FHVLhUi_cSeAXU-579" value="INT" style="shape=partialRectangle;connectable=0;fillColor=none;top=0;left=0;bottom=0;right=0;align=left;spacingLeft=2;overflow=hidden;fontSize=11;" vertex="1" parent="aCuJq1FHVLhUi_cSeAXU-577">
          <mxGeometry x="90" width="72" height="22" as="geometry">
            <mxRectangle width="72" height="22" as="alternateBounds" />
          </mxGeometry>
        </mxCell>
        <mxCell id="aCuJq1FHVLhUi_cSeAXU-580" value="" style="shape=partialRectangle;connectable=0;fillColor=none;top=0;left=0;bottom=0;right=0;align=left;spacingLeft=2;overflow=hidden;fontSize=11;" vertex="1" parent="aCuJq1FHVLhUi_cSeAXU-577">
          <mxGeometry x="162" width="204" height="22" as="geometry">
            <mxRectangle width="204" height="22" as="alternateBounds" />
          </mxGeometry>
        </mxCell>
        <mxCell id="aCuJq1FHVLhUi_cSeAXU-581" style="shape=tableRow;horizontal=0;startSize=0;swimlaneHead=0;swimlaneBody=0;fillColor=none;collapsible=0;dropTarget=0;points=[[0,0.5],[1,0.5]];portConstraint=eastwest;top=0;left=0;right=0;bottom=0;" vertex="1" parent="aCuJq1FHVLhUi_cSeAXU-576">
          <mxGeometry y="47" width="366" height="22" as="geometry" />
        </mxCell>
        <mxCell id="aCuJq1FHVLhUi_cSeAXU-582" value="name" style="shape=partialRectangle;connectable=0;fillColor=none;top=0;left=0;bottom=0;right=0;align=left;spacingLeft=2;overflow=hidden;fontSize=11;" vertex="1" parent="aCuJq1FHVLhUi_cSeAXU-581">
          <mxGeometry width="90" height="22" as="geometry">
            <mxRectangle width="90" height="22" as="alternateBounds" />
          </mxGeometry>
        </mxCell>
        <mxCell id="aCuJq1FHVLhUi_cSeAXU-583" value="VARCHAR" style="shape=partialRectangle;connectable=0;fillColor=none;top=0;left=0;bottom=0;right=0;align=left;spacingLeft=2;overflow=hidden;fontSize=11;" vertex="1" parent="aCuJq1FHVLhUi_cSeAXU-581">
          <mxGeometry x="90" width="72" height="22" as="geometry">
            <mxRectangle width="72" height="22" as="alternateBounds" />
          </mxGeometry>
        </mxCell>
        <mxCell id="aCuJq1FHVLhUi_cSeAXU-584" value="NOT NULL" style="shape=partialRectangle;connectable=0;fillColor=none;top=0;left=0;bottom=0;right=0;align=left;spacingLeft=2;overflow=hidden;fontSize=11;" vertex="1" parent="aCuJq1FHVLhUi_cSeAXU-581">
          <mxGeometry x="162" width="204" height="22" as="geometry">
            <mxRectangle width="204" height="22" as="alternateBounds" />
          </mxGeometry>
        </mxCell>
        <mxCell id="aCuJq1FHVLhUi_cSeAXU-585" style="shape=tableRow;horizontal=0;startSize=0;swimlaneHead=0;swimlaneBody=0;fillColor=none;collapsible=0;dropTarget=0;points=[[0,0.5],[1,0.5]];portConstraint=eastwest;top=0;left=0;right=0;bottom=0;" vertex="1" parent="aCuJq1FHVLhUi_cSeAXU-576">
          <mxGeometry y="69" width="366" height="22" as="geometry" />
        </mxCell>
        <mxCell id="aCuJq1FHVLhUi_cSeAXU-586" value="category" style="shape=partialRectangle;connectable=0;fillColor=none;top=0;left=0;bottom=0;right=0;align=left;spacingLeft=2;overflow=hidden;fontSize=11;" vertex="1" parent="aCuJq1FHVLhUi_cSeAXU-585">
          <mxGeometry width="90" height="22" as="geometry">
            <mxRectangle width="90" height="22" as="alternateBounds" />
          </mxGeometry>
        </mxCell>
        <mxCell id="aCuJq1FHVLhUi_cSeAXU-587" value="VARCHAR" style="shape=partialRectangle;connectable=0;fillColor=none;top=0;left=0;bottom=0;right=0;align=left;spacingLeft=2;overflow=hidden;fontSize=11;" vertex="1" parent="aCuJq1FHVLhUi_cSeAXU-585">
          <mxGeometry x="90" width="72" height="22" as="geometry">
            <mxRectangle width="72" height="22" as="alternateBounds" />
          </mxGeometry>
        </mxCell>
        <mxCell id="aCuJq1FHVLhUi_cSeAXU-588" value="NOT NULL" style="shape=partialRectangle;connectable=0;fillColor=none;top=0;left=0;bottom=0;right=0;align=left;spacingLeft=2;overflow=hidden;fontSize=11;" vertex="1" parent="aCuJq1FHVLhUi_cSeAXU-585">
          <mxGeometry x="162" width="204" height="22" as="geometry">
            <mxRectangle width="204" height="22" as="alternateBounds" />
          </mxGeometry>
        </mxCell>
        <mxCell id="aCuJq1FHVLhUi_cSeAXU-589" style="shape=tableRow;horizontal=0;startSize=0;swimlaneHead=0;swimlaneBody=0;fillColor=none;collapsible=0;dropTarget=0;points=[[0,0.5],[1,0.5]];portConstraint=eastwest;top=0;left=0;right=0;bottom=0;" vertex="1" parent="aCuJq1FHVLhUi_cSeAXU-576">
          <mxGeometry y="91" width="366" height="22" as="geometry" />
        </mxCell>
        <mxCell id="aCuJq1FHVLhUi_cSeAXU-590" value="second_category" style="shape=partialRectangle;connectable=0;fillColor=none;top=0;left=0;bottom=0;right=0;align=left;spacingLeft=2;overflow=hidden;fontSize=11;" vertex="1" parent="aCuJq1FHVLhUi_cSeAXU-589">
          <mxGeometry width="90" height="22" as="geometry">
            <mxRectangle width="90" height="22" as="alternateBounds" />
          </mxGeometry>
        </mxCell>
        <mxCell id="aCuJq1FHVLhUi_cSeAXU-591" value="VARCHAR" style="shape=partialRectangle;connectable=0;fillColor=none;top=0;left=0;bottom=0;right=0;align=left;spacingLeft=2;overflow=hidden;fontSize=11;" vertex="1" parent="aCuJq1FHVLhUi_cSeAXU-589">
          <mxGeometry x="90" width="72" height="22" as="geometry">
            <mxRectangle width="72" height="22" as="alternateBounds" />
          </mxGeometry>
        </mxCell>
        <mxCell id="aCuJq1FHVLhUi_cSeAXU-592" value="NOT NULL" style="shape=partialRectangle;connectable=0;fillColor=none;top=0;left=0;bottom=0;right=0;align=left;spacingLeft=2;overflow=hidden;fontSize=11;" vertex="1" parent="aCuJq1FHVLhUi_cSeAXU-589">
          <mxGeometry x="162" width="204" height="22" as="geometry">
            <mxRectangle width="204" height="22" as="alternateBounds" />
          </mxGeometry>
        </mxCell>
        <mxCell id="aCuJq1FHVLhUi_cSeAXU-593" style="shape=tableRow;horizontal=0;startSize=0;swimlaneHead=0;swimlaneBody=0;fillColor=none;collapsible=0;dropTarget=0;points=[[0,0.5],[1,0.5]];portConstraint=eastwest;top=0;left=0;right=0;bottom=0;" vertex="1" parent="aCuJq1FHVLhUi_cSeAXU-576">
          <mxGeometry y="113" width="366" height="22" as="geometry" />
        </mxCell>
        <mxCell id="aCuJq1FHVLhUi_cSeAXU-594" value="create_at" style="shape=partialRectangle;connectable=0;fillColor=none;top=0;left=0;bottom=0;right=0;align=left;spacingLeft=2;overflow=hidden;fontSize=11;" vertex="1" parent="aCuJq1FHVLhUi_cSeAXU-593">
          <mxGeometry width="90" height="22" as="geometry">
            <mxRectangle width="90" height="22" as="alternateBounds" />
          </mxGeometry>
        </mxCell>
        <mxCell id="aCuJq1FHVLhUi_cSeAXU-595" value="TIMESTAMP" style="shape=partialRectangle;connectable=0;fillColor=none;top=0;left=0;bottom=0;right=0;align=left;spacingLeft=2;overflow=hidden;fontSize=11;" vertex="1" parent="aCuJq1FHVLhUi_cSeAXU-593">
          <mxGeometry x="90" width="72" height="22" as="geometry">
            <mxRectangle width="72" height="22" as="alternateBounds" />
          </mxGeometry>
        </mxCell>
        <mxCell id="aCuJq1FHVLhUi_cSeAXU-596" value="NOT NULL DEFAULT CURRENT_TIMESTAMP" style="shape=partialRectangle;connectable=0;fillColor=none;top=0;left=0;bottom=0;right=0;align=left;spacingLeft=2;overflow=hidden;fontSize=11;" vertex="1" parent="aCuJq1FHVLhUi_cSeAXU-593">
          <mxGeometry x="162" width="204" height="22" as="geometry">
            <mxRectangle width="204" height="22" as="alternateBounds" />
          </mxGeometry>
        </mxCell>
        <mxCell id="aCuJq1FHVLhUi_cSeAXU-597" style="shape=tableRow;horizontal=0;startSize=0;swimlaneHead=0;swimlaneBody=0;fillColor=none;collapsible=0;dropTarget=0;points=[[0,0.5],[1,0.5]];portConstraint=eastwest;top=0;left=0;right=0;bottom=0;" vertex="1" parent="aCuJq1FHVLhUi_cSeAXU-576">
          <mxGeometry y="135" width="366" height="22" as="geometry" />
        </mxCell>
        <mxCell id="aCuJq1FHVLhUi_cSeAXU-598" value="update_at" style="shape=partialRectangle;connectable=0;fillColor=none;top=0;left=0;bottom=0;right=0;align=left;spacingLeft=2;overflow=hidden;fontSize=11;" vertex="1" parent="aCuJq1FHVLhUi_cSeAXU-597">
          <mxGeometry width="90" height="22" as="geometry">
            <mxRectangle width="90" height="22" as="alternateBounds" />
          </mxGeometry>
        </mxCell>
        <mxCell id="aCuJq1FHVLhUi_cSeAXU-599" value="TIMESTAMP" style="shape=partialRectangle;connectable=0;fillColor=none;top=0;left=0;bottom=0;right=0;align=left;spacingLeft=2;overflow=hidden;fontSize=11;" vertex="1" parent="aCuJq1FHVLhUi_cSeAXU-597">
          <mxGeometry x="90" width="72" height="22" as="geometry">
            <mxRectangle width="72" height="22" as="alternateBounds" />
          </mxGeometry>
        </mxCell>
        <mxCell id="aCuJq1FHVLhUi_cSeAXU-600" value="" style="shape=partialRectangle;connectable=0;fillColor=none;top=0;left=0;bottom=0;right=0;align=left;spacingLeft=2;overflow=hidden;fontSize=11;" vertex="1" parent="aCuJq1FHVLhUi_cSeAXU-597">
          <mxGeometry x="162" width="204" height="22" as="geometry">
            <mxRectangle width="204" height="22" as="alternateBounds" />
          </mxGeometry>
        </mxCell>
        <mxCell id="aCuJq1FHVLhUi_cSeAXU-601" value="has" style="curved=1;startArrow=ERmandOne;startSize=10;;endArrow=ERmandOne;endSize=10;;exitX=-0.002358846618357488;exitY=0.6062423492574266;entryX=0.49977562010443866;entryY=0.00041443284424379234;rounded=0;" edge="1" parent="1" source="aCuJq1FHVLhUi_cSeAXU-275" target="aCuJq1FHVLhUi_cSeAXU-292">
          <mxGeometry relative="1" as="geometry">
            <Array as="points">
              <mxPoint x="659" y="182" />
            </Array>
          </mxGeometry>
        </mxCell>
        <mxCell id="aCuJq1FHVLhUi_cSeAXU-602" value="has" style="curved=1;startArrow=ERmandOne;startSize=10;;endArrow=ERzeroToOne;endSize=10;;exitX=-0.002358846618357488;exitY=0.7155773170329324;entryX=0.49905563186813184;entryY=-0.0017501316713483147;rounded=0;" edge="1" parent="1" source="aCuJq1FHVLhUi_cSeAXU-275" target="aCuJq1FHVLhUi_cSeAXU-369">
          <mxGeometry relative="1" as="geometry">
            <Array as="points">
              <mxPoint x="1133" y="182" />
            </Array>
          </mxGeometry>
        </mxCell>
        <mxCell id="aCuJq1FHVLhUi_cSeAXU-603" value="has" style="curved=1;startArrow=ERmandOne;startSize=10;;endArrow=ERmandOne;endSize=10;;exitX=0.4972650466029402;exitY=1.0016392299107142;entryX=0.5011640401146131;entryY=-0.0025853866185897435;rounded=0;" edge="1" parent="1" source="aCuJq1FHVLhUi_cSeAXU-275" target="aCuJq1FHVLhUi_cSeAXU-398">
          <mxGeometry relative="1" as="geometry">
            <Array as="points">
              <mxPoint x="1589" y="182" />
            </Array>
          </mxGeometry>
        </mxCell>
        <mxCell id="aCuJq1FHVLhUi_cSeAXU-604" value="has" style="curved=1;startArrow=ERmandOne;startSize=10;;endArrow=ERmandOne;endSize=10;;exitX=0.9971882548309179;exitY=0.7054888403817721;entryX=0.5006494498777506;entryY=-0.0022911658653846155;rounded=0;" edge="1" parent="1" source="aCuJq1FHVLhUi_cSeAXU-275" target="aCuJq1FHVLhUi_cSeAXU-423">
          <mxGeometry relative="1" as="geometry">
            <Array as="points">
              <mxPoint x="2068" y="182" />
            </Array>
          </mxGeometry>
        </mxCell>
        <mxCell id="aCuJq1FHVLhUi_cSeAXU-605" value="has" style="curved=1;startArrow=ERmandOne;startSize=10;;endArrow=ERmany;endSize=10;;exitX=0;exitY=0.7592974507657185;entryX=0.49995799731182794;entryY=0.001068000936329588;rounded=0;" edge="1" parent="1" source="aCuJq1FHVLhUi_cSeAXU-292" target="aCuJq1FHVLhUi_cSeAXU-448">
          <mxGeometry relative="1" as="geometry">
            <Array as="points">
              <mxPoint x="206" y="725" />
            </Array>
          </mxGeometry>
        </mxCell>
        <mxCell id="aCuJq1FHVLhUi_cSeAXU-606" value="has" style="curved=1;startArrow=ERmandOne;startSize=10;;endArrow=ERmany;endSize=10;;exitX=0.5060331269088488;exitY=1.0006436935665914;entryX=0.49956469941348974;entryY=0.0014171170112781955;rounded=0;" edge="1" parent="1" source="aCuJq1FHVLhUi_cSeAXU-292" target="aCuJq1FHVLhUi_cSeAXU-493">
          <mxGeometry relative="1" as="geometry">
            <Array as="points">
              <mxPoint x="662" y="725" />
            </Array>
          </mxGeometry>
        </mxCell>
        <mxCell id="aCuJq1FHVLhUi_cSeAXU-607" value="has" style="curved=1;startArrow=ERmandOne;startSize=10;;endArrow=ERmany;endSize=10;;exitX=0.9995512402088773;exitY=0.7592974507657185;entryX=0.4995659722222222;entryY=0.0037754603794642855;rounded=0;" edge="1" parent="1" source="aCuJq1FHVLhUi_cSeAXU-292" target="aCuJq1FHVLhUi_cSeAXU-538">
          <mxGeometry relative="1" as="geometry">
            <Array as="points">
              <mxPoint x="1113" y="725" />
            </Array>
          </mxGeometry>
        </mxCell>
        <mxCell id="aCuJq1FHVLhUi_cSeAXU-608" value="has" style="curved=1;startArrow=ERmandOne;startSize=10;;endArrow=ERmany;endSize=10;;exitX=0.9995512402088773;exitY=0.6291332868495777;entryX=0.4993671438547486;entryY=0.0031556086753731344;rounded=0;" edge="1" parent="1" source="aCuJq1FHVLhUi_cSeAXU-292" target="aCuJq1FHVLhUi_cSeAXU-555">
          <mxGeometry relative="1" as="geometry">
            <Array as="points">
              <mxPoint x="1572" y="725" />
            </Array>
          </mxGeometry>
        </mxCell>
        <mxCell id="aCuJq1FHVLhUi_cSeAXU-609" value="has" style="curved=1;startArrow=ERmany;startSize=10;;endArrow=ERmandOne;endSize=10;;exitX=0.4993671438547486;exitY=1.0052107625932836;entryX=0.4993809767759563;entryY=-0.0010516826923076923;rounded=0;" edge="1" parent="1" source="aCuJq1FHVLhUi_cSeAXU-555" target="aCuJq1FHVLhUi_cSeAXU-576">
          <mxGeometry relative="1" as="geometry">
            <Array as="points" />
          </mxGeometry>
        </mxCell>
        <mxCell id="aCuJq1FHVLhUi_cSeAXU-610" value="&lt;div style=&quot;font-size: 9px;&quot;&gt;&lt;font face=&quot;Verdana&quot; style=&quot;font-size: 9px;&quot;&gt;erDiagram&lt;/font&gt;&lt;/div&gt;&lt;div style=&quot;font-size: 9px;&quot;&gt;&lt;font face=&quot;QVJYBWn3z50i518yFm1P&quot; style=&quot;font-size: 9px;&quot;&gt;&amp;nbsp; &amp;nbsp; User {&lt;/font&gt;&lt;/div&gt;&lt;div style=&quot;font-size: 9px;&quot;&gt;&lt;font face=&quot;QVJYBWn3z50i518yFm1P&quot; style=&quot;font-size: 9px;&quot;&gt;&amp;nbsp; &amp;nbsp; &amp;nbsp; &amp;nbsp; user_id INT PK&lt;/font&gt;&lt;/div&gt;&lt;div style=&quot;font-size: 9px;&quot;&gt;&lt;font face=&quot;QVJYBWn3z50i518yFm1P&quot; style=&quot;font-size: 9px;&quot;&gt;&amp;nbsp; &amp;nbsp; &amp;nbsp; &amp;nbsp; name VARCHAR &quot;NOT NULL&quot;&lt;/font&gt;&lt;/div&gt;&lt;div style=&quot;font-size: 9px;&quot;&gt;&lt;font face=&quot;QVJYBWn3z50i518yFm1P&quot; style=&quot;font-size: 9px;&quot;&gt;&amp;nbsp; &amp;nbsp; &amp;nbsp; &amp;nbsp; image VARCHAR&lt;/font&gt;&lt;/div&gt;&lt;div style=&quot;font-size: 9px;&quot;&gt;&lt;font face=&quot;QVJYBWn3z50i518yFm1P&quot; style=&quot;font-size: 9px;&quot;&gt;&amp;nbsp; &amp;nbsp; &amp;nbsp; &amp;nbsp; phone_number VARCHAR &quot;NOT NULL&quot;&lt;/font&gt;&lt;/div&gt;&lt;div style=&quot;font-size: 9px;&quot;&gt;&lt;font face=&quot;QVJYBWn3z50i518yFm1P&quot; style=&quot;font-size: 9px;&quot;&gt;&amp;nbsp; &amp;nbsp; }&lt;/font&gt;&lt;/div&gt;&lt;div style=&quot;font-size: 9px;&quot;&gt;&lt;font face=&quot;QVJYBWn3z50i518yFm1P&quot; style=&quot;font-size: 9px;&quot;&gt;&lt;br&gt;&lt;/font&gt;&lt;/div&gt;&lt;div style=&quot;font-size: 9px;&quot;&gt;&lt;font face=&quot;QVJYBWn3z50i518yFm1P&quot; style=&quot;font-size: 9px;&quot;&gt;&amp;nbsp; &amp;nbsp; Profile {&lt;/font&gt;&lt;/div&gt;&lt;div style=&quot;font-size: 9px;&quot;&gt;&lt;font face=&quot;QVJYBWn3z50i518yFm1P&quot; style=&quot;font-size: 9px;&quot;&gt;&amp;nbsp; &amp;nbsp; &amp;nbsp; &amp;nbsp; profile_id INT PK&lt;/font&gt;&lt;/div&gt;&lt;div style=&quot;font-size: 9px;&quot;&gt;&lt;font face=&quot;QVJYBWn3z50i518yFm1P&quot; style=&quot;font-size: 9px;&quot;&gt;&amp;nbsp; &amp;nbsp; &amp;nbsp; &amp;nbsp; user_id INT FK&lt;/font&gt;&lt;/div&gt;&lt;div style=&quot;font-size: 9px;&quot;&gt;&lt;font face=&quot;QVJYBWn3z50i518yFm1P&quot; style=&quot;font-size: 9px;&quot;&gt;&amp;nbsp; &amp;nbsp; &amp;nbsp; &amp;nbsp; name VARCHAR &quot;NOT NULL&quot;&lt;/font&gt;&lt;/div&gt;&lt;div style=&quot;font-size: 9px;&quot;&gt;&lt;font face=&quot;QVJYBWn3z50i518yFm1P&quot; style=&quot;font-size: 9px;&quot;&gt;&amp;nbsp; &amp;nbsp; &amp;nbsp; &amp;nbsp; image_url VARCHAR&lt;/font&gt;&lt;/div&gt;&lt;div style=&quot;font-size: 9px;&quot;&gt;&lt;font face=&quot;QVJYBWn3z50i518yFm1P&quot; style=&quot;font-size: 9px;&quot;&gt;&amp;nbsp; &amp;nbsp; &amp;nbsp; &amp;nbsp; small_image_url VARCHAR&lt;/font&gt;&lt;/div&gt;&lt;div style=&quot;font-size: 9px;&quot;&gt;&lt;font face=&quot;QVJYBWn3z50i518yFm1P&quot; style=&quot;font-size: 9px;&quot;&gt;&amp;nbsp; &amp;nbsp; &amp;nbsp; &amp;nbsp; medium_image_url VARCHAR&lt;/font&gt;&lt;/div&gt;&lt;div style=&quot;font-size: 9px;&quot;&gt;&lt;font face=&quot;QVJYBWn3z50i518yFm1P&quot; style=&quot;font-size: 9px;&quot;&gt;&amp;nbsp; &amp;nbsp; &amp;nbsp; &amp;nbsp; title VARCHAR &quot;NOT NULL&quot;&lt;/font&gt;&lt;/div&gt;&lt;div style=&quot;font-size: 9px;&quot;&gt;&lt;font face=&quot;QVJYBWn3z50i518yFm1P&quot; style=&quot;font-size: 9px;&quot;&gt;&amp;nbsp; &amp;nbsp; &amp;nbsp; &amp;nbsp; subscriber_count INT &quot;NOT NULL DEFAULT 0&quot;&lt;/font&gt;&lt;/div&gt;&lt;div style=&quot;font-size: 9px;&quot;&gt;&lt;font face=&quot;QVJYBWn3z50i518yFm1P&quot; style=&quot;font-size: 9px;&quot;&gt;&amp;nbsp; &amp;nbsp; &amp;nbsp; &amp;nbsp; subscribing_count INT &quot;NOT NULL DEFAULT 0&quot;&lt;/font&gt;&lt;/div&gt;&lt;div style=&quot;font-size: 9px;&quot;&gt;&lt;font face=&quot;QVJYBWn3z50i518yFm1P&quot; style=&quot;font-size: 9px;&quot;&gt;&amp;nbsp; &amp;nbsp; &amp;nbsp; &amp;nbsp; post_count INT &quot;NOT NULL DEFAULT 0&quot;&lt;/font&gt;&lt;/div&gt;&lt;div style=&quot;font-size: 9px;&quot;&gt;&lt;font face=&quot;QVJYBWn3z50i518yFm1P&quot; style=&quot;font-size: 9px;&quot;&gt;&amp;nbsp; &amp;nbsp; &amp;nbsp; &amp;nbsp; short_description VARCHAR&lt;/font&gt;&lt;/div&gt;&lt;div style=&quot;font-size: 9px;&quot;&gt;&lt;font face=&quot;QVJYBWn3z50i518yFm1P&quot; style=&quot;font-size: 9px;&quot;&gt;&amp;nbsp; &amp;nbsp; &amp;nbsp; &amp;nbsp; description VARCHAR&lt;/font&gt;&lt;/div&gt;&lt;div style=&quot;font-size: 9px;&quot;&gt;&lt;font face=&quot;QVJYBWn3z50i518yFm1P&quot; style=&quot;font-size: 9px;&quot;&gt;&amp;nbsp; &amp;nbsp; &amp;nbsp; &amp;nbsp; links VARCHAR&lt;/font&gt;&lt;/div&gt;&lt;div style=&quot;font-size: 9px;&quot;&gt;&lt;font face=&quot;QVJYBWn3z50i518yFm1P&quot; style=&quot;font-size: 9px;&quot;&gt;&amp;nbsp; &amp;nbsp; &amp;nbsp; &amp;nbsp; hashtags VARCHAR&lt;/font&gt;&lt;/div&gt;&lt;div style=&quot;font-size: 9px;&quot;&gt;&lt;font face=&quot;QVJYBWn3z50i518yFm1P&quot; style=&quot;font-size: 9px;&quot;&gt;&amp;nbsp; &amp;nbsp; &amp;nbsp; &amp;nbsp; note VARCHAR&lt;/font&gt;&lt;/div&gt;&lt;div style=&quot;font-size: 9px;&quot;&gt;&lt;font face=&quot;QVJYBWn3z50i518yFm1P&quot; style=&quot;font-size: 9px;&quot;&gt;&amp;nbsp; &amp;nbsp; &amp;nbsp; &amp;nbsp; profile_job_opt INT &quot;NOT NULL&quot;&lt;/font&gt;&lt;/div&gt;&lt;div style=&quot;font-size: 9px;&quot;&gt;&lt;font face=&quot;QVJYBWn3z50i518yFm1P&quot; style=&quot;font-size: 9px;&quot;&gt;&amp;nbsp; &amp;nbsp; &amp;nbsp; &amp;nbsp; openToSearchEngine INT &quot;NOT NULL DEFAULT 0&quot;&lt;/font&gt;&lt;/div&gt;&lt;div style=&quot;font-size: 9px;&quot;&gt;&lt;font face=&quot;QVJYBWn3z50i518yFm1P&quot; style=&quot;font-size: 9px;&quot;&gt;&amp;nbsp; &amp;nbsp; &amp;nbsp; &amp;nbsp; create_at TIMESTAMP &quot;NOT NULL DEFAULT CURRENT_TIMESTAMP&quot;&lt;/font&gt;&lt;/div&gt;&lt;div style=&quot;font-size: 9px;&quot;&gt;&lt;font face=&quot;QVJYBWn3z50i518yFm1P&quot; style=&quot;font-size: 9px;&quot;&gt;&amp;nbsp; &amp;nbsp; &amp;nbsp; &amp;nbsp; update_at TIMESTAMP&lt;/font&gt;&lt;/div&gt;&lt;div style=&quot;font-size: 9px;&quot;&gt;&lt;font face=&quot;QVJYBWn3z50i518yFm1P&quot; style=&quot;font-size: 9px;&quot;&gt;&amp;nbsp; &amp;nbsp; }&lt;/font&gt;&lt;/div&gt;&lt;div style=&quot;font-size: 9px;&quot;&gt;&lt;font face=&quot;QVJYBWn3z50i518yFm1P&quot; style=&quot;font-size: 9px;&quot;&gt;&lt;br&gt;&lt;/font&gt;&lt;/div&gt;&lt;div style=&quot;font-size: 9px;&quot;&gt;&lt;font face=&quot;QVJYBWn3z50i518yFm1P&quot; style=&quot;font-size: 9px;&quot;&gt;&amp;nbsp; &amp;nbsp; Token {&lt;/font&gt;&lt;/div&gt;&lt;div style=&quot;font-size: 9px;&quot;&gt;&lt;font face=&quot;QVJYBWn3z50i518yFm1P&quot; style=&quot;font-size: 9px;&quot;&gt;&amp;nbsp; &amp;nbsp; &amp;nbsp; &amp;nbsp; token_id INT PK&lt;/font&gt;&lt;/div&gt;&lt;div style=&quot;font-size: 9px;&quot;&gt;&lt;font face=&quot;QVJYBWn3z50i518yFm1P&quot; style=&quot;font-size: 9px;&quot;&gt;&amp;nbsp; &amp;nbsp; &amp;nbsp; &amp;nbsp; user_id INT FK&lt;/font&gt;&lt;/div&gt;&lt;div style=&quot;font-size: 9px;&quot;&gt;&lt;font face=&quot;QVJYBWn3z50i518yFm1P&quot; style=&quot;font-size: 9px;&quot;&gt;&amp;nbsp; &amp;nbsp; &amp;nbsp; &amp;nbsp; access_token VARCHAR UNIQUE&lt;/font&gt;&lt;/div&gt;&lt;div style=&quot;font-size: 9px;&quot;&gt;&lt;font face=&quot;QVJYBWn3z50i518yFm1P&quot; style=&quot;font-size: 9px;&quot;&gt;&amp;nbsp; &amp;nbsp; &amp;nbsp; &amp;nbsp; refresh_token VARCHAR UNIQUE&lt;/font&gt;&lt;/div&gt;&lt;div style=&quot;font-size: 9px;&quot;&gt;&lt;font face=&quot;QVJYBWn3z50i518yFm1P&quot; style=&quot;font-size: 9px;&quot;&gt;&amp;nbsp; &amp;nbsp; &amp;nbsp; &amp;nbsp; expire_at TIMESTAMP &quot;NOT NULL&quot;&lt;/font&gt;&lt;/div&gt;&lt;div style=&quot;font-size: 9px;&quot;&gt;&lt;font face=&quot;QVJYBWn3z50i518yFm1P&quot; style=&quot;font-size: 9px;&quot;&gt;&amp;nbsp; &amp;nbsp; &amp;nbsp; &amp;nbsp; create_at TIMESTAMP &quot;NOT NULL DEFAULT CURRENT_TIMESTAMP&quot;&lt;/font&gt;&lt;/div&gt;&lt;div style=&quot;font-size: 9px;&quot;&gt;&lt;font face=&quot;QVJYBWn3z50i518yFm1P&quot; style=&quot;font-size: 9px;&quot;&gt;&amp;nbsp; &amp;nbsp; }&lt;/font&gt;&lt;/div&gt;&lt;div style=&quot;font-size: 9px;&quot;&gt;&lt;font face=&quot;QVJYBWn3z50i518yFm1P&quot; style=&quot;font-size: 9px;&quot;&gt;&lt;br&gt;&lt;/font&gt;&lt;/div&gt;&lt;div style=&quot;font-size: 9px;&quot;&gt;&lt;font face=&quot;QVJYBWn3z50i518yFm1P&quot; style=&quot;font-size: 9px;&quot;&gt;&amp;nbsp; &amp;nbsp; Account {&lt;/font&gt;&lt;/div&gt;&lt;div style=&quot;font-size: 9px;&quot;&gt;&lt;font face=&quot;QVJYBWn3z50i518yFm1P&quot; style=&quot;font-size: 9px;&quot;&gt;&amp;nbsp; &amp;nbsp; &amp;nbsp; &amp;nbsp; account_id VARCHAR PK&lt;/font&gt;&lt;/div&gt;&lt;div style=&quot;font-size: 9px;&quot;&gt;&lt;font face=&quot;QVJYBWn3z50i518yFm1P&quot; style=&quot;font-size: 9px;&quot;&gt;&amp;nbsp; &amp;nbsp; &amp;nbsp; &amp;nbsp; user_id INT FK&lt;/font&gt;&lt;/div&gt;&lt;div style=&quot;font-size: 9px;&quot;&gt;&lt;font face=&quot;QVJYBWn3z50i518yFm1P&quot; style=&quot;font-size: 9px;&quot;&gt;&amp;nbsp; &amp;nbsp; &amp;nbsp; &amp;nbsp; pw_hash VARCHAR &quot;NOT NULL&quot;&lt;/font&gt;&lt;/div&gt;&lt;div style=&quot;font-size: 9px;&quot;&gt;&lt;font face=&quot;QVJYBWn3z50i518yFm1P&quot; style=&quot;font-size: 9px;&quot;&gt;&amp;nbsp; &amp;nbsp; &amp;nbsp; &amp;nbsp; last_login_dt TIMESTAMP&lt;/font&gt;&lt;/div&gt;&lt;div style=&quot;font-size: 9px;&quot;&gt;&lt;font face=&quot;QVJYBWn3z50i518yFm1P&quot; style=&quot;font-size: 9px;&quot;&gt;&amp;nbsp; &amp;nbsp; &amp;nbsp; &amp;nbsp; create_at TIMESTAMP &quot;NOT NULL DEFAULT CURRENT_TIMESTAMP&quot;&lt;/font&gt;&lt;/div&gt;&lt;div style=&quot;font-size: 9px;&quot;&gt;&lt;font face=&quot;QVJYBWn3z50i518yFm1P&quot; style=&quot;font-size: 9px;&quot;&gt;&amp;nbsp; &amp;nbsp; &amp;nbsp; &amp;nbsp; update_at TIMESTAMP&lt;/font&gt;&lt;/div&gt;&lt;div style=&quot;font-size: 9px;&quot;&gt;&lt;font face=&quot;QVJYBWn3z50i518yFm1P&quot; style=&quot;font-size: 9px;&quot;&gt;&amp;nbsp; &amp;nbsp; }&lt;/font&gt;&lt;/div&gt;&lt;div style=&quot;font-size: 9px;&quot;&gt;&lt;font face=&quot;QVJYBWn3z50i518yFm1P&quot; style=&quot;font-size: 9px;&quot;&gt;&lt;br&gt;&lt;/font&gt;&lt;/div&gt;&lt;div style=&quot;font-size: 9px;&quot;&gt;&lt;font face=&quot;QVJYBWn3z50i518yFm1P&quot; style=&quot;font-size: 9px;&quot;&gt;&amp;nbsp; &amp;nbsp; Consent {&lt;/font&gt;&lt;/div&gt;&lt;div style=&quot;font-size: 9px;&quot;&gt;&lt;font face=&quot;QVJYBWn3z50i518yFm1P&quot; style=&quot;font-size: 9px;&quot;&gt;&amp;nbsp; &amp;nbsp; &amp;nbsp; &amp;nbsp; consent_id INT PK&lt;/font&gt;&lt;/div&gt;&lt;div style=&quot;font-size: 9px;&quot;&gt;&lt;font face=&quot;QVJYBWn3z50i518yFm1P&quot; style=&quot;font-size: 9px;&quot;&gt;&amp;nbsp; &amp;nbsp; &amp;nbsp; &amp;nbsp; user_id INT FK&lt;/font&gt;&lt;/div&gt;&lt;div style=&quot;font-size: 9px;&quot;&gt;&lt;font face=&quot;QVJYBWn3z50i518yFm1P&quot; style=&quot;font-size: 9px;&quot;&gt;&amp;nbsp; &amp;nbsp; &amp;nbsp; &amp;nbsp; marketing_consent BOOLEAN &quot;NOT NULL&quot;&lt;/font&gt;&lt;/div&gt;&lt;div style=&quot;font-size: 9px;&quot;&gt;&lt;font face=&quot;QVJYBWn3z50i518yFm1P&quot; style=&quot;font-size: 9px;&quot;&gt;&amp;nbsp; &amp;nbsp; &amp;nbsp; &amp;nbsp; terms_conditions_consent BOOLEAN &quot;NOT NULL&quot;&lt;/font&gt;&lt;/div&gt;&lt;div style=&quot;font-size: 9px;&quot;&gt;&lt;font face=&quot;QVJYBWn3z50i518yFm1P&quot; style=&quot;font-size: 9px;&quot;&gt;&amp;nbsp; &amp;nbsp; &amp;nbsp; &amp;nbsp; create_at TIMESTAMP &quot;NOT NULL DEFAULT CURRENT_TIMESTAMP&quot;&lt;/font&gt;&lt;/div&gt;&lt;div style=&quot;font-size: 9px;&quot;&gt;&lt;font face=&quot;QVJYBWn3z50i518yFm1P&quot; style=&quot;font-size: 9px;&quot;&gt;&amp;nbsp; &amp;nbsp; &amp;nbsp; &amp;nbsp; update_at TIMESTAMP&lt;/font&gt;&lt;/div&gt;&lt;div style=&quot;font-size: 9px;&quot;&gt;&lt;font face=&quot;QVJYBWn3z50i518yFm1P&quot; style=&quot;font-size: 9px;&quot;&gt;&amp;nbsp; &amp;nbsp; }&lt;/font&gt;&lt;/div&gt;&lt;div style=&quot;font-size: 9px;&quot;&gt;&lt;font face=&quot;QVJYBWn3z50i518yFm1P&quot; style=&quot;font-size: 9px;&quot;&gt;&lt;br&gt;&lt;/font&gt;&lt;/div&gt;&lt;div style=&quot;font-size: 9px;&quot;&gt;&lt;font face=&quot;QVJYBWn3z50i518yFm1P&quot; style=&quot;font-size: 9px;&quot;&gt;&amp;nbsp; &amp;nbsp; Company {&lt;/font&gt;&lt;/div&gt;&lt;div style=&quot;font-size: 9px;&quot;&gt;&lt;font face=&quot;QVJYBWn3z50i518yFm1P&quot; style=&quot;font-size: 9px;&quot;&gt;&amp;nbsp; &amp;nbsp; &amp;nbsp; &amp;nbsp; company_id INT PK&lt;/font&gt;&lt;/div&gt;&lt;div style=&quot;font-size: 9px;&quot;&gt;&lt;font face=&quot;QVJYBWn3z50i518yFm1P&quot; style=&quot;font-size: 9px;&quot;&gt;&amp;nbsp; &amp;nbsp; &amp;nbsp; &amp;nbsp; profile_id INT FK&lt;/font&gt;&lt;/div&gt;&lt;div style=&quot;font-size: 9px;&quot;&gt;&lt;font face=&quot;QVJYBWn3z50i518yFm1P&quot; style=&quot;font-size: 9px;&quot;&gt;&amp;nbsp; &amp;nbsp; &amp;nbsp; &amp;nbsp; company_nm VARCHAR &quot;NOT NULL&quot;&lt;/font&gt;&lt;/div&gt;&lt;div style=&quot;font-size: 9px;&quot;&gt;&lt;font face=&quot;QVJYBWn3z50i518yFm1P&quot; style=&quot;font-size: 9px;&quot;&gt;&amp;nbsp; &amp;nbsp; &amp;nbsp; &amp;nbsp; company_position VARCHAR &quot;NOT NULL&quot;&lt;/font&gt;&lt;/div&gt;&lt;div style=&quot;font-size: 9px;&quot;&gt;&lt;font face=&quot;QVJYBWn3z50i518yFm1P&quot; style=&quot;font-size: 9px;&quot;&gt;&amp;nbsp; &amp;nbsp; &amp;nbsp; &amp;nbsp; description VARCHAR&lt;/font&gt;&lt;/div&gt;&lt;div style=&quot;font-size: 9px;&quot;&gt;&lt;font face=&quot;QVJYBWn3z50i518yFm1P&quot; style=&quot;font-size: 9px;&quot;&gt;&amp;nbsp; &amp;nbsp; &amp;nbsp; &amp;nbsp; is_current INT &quot;NOT NULL&quot;&lt;/font&gt;&lt;/div&gt;&lt;div style=&quot;font-size: 9px;&quot;&gt;&lt;font face=&quot;QVJYBWn3z50i518yFm1P&quot; style=&quot;font-size: 9px;&quot;&gt;&amp;nbsp; &amp;nbsp; &amp;nbsp; &amp;nbsp; url VARCHAR&lt;/font&gt;&lt;/div&gt;&lt;div style=&quot;font-size: 9px;&quot;&gt;&lt;font face=&quot;QVJYBWn3z50i518yFm1P&quot; style=&quot;font-size: 9px;&quot;&gt;&amp;nbsp; &amp;nbsp; &amp;nbsp; &amp;nbsp; start_date TIMESTAMP &quot;NOT NULL&quot;&lt;/font&gt;&lt;/div&gt;&lt;div style=&quot;font-size: 9px;&quot;&gt;&lt;font face=&quot;QVJYBWn3z50i518yFm1P&quot; style=&quot;font-size: 9px;&quot;&gt;&amp;nbsp; &amp;nbsp; &amp;nbsp; &amp;nbsp; end_date TIMESTAMP&lt;/font&gt;&lt;/div&gt;&lt;div style=&quot;font-size: 9px;&quot;&gt;&lt;font face=&quot;QVJYBWn3z50i518yFm1P&quot; style=&quot;font-size: 9px;&quot;&gt;&amp;nbsp; &amp;nbsp; &amp;nbsp; &amp;nbsp; create_at TIMESTAMP &quot;NOT NULL DEFAULT CURRENT_TIMESTAMP&quot;&lt;/font&gt;&lt;/div&gt;&lt;div style=&quot;font-size: 9px;&quot;&gt;&lt;font face=&quot;QVJYBWn3z50i518yFm1P&quot; style=&quot;font-size: 9px;&quot;&gt;&amp;nbsp; &amp;nbsp; &amp;nbsp; &amp;nbsp; update_at TIMESTAMP&lt;/font&gt;&lt;/div&gt;&lt;div style=&quot;font-size: 9px;&quot;&gt;&lt;font face=&quot;QVJYBWn3z50i518yFm1P&quot; style=&quot;font-size: 9px;&quot;&gt;&amp;nbsp; &amp;nbsp; }&lt;/font&gt;&lt;/div&gt;&lt;div style=&quot;font-size: 9px;&quot;&gt;&lt;font face=&quot;QVJYBWn3z50i518yFm1P&quot; style=&quot;font-size: 9px;&quot;&gt;&lt;br&gt;&lt;/font&gt;&lt;/div&gt;&lt;div style=&quot;font-size: 9px;&quot;&gt;&lt;font face=&quot;QVJYBWn3z50i518yFm1P&quot; style=&quot;font-size: 9px;&quot;&gt;&amp;nbsp; &amp;nbsp; Education {&lt;/font&gt;&lt;/div&gt;&lt;div style=&quot;font-size: 9px;&quot;&gt;&lt;font face=&quot;QVJYBWn3z50i518yFm1P&quot; style=&quot;font-size: 9px;&quot;&gt;&amp;nbsp; &amp;nbsp; &amp;nbsp; &amp;nbsp; edu_id INT PK&lt;/font&gt;&lt;/div&gt;&lt;div style=&quot;font-size: 9px;&quot;&gt;&lt;font face=&quot;QVJYBWn3z50i518yFm1P&quot; style=&quot;font-size: 9px;&quot;&gt;&amp;nbsp; &amp;nbsp; &amp;nbsp; &amp;nbsp; profile_id INT FK&lt;/font&gt;&lt;/div&gt;&lt;div style=&quot;font-size: 9px;&quot;&gt;&lt;font face=&quot;QVJYBWn3z50i518yFm1P&quot; style=&quot;font-size: 9px;&quot;&gt;&amp;nbsp; &amp;nbsp; &amp;nbsp; &amp;nbsp; institute VARCHAR &quot;NOT NULL&quot;&lt;/font&gt;&lt;/div&gt;&lt;div style=&quot;font-size: 9px;&quot;&gt;&lt;font face=&quot;QVJYBWn3z50i518yFm1P&quot; style=&quot;font-size: 9px;&quot;&gt;&amp;nbsp; &amp;nbsp; &amp;nbsp; &amp;nbsp; major VARCHAR &quot;NOT NULL&quot;&lt;/font&gt;&lt;/div&gt;&lt;div style=&quot;font-size: 9px;&quot;&gt;&lt;font face=&quot;QVJYBWn3z50i518yFm1P&quot; style=&quot;font-size: 9px;&quot;&gt;&amp;nbsp; &amp;nbsp; &amp;nbsp; &amp;nbsp; description VARCHAR&lt;/font&gt;&lt;/div&gt;&lt;div style=&quot;font-size: 9px;&quot;&gt;&lt;font face=&quot;QVJYBWn3z50i518yFm1P&quot; style=&quot;font-size: 9px;&quot;&gt;&amp;nbsp; &amp;nbsp; &amp;nbsp; &amp;nbsp; is_current INT &quot;NOT NULL&quot;&lt;/font&gt;&lt;/div&gt;&lt;div style=&quot;font-size: 9px;&quot;&gt;&lt;font face=&quot;QVJYBWn3z50i518yFm1P&quot; style=&quot;font-size: 9px;&quot;&gt;&amp;nbsp; &amp;nbsp; &amp;nbsp; &amp;nbsp; url VARCHAR&lt;/font&gt;&lt;/div&gt;&lt;div style=&quot;font-size: 9px;&quot;&gt;&lt;font face=&quot;QVJYBWn3z50i518yFm1P&quot; style=&quot;font-size: 9px;&quot;&gt;&amp;nbsp; &amp;nbsp; &amp;nbsp; &amp;nbsp; start_date TIMESTAMP &quot;NOT NULL&quot;&lt;/font&gt;&lt;/div&gt;&lt;div style=&quot;font-size: 9px;&quot;&gt;&lt;font face=&quot;QVJYBWn3z50i518yFm1P&quot; style=&quot;font-size: 9px;&quot;&gt;&amp;nbsp; &amp;nbsp; &amp;nbsp; &amp;nbsp; end_date TIMESTAMP&lt;/font&gt;&lt;/div&gt;&lt;div style=&quot;font-size: 9px;&quot;&gt;&lt;font face=&quot;QVJYBWn3z50i518yFm1P&quot; style=&quot;font-size: 9px;&quot;&gt;&amp;nbsp; &amp;nbsp; &amp;nbsp; &amp;nbsp; create_at TIMESTAMP &quot;NOT NULL DEFAULT CURRENT_TIMESTAMP&quot;&lt;/font&gt;&lt;/div&gt;&lt;div style=&quot;font-size: 9px;&quot;&gt;&lt;font face=&quot;QVJYBWn3z50i518yFm1P&quot; style=&quot;font-size: 9px;&quot;&gt;&amp;nbsp; &amp;nbsp; &amp;nbsp; &amp;nbsp; update_at TIMESTAMP&lt;/font&gt;&lt;/div&gt;&lt;div style=&quot;font-size: 9px;&quot;&gt;&lt;font face=&quot;QVJYBWn3z50i518yFm1P&quot; style=&quot;font-size: 9px;&quot;&gt;&amp;nbsp; &amp;nbsp; }&lt;/font&gt;&lt;/div&gt;&lt;div style=&quot;font-size: 9px;&quot;&gt;&lt;font face=&quot;QVJYBWn3z50i518yFm1P&quot; style=&quot;font-size: 9px;&quot;&gt;&lt;br&gt;&lt;/font&gt;&lt;/div&gt;&lt;div style=&quot;font-size: 9px;&quot;&gt;&lt;font face=&quot;QVJYBWn3z50i518yFm1P&quot; style=&quot;font-size: 9px;&quot;&gt;&amp;nbsp; &amp;nbsp; Profile_sites {&lt;/font&gt;&lt;/div&gt;&lt;div style=&quot;font-size: 9px;&quot;&gt;&lt;font face=&quot;QVJYBWn3z50i518yFm1P&quot; style=&quot;font-size: 9px;&quot;&gt;&amp;nbsp; &amp;nbsp; &amp;nbsp; &amp;nbsp; profile_sites_id INT PK&lt;/font&gt;&lt;/div&gt;&lt;div style=&quot;font-size: 9px;&quot;&gt;&lt;font face=&quot;QVJYBWn3z50i518yFm1P&quot; style=&quot;font-size: 9px;&quot;&gt;&amp;nbsp; &amp;nbsp; &amp;nbsp; &amp;nbsp; profile_id INT FK&lt;/font&gt;&lt;/div&gt;&lt;div style=&quot;font-size: 9px;&quot;&gt;&lt;font face=&quot;QVJYBWn3z50i518yFm1P&quot; style=&quot;font-size: 9px;&quot;&gt;&amp;nbsp; &amp;nbsp; &amp;nbsp; &amp;nbsp; create_at TIMESTAMP &quot;NOT NULL DEFAULT CURRENT_TIMESTAMP&quot;&lt;/font&gt;&lt;/div&gt;&lt;div style=&quot;font-size: 9px;&quot;&gt;&lt;font face=&quot;QVJYBWn3z50i518yFm1P&quot; style=&quot;font-size: 9px;&quot;&gt;&amp;nbsp; &amp;nbsp; &amp;nbsp; &amp;nbsp; update_at TIMESTAMP&lt;/font&gt;&lt;/div&gt;&lt;div style=&quot;font-size: 9px;&quot;&gt;&lt;font face=&quot;QVJYBWn3z50i518yFm1P&quot; style=&quot;font-size: 9px;&quot;&gt;&amp;nbsp; &amp;nbsp; }&lt;/font&gt;&lt;/div&gt;&lt;div style=&quot;font-size: 9px;&quot;&gt;&lt;font face=&quot;QVJYBWn3z50i518yFm1P&quot; style=&quot;font-size: 9px;&quot;&gt;&lt;br&gt;&lt;/font&gt;&lt;/div&gt;&lt;div style=&quot;font-size: 9px;&quot;&gt;&lt;font face=&quot;QVJYBWn3z50i518yFm1P&quot; style=&quot;font-size: 9px;&quot;&gt;&amp;nbsp; &amp;nbsp; Profile_skill {&lt;/font&gt;&lt;/div&gt;&lt;div style=&quot;font-size: 9px;&quot;&gt;&lt;font face=&quot;QVJYBWn3z50i518yFm1P&quot; style=&quot;font-size: 9px;&quot;&gt;&amp;nbsp; &amp;nbsp; &amp;nbsp; &amp;nbsp; profile_skill_id INT PK&lt;/font&gt;&lt;/div&gt;&lt;div style=&quot;font-size: 9px;&quot;&gt;&lt;font face=&quot;QVJYBWn3z50i518yFm1P&quot; style=&quot;font-size: 9px;&quot;&gt;&amp;nbsp; &amp;nbsp; &amp;nbsp; &amp;nbsp; profile_id INT FK&lt;/font&gt;&lt;/div&gt;&lt;div style=&quot;font-size: 9px;&quot;&gt;&lt;font face=&quot;QVJYBWn3z50i518yFm1P&quot; style=&quot;font-size: 9px;&quot;&gt;&amp;nbsp; &amp;nbsp; &amp;nbsp; &amp;nbsp; skill_id INT FK&lt;/font&gt;&lt;/div&gt;&lt;div style=&quot;font-size: 9px;&quot;&gt;&lt;font face=&quot;QVJYBWn3z50i518yFm1P&quot; style=&quot;font-size: 9px;&quot;&gt;&amp;nbsp; &amp;nbsp; &amp;nbsp; &amp;nbsp; create_at TIMESTAMP &quot;NOT NULL DEFAULT CURRENT_TIMESTAMP&quot;&lt;/font&gt;&lt;/div&gt;&lt;div style=&quot;font-size: 9px;&quot;&gt;&lt;font face=&quot;QVJYBWn3z50i518yFm1P&quot; style=&quot;font-size: 9px;&quot;&gt;&amp;nbsp; &amp;nbsp; &amp;nbsp; &amp;nbsp; update_at TIMESTAMP&lt;/font&gt;&lt;/div&gt;&lt;div style=&quot;font-size: 9px;&quot;&gt;&lt;font face=&quot;QVJYBWn3z50i518yFm1P&quot; style=&quot;font-size: 9px;&quot;&gt;&amp;nbsp; &amp;nbsp; }&lt;/font&gt;&lt;/div&gt;&lt;div style=&quot;font-size: 9px;&quot;&gt;&lt;font face=&quot;QVJYBWn3z50i518yFm1P&quot; style=&quot;font-size: 9px;&quot;&gt;&lt;br&gt;&lt;/font&gt;&lt;/div&gt;&lt;div style=&quot;font-size: 9px;&quot;&gt;&lt;font face=&quot;QVJYBWn3z50i518yFm1P&quot; style=&quot;font-size: 9px;&quot;&gt;&amp;nbsp; &amp;nbsp; Skill {&lt;/font&gt;&lt;/div&gt;&lt;div style=&quot;font-size: 9px;&quot;&gt;&lt;font face=&quot;QVJYBWn3z50i518yFm1P&quot; style=&quot;font-size: 9px;&quot;&gt;&amp;nbsp; &amp;nbsp; &amp;nbsp; &amp;nbsp; skill_id INT PK&lt;/font&gt;&lt;/div&gt;&lt;div style=&quot;font-size: 9px;&quot;&gt;&lt;font face=&quot;QVJYBWn3z50i518yFm1P&quot; style=&quot;font-size: 9px;&quot;&gt;&amp;nbsp; &amp;nbsp; &amp;nbsp; &amp;nbsp; name VARCHAR &quot;NOT NULL&quot;&lt;/font&gt;&lt;/div&gt;&lt;div style=&quot;font-size: 9px;&quot;&gt;&lt;font face=&quot;QVJYBWn3z50i518yFm1P&quot; style=&quot;font-size: 9px;&quot;&gt;&amp;nbsp; &amp;nbsp; &amp;nbsp; &amp;nbsp; category VARCHAR &quot;NOT NULL&quot;&lt;/font&gt;&lt;/div&gt;&lt;div style=&quot;font-size: 9px;&quot;&gt;&lt;font face=&quot;QVJYBWn3z50i518yFm1P&quot; style=&quot;font-size: 9px;&quot;&gt;&amp;nbsp; &amp;nbsp; &amp;nbsp; &amp;nbsp; second_category VARCHAR &quot;NOT NULL&quot;&lt;/font&gt;&lt;/div&gt;&lt;div style=&quot;font-size: 9px;&quot;&gt;&lt;font face=&quot;QVJYBWn3z50i518yFm1P&quot; style=&quot;font-size: 9px;&quot;&gt;&amp;nbsp; &amp;nbsp; &amp;nbsp; &amp;nbsp; create_at TIMESTAMP &quot;NOT NULL DEFAULT CURRENT_TIMESTAMP&quot;&lt;/font&gt;&lt;/div&gt;&lt;div style=&quot;font-size: 9px;&quot;&gt;&lt;font face=&quot;QVJYBWn3z50i518yFm1P&quot; style=&quot;font-size: 9px;&quot;&gt;&amp;nbsp; &amp;nbsp; &amp;nbsp; &amp;nbsp; update_at TIMESTAMP&lt;/font&gt;&lt;/div&gt;&lt;div style=&quot;font-size: 9px;&quot;&gt;&lt;font face=&quot;QVJYBWn3z50i518yFm1P&quot; style=&quot;font-size: 9px;&quot;&gt;&amp;nbsp; &amp;nbsp; }&lt;/font&gt;&lt;/div&gt;&lt;div style=&quot;font-size: 9px;&quot;&gt;&lt;font face=&quot;QVJYBWn3z50i518yFm1P&quot; style=&quot;font-size: 9px;&quot;&gt;&lt;br&gt;&lt;/font&gt;&lt;/div&gt;&lt;div style=&quot;font-size: 9px;&quot;&gt;&lt;font face=&quot;QVJYBWn3z50i518yFm1P&quot; style=&quot;font-size: 9px;&quot;&gt;&lt;br&gt;&lt;/font&gt;&lt;/div&gt;&lt;div style=&quot;font-size: 9px;&quot;&gt;&lt;font face=&quot;QVJYBWn3z50i518yFm1P&quot; style=&quot;font-size: 9px;&quot;&gt;&amp;nbsp; &amp;nbsp; User ||--|| Profile : has&lt;/font&gt;&lt;/div&gt;&lt;div style=&quot;font-size: 9px;&quot;&gt;&lt;font face=&quot;QVJYBWn3z50i518yFm1P&quot; style=&quot;font-size: 9px;&quot;&gt;&amp;nbsp; &amp;nbsp; User ||--o| Token : has&lt;/font&gt;&lt;/div&gt;&lt;div style=&quot;font-size: 9px;&quot;&gt;&lt;font face=&quot;QVJYBWn3z50i518yFm1P&quot; style=&quot;font-size: 9px;&quot;&gt;&amp;nbsp; &amp;nbsp; User ||--|| Account : has&lt;/font&gt;&lt;/div&gt;&lt;div style=&quot;font-size: 9px;&quot;&gt;&lt;font face=&quot;QVJYBWn3z50i518yFm1P&quot; style=&quot;font-size: 9px;&quot;&gt;&amp;nbsp; &amp;nbsp; User ||--|| Consent : has&lt;/font&gt;&lt;/div&gt;&lt;div style=&quot;font-size: 9px;&quot;&gt;&lt;font face=&quot;QVJYBWn3z50i518yFm1P&quot; style=&quot;font-size: 9px;&quot;&gt;&amp;nbsp; &amp;nbsp; Profile ||--o{ Company : has&lt;/font&gt;&lt;/div&gt;&lt;div style=&quot;font-size: 9px;&quot;&gt;&lt;font face=&quot;QVJYBWn3z50i518yFm1P&quot; style=&quot;font-size: 9px;&quot;&gt;&amp;nbsp; &amp;nbsp; Profile ||--o{ Education : has&lt;/font&gt;&lt;/div&gt;&lt;div style=&quot;font-size: 9px;&quot;&gt;&lt;font face=&quot;QVJYBWn3z50i518yFm1P&quot; style=&quot;font-size: 9px;&quot;&gt;&amp;nbsp; &amp;nbsp; Profile ||--o{ Profile_sites : has&lt;/font&gt;&lt;/div&gt;&lt;div style=&quot;font-size: 9px;&quot;&gt;&lt;font face=&quot;QVJYBWn3z50i518yFm1P&quot; style=&quot;font-size: 9px;&quot;&gt;&amp;nbsp; &amp;nbsp; Profile ||--o{ Profile_skill : has&lt;/font&gt;&lt;/div&gt;&lt;div style=&quot;text-align: left; font-size: 9px;&quot;&gt;&lt;font face=&quot;QVJYBWn3z50i518yFm1P&quot; style=&quot;font-size: 9px;&quot;&gt;&amp;nbsp; &amp;nbsp; Profile_skill }o--|| Skill : has&lt;/font&gt;&lt;/div&gt;" style="text;html=1;strokeColor=none;fillColor=none;align=center;verticalAlign=middle;whiteSpace=wrap;rounded=0;" vertex="1" parent="1">
          <mxGeometry x="1830" y="1240" width="700" height="1440" as="geometry" />
        </mxCell>
      </root>
    </mxGraphModel>
  </diagram>
</mxfile>
